<?xml version="1.0" encoding="UTF-8"?>
<!-- Generator: https://ezgif.com/png-to-svg -->
<svg version="1.1" xmlns="http://www.w3.org/2000/svg" width="512" height="512">
<path d="M0 0 C4.88 2.27 7.73 5.12 10 10 C10.82 16.11 11.04 21 7.43 26.2 C4.25 30.21 0.53 33.74 -3.1 37.34 C-4.49 38.74 -4.49 38.74 -5.92 40.16 C-8.49 42.74 -11.07 45.32 -13.66 47.89 C-16.44 50.67 -19.22 53.45 -22 56.23 C-26.82 61.05 -31.64 65.86 -36.46 70.67 C-43.44 77.63 -50.4 84.59 -57.37 91.56 C-68.67 102.85 -79.98 114.15 -91.29 125.44 C-102.27 136.4 -113.25 147.37 -124.23 158.34 C-124.91 159.02 -125.59 159.7 -126.29 160.39 C-129.68 163.79 -133.08 167.18 -136.48 170.58 C-164.64 198.72 -192.82 226.86 -221 255 C-219.56 258.31 -217.76 260.48 -215.21 263.03 C-214.42 263.82 -213.63 264.62 -212.81 265.44 C-211.93 266.31 -211.06 267.18 -210.16 268.07 C-208.76 269.46 -208.76 269.46 -207.35 270.88 C-204.77 273.46 -202.19 276.03 -199.61 278.6 C-196.82 281.37 -194.04 284.14 -191.27 286.92 C-186.45 291.73 -181.63 296.54 -176.81 301.34 C-169.84 308.29 -162.87 315.24 -155.9 322.2 C-144.6 333.49 -133.29 344.78 -121.97 356.07 C-121.3 356.74 -120.62 357.42 -119.92 358.11 C-115.11 362.91 -110.31 367.7 -105.5 372.5 C-100.01 377.98 -94.52 383.46 -89.03 388.93 C-88.01 389.95 -88.01 389.95 -86.98 390.98 C-75.71 402.22 -64.44 413.47 -53.18 424.72 C-46.23 431.66 -39.27 438.6 -32.31 445.53 C-27.55 450.28 -22.79 455.03 -18.03 459.78 C-15.28 462.53 -12.53 465.27 -9.78 468.01 C-6.79 470.98 -3.82 473.95 -0.84 476.93 C0.03 477.8 0.91 478.67 1.81 479.56 C2.6 480.36 3.4 481.15 4.21 481.97 C5.25 483 5.25 483 6.3 484.05 C10.42 488.77 10.43 493.01 10.31 499.09 C9.74 504.39 7.22 506.84 3.5 510.38 C-1.56 512.72 -6.52 512.97 -12 512 C-18.22 508.54 -22.91 503.37 -27.9 498.36 C-28.9 497.36 -29.9 496.36 -30.9 495.36 C-33.65 492.62 -36.39 489.88 -39.13 487.13 C-42.08 484.17 -45.05 481.22 -48.01 478.26 C-53.81 472.47 -59.6 466.67 -65.4 460.88 C-70.1 456.16 -74.81 451.46 -79.52 446.75 C-80.19 446.08 -80.86 445.41 -81.55 444.72 C-82.91 443.36 -84.27 442 -85.64 440.64 C-98.4 427.88 -111.16 415.11 -123.92 402.34 C-134.87 391.38 -145.82 380.43 -156.79 369.48 C-169.51 356.76 -182.23 344.04 -194.95 331.32 C-196.31 329.96 -197.66 328.61 -199.02 327.25 C-199.68 326.58 -200.35 325.92 -201.04 325.23 C-205.74 320.52 -210.45 315.82 -215.15 311.12 C-220.89 305.39 -226.62 299.66 -232.34 293.92 C-235.27 291 -238.19 288.07 -241.12 285.15 C-243.8 282.48 -246.47 279.8 -249.14 277.12 C-250.57 275.69 -252 274.26 -253.44 272.83 C-254.28 271.98 -255.12 271.13 -255.99 270.26 C-257.09 269.16 -257.09 269.16 -258.21 268.04 C-261.59 264.19 -262.31 261.21 -262.38 256.12 C-262.4 255.12 -262.43 254.11 -262.46 253.07 C-261.27 245.11 -253.78 239.5 -248.36 234.1 C-247.36 233.1 -246.36 232.1 -245.36 231.1 C-242.62 228.35 -239.88 225.61 -237.13 222.87 C-234.17 219.92 -231.22 216.95 -228.26 213.99 C-222.47 208.19 -216.67 202.4 -210.88 196.6 C-206.16 191.9 -201.46 187.19 -196.75 182.48 C-196.08 181.81 -195.41 181.14 -194.72 180.45 C-193.36 179.09 -192 177.73 -190.64 176.36 C-177.88 163.6 -165.11 150.84 -152.34 138.08 C-141.38 127.13 -130.43 116.18 -119.48 105.21 C-106.76 92.49 -94.04 79.77 -81.32 67.05 C-79.96 65.69 -78.61 64.34 -77.25 62.98 C-76.58 62.32 -75.92 61.65 -75.23 60.96 C-70.52 56.26 -65.82 51.55 -61.12 46.85 C-55.39 41.11 -49.66 35.38 -43.92 29.66 C-41 26.73 -38.07 23.81 -35.15 20.88 C-32.48 18.2 -29.8 15.53 -27.12 12.86 C-25.69 11.43 -24.26 10 -22.83 8.56 C-21.98 7.72 -21.13 6.88 -20.26 6.01 C-19.16 4.91 -19.16 4.91 -18.04 3.79 C-12.64 -0.95 -6.91 -0.74 0 0 Z " fill="#000000" transform="translate(382,0)"/>
</svg>
