<?xml version="1.0" encoding="UTF-8"?>
<svg xmlns="http://www.w3.org/2000/svg" width="480" height="270" viewBox="0 0 480 270">
<style>
.f{visibility:hidden}
/* 💡 [핵심 수정] 모든 infinite를 지우고, 애니메이션 길이를 설정한 뒤 딱 1번만 돌고 멈추게 함! */
/* 애니메이션이 끝난 후, 마지막 모습(f20)이 화면에 유지되도록 해주는 게 포인트야. */
.f0{animation:f0 0.84s step-end 1}
.f1{animation:f1 0.84s step-end 1}
.f2{animation:f2 0.84s step-end 1}
.f3{animation:f3 0.84s step-end 1}
.f4{animation:f4 0.84s step-end 1}
.f5{animation:f5 0.84s step-end 1}
.f6{animation:f6 0.84s step-end 1}
.f7{animation:f7 0.84s step-end 1}
.f8{animation:f8 0.84s step-end 1}
.f9{animation:f9 0.84s step-end 1}
.f10{animation:f10 0.84s step-end 1}
.f11{animation:f11 0.84s step-end 1}
.f12{animation:f12 0.84s step-end 1}
.f13{animation:f13 0.84s step-end 1}
.f14{animation:f14 0.84s step-end 1}
.f15{animation:f15 0.84s step-end 1}
.f16{animation:f16 0.84s step-end 1}
.f17{animation:f17 0.84s step-end 1}
.f18{animation:f18 0.84s step-end 1}
.f19{animation:f19 0.84s step-end 1}
/* 💡 [중요] 마지막 프레임인 f20에만 'forwards'를 줘서 끝나고 나면 계속 화면에 보이게 만듦! */
.f20{animation:f20 0.84s step-end 1 forwards}

@keyframes f0{0%{visibility:hidden}0.0000%{visibility:visible}4.7619%{visibility:hidden}100%{visibility:hidden}}
@keyframes f1{0%{visibility:hidden}4.7619%{visibility:visible}9.5238%{visibility:hidden}100%{visibility:hidden}}
@keyframes f2{0%{visibility:hidden}9.5238%{visibility:visible}14.2857%{visibility:hidden}100%{visibility:hidden}}
@keyframes f3{0%{visibility:hidden}14.2857%{visibility:visible}19.0476%{visibility:hidden}100%{visibility:hidden}}
@keyframes f4{0%{visibility:hidden}19.0476%{visibility:visible}23.8095%{visibility:hidden}100%{visibility:hidden}}
@keyframes f5{0%{visibility:hidden}23.8095%{visibility:visible}28.5714%{visibility:hidden}100%{visibility:hidden}}
@keyframes f6{0%{visibility:hidden}28.5714%{visibility:visible}33.3333%{visibility:hidden}100%{visibility:hidden}}
@keyframes f7{0%{visibility:hidden}33.3333%{visibility:visible}38.0952%{visibility:hidden}100%{visibility:hidden}}
@keyframes f8{0%{visibility:hidden}38.0952%{visibility:visible}42.8571%{visibility:hidden}100%{visibility:hidden}}
@keyframes f9{0%{visibility:hidden}42.8571%{visibility:visible}47.6190%{visibility:hidden}100%{visibility:hidden}}
@keyframes f10{0%{visibility:hidden}47.6190%{visibility:visible}52.3810%{visibility:hidden}100%{visibility:hidden}}
@keyframes f11{0%{visibility:hidden}52.3810%{visibility:visible}57.1429%{visibility:hidden}100%{visibility:hidden}}
@keyframes f12{0%{visibility:hidden}57.1429%{visibility:visible}61.9048%{visibility:hidden}100%{visibility:hidden}}
@keyframes f13{0%{visibility:hidden}61.9048%{visibility:visible}66.6667%{visibility:hidden}100%{visibility:hidden}}
@keyframes f14{0%{visibility:hidden}66.6667%{visibility:visible}71.4286%{visibility:hidden}100%{visibility:hidden}}
@keyframes f15{0%{visibility:hidden}71.4286%{visibility:visible}76.1905%{visibility:hidden}100%{visibility:hidden}}
@keyframes f16{0%{visibility:hidden}76.1905%{visibility:visible}80.9524%{visibility:hidden}100%{visibility:hidden}}
@keyframes f17{0%{visibility:hidden}80.9524%{visibility:visible}85.7143%{visibility:hidden}100%{visibility:hidden}}
@keyframes f18{0%{visibility:hidden}85.7143%{visibility:visible}90.4762%{visibility:hidden}100%{visibility:hidden}}
@keyframes f19{0%{visibility:hidden}90.4762%{visibility:visible}95.2381%{visibility:hidden}100%{visibility:hidden}}
/* 💡 [마지막 트릭] f20의 100% 지점을 hidden에서 visible로 바꿔서 계속 보이게 고정 */
@keyframes f20{0%{visibility:hidden}95.2381%{visibility:visible}100.0000%{visibility:visible}100%{visibility:visible}}
</style>
<g class="f f0">
<path d="M0 0 C11.32 8.76 17.7 19.02 21.03 32.89 C22.18 46.1 19.52 59.8 10.97 70.37 C1.45 81.19 -8.93 87.85 -23.52 89.08 C-38.16 89.7 -50.84 85.62 -61.94 75.8 C-71.52 65.9 -75.9 54 -75.91 40.39 C-75.92 39.67 -75.93 38.95 -75.95 38.21 C-75.98 24.68 -70.1 14 -60.74 4.54 C-44.32 -11.1 -18.69 -12.35 0 0 Z M-59.29 9.01 C-60.93 10.64 -60.93 10.64 -60.72 12.76 C-61.38 12.76 -62.04 12.76 -62.72 12.76 C-70.61 26.02 -73.43 37.16 -70.12 52.56 C-68.68 57.79 -66.61 62.18 -63.72 66.76 C-63.06 66.76 -62.4 66.76 -61.72 66.76 C-61.47 67.35 -61.21 67.94 -60.95 68.54 C-56.88 75.91 -48.59 80.24 -40.83 82.67 C-31.9 85.09 -24.6 85.54 -15.72 82.76 C-14.73 82.45 -14.73 82.45 -13.72 82.14 C-2.3 78.21 6.87 70.63 12.28 59.76 C17.04 49.08 18.33 37.45 14.38 26.26 C8.85 13.69 1.05 4.29 -11.72 -1.24 C-28.45 -7.26 -46.3 -2.39 -59.29 9.01 Z " fill="#3C3CFF" transform="translate(254.72265625,109.23828125)"/>
</g>
<g class="f f1">
<path d="M0 0 C2.44 2.14 4.71 4.35 6.94 6.69 C7.56 7.3 8.18 7.91 8.82 8.54 C21.27 21.61 28.41 40.99 28.16 58.98 C26.33 81.63 16.83 100.3 -0.16 115.18 C-7.6 121.11 -16.86 125.38 -26.06 127.69 C-26.76 127.89 -27.47 128.1 -28.19 128.3 C-45.39 132.59 -64.84 129.81 -80.34 121.4 C-86.88 117.29 -92.81 112.36 -98.06 106.69 C-98.6 106.12 -99.14 105.55 -99.7 104.96 C-114.91 88.39 -117.85 69.32 -117.06 47.69 C-115.96 30.79 -105.97 14.68 -93.93 3.27 C-67.11 -19.44 -28.22 -21.3 0 0 Z M-82.06 2.69 C-82.95 3.32 -83.84 3.94 -84.75 4.58 C-98.05 14.58 -108.17 30.37 -110.81 46.94 C-112.62 67.1 -108.09 84.89 -95.06 100.69 C-85.34 112.29 -70.39 121.58 -55.17 122.95 C-43.11 123.62 -31.19 123.85 -20.06 118.69 C-18.99 118.22 -17.92 117.74 -16.82 117.25 C-0.97 109.51 10.06 96.81 16.94 80.69 C22.56 64.14 22.7 46.31 15.22 30.32 C6.82 13.51 -6.01 0.69 -24.02 -5.65 C-43.44 -11.77 -65.43 -9.52 -82.06 2.69 Z " fill="#3C3CFF" transform="translate(272.05859375,92.30859375)"/>
</g>
<g class="f f2">
<path d="M0 0 C19.43 16.59 31.98 36.47 34.68 62.19 C36.14 82.42 30.8 103.47 18.41 119.69 C17.39 121.04 17.39 121.04 16.35 122.41 C2.08 140.49 -17.57 152.65 -40.59 155.69 C-41.58 155.83 -42.58 155.97 -43.61 156.1 C-52.53 157.06 -60.78 156.09 -69.59 154.69 C-70.49 154.57 -71.4 154.45 -72.33 154.32 C-91.74 151.23 -110.54 137.77 -122.17 122.33 C-136.27 102.76 -141.6 80.61 -138.59 56.69 C-138.47 55.71 -138.36 54.73 -138.24 53.72 C-137.14 46.31 -134.52 39.57 -131.59 32.69 C-131.28 31.96 -130.97 31.23 -130.65 30.48 C-127.82 24.33 -123.72 19.02 -119.59 13.69 C-118.69 12.53 -118.69 12.53 -117.78 11.34 C-105.18 -3.96 -84.62 -14.44 -65.16 -16.99 C-41.99 -19.04 -18.43 -15.17 0 0 Z M-114.52 19.1 C-123.17 29.97 -128.12 41.35 -130.9 54.88 C-131.07 55.71 -131.24 56.54 -131.42 57.4 C-134.73 74.8 -130.68 94.53 -121.59 109.69 C-118.71 113.8 -115.69 117.77 -112.59 121.69 C-111.99 122.51 -111.4 123.33 -110.79 124.17 C-103.67 132.33 -92.71 139.95 -82.59 143.69 C-82 143.92 -81.41 144.14 -80.8 144.37 C-59.51 152.14 -37.69 150.35 -17.18 141.17 C-14.54 139.8 -12.07 138.34 -9.59 136.69 C-8.93 136.28 -8.28 135.87 -7.61 135.44 C9.13 123.9 20.55 107.36 25.41 87.69 C29.15 64.32 25.56 41.61 11.95 22.05 C1.99 8.49 -11.59 -1.04 -27.59 -6.31 C-28.87 -6.73 -28.87 -6.73 -30.17 -7.17 C-61.44 -17.08 -93.58 -5.13 -114.52 19.1 Z " fill="#3C3CFF" transform="translate(279.5859375,80.3056640625)"/>
</g>
<g class="f f3">
<path d="M0 0 C7.12 6.46 13.06 12.95 18.27 21.06 C18.79 21.85 19.32 22.64 19.86 23.46 C33.07 44.23 36.67 70.47 31.88 94.41 C29.5 104.76 25.63 113.92 20.27 123.06 C19.69 124.09 19.1 125.12 18.5 126.18 C5.73 147.07 -15.44 161.65 -39.02 167.64 C-64.8 173.41 -90.87 169.85 -113.52 156.19 C-136.47 140.97 -151.1 119.57 -157.73 93.06 C-158.41 89.69 -158.67 86.49 -158.73 83.06 C-158.75 82.07 -158.75 82.07 -158.77 81.07 C-158.87 75.73 -158.83 70.4 -158.73 65.06 C-158.73 64.08 -158.72 63.1 -158.71 62.09 C-157.73 39.34 -143.44 17.48 -127.73 2.06 C-92.35 -29.36 -36.4 -30.96 0 0 Z M-124.73 10.06 C-125.22 10.53 -125.71 11 -126.22 11.49 C-133.71 18.82 -139.04 26.71 -143.73 36.06 C-144.14 36.85 -144.55 37.65 -144.97 38.46 C-154.19 58.69 -154.3 83.91 -146.8 104.62 C-142.59 115.08 -137.36 123.74 -129.73 132.06 C-129.09 132.89 -128.45 133.72 -127.79 134.57 C-113.61 151.68 -91.25 160.49 -69.73 163.06 C-44.09 164.68 -20.74 155.17 -1.26 139.01 C8.28 130.08 15.6 118.2 20.27 106.06 C20.64 105.15 21 104.25 21.38 103.31 C29.4 81.82 27.13 57.85 18.27 37.06 C17.97 36.35 17.68 35.64 17.37 34.91 C7.82 14.09 -10.24 -1.68 -31.48 -9.84 C-64.96 -21.14 -99.2 -14.67 -124.73 10.06 Z " fill="#3C3CFF" transform="translate(289.73046875,75.94140625)"/>
<path d="M0 0 C1.98 0 3.96 0 6 0 C6.33 1.65 6.66 3.3 7 5 C5.35 5.66 3.7 6.32 2 7 C0.44 5.75 0.44 5.75 -1 4 C-0.69 1.81 -0.69 1.81 0 0 Z " fill="#3C3CFF" transform="translate(216,75)"/>
</g>
<g class="f f4">
<path d="M0 0 C0.9 0.51 1.81 1.03 2.74 1.56 C19.48 11.73 31.75 26.98 41 44 C41.62 45.13 42.25 46.27 42.89 47.43 C53.22 68.75 54.25 93.3 49 116 C48.69 117.43 48.69 117.43 48.38 118.88 C42.28 144.27 25.32 167.71 3.31 181.75 C1.23 182.88 -0.87 183.96 -3 185 C-4.32 185.7 -5.65 186.4 -6.97 187.09 C-16.69 192.07 -26.29 195 -37 197 C-37.92 197.19 -38.84 197.38 -39.79 197.58 C-70.18 201.58 -97.63 193.36 -121.81 175 C-141.44 159.69 -157.4 135.02 -160.61 109.86 C-163.2 82.9 -159.53 59.49 -146 36 C-145.51 35.14 -145.02 34.28 -144.51 33.39 C-130.6 11.34 -107.25 -5.54 -82 -12 C-53.84 -18.03 -24.82 -15.28 0 0 Z M-121 16 C-121.69 16.55 -122.39 17.1 -123.1 17.67 C-140.78 31.93 -151.23 55.04 -155 77 C-155.41 81.78 -155.48 86.52 -155.44 91.31 C-155.43 92.58 -155.42 93.86 -155.42 95.17 C-155.25 104.72 -154.22 112.99 -151 122 C-150.6 123.16 -150.21 124.33 -149.8 125.53 C-140.49 151.25 -121.09 172.08 -96.44 183.81 C-71.33 194.46 -42.83 195.34 -17.44 185.19 C8.85 174.14 28.36 153.85 39.31 127.62 C49.17 102.64 47.33 74.22 36.79 49.77 C31.51 38.24 23.79 29 15 20 C14.31 19.25 13.62 18.5 12.91 17.72 C-1.22 2.66 -24.38 -7.33 -44.85 -8.11 C-74.11 -8.68 -98.64 -3.79 -121 16 Z " fill="#3C3CFF" transform="translate(282,58)"/>
<path d="M0 0 C13.88 -2.57 30.49 3.42 42.04 10.63 C44 12 44 12 46 14 C45.62 16.62 45.62 16.62 45 19 C43.41 19.73 43.41 19.73 41 20 C38.71 18.85 36.61 17.65 34.44 16.31 C24.69 10.69 14.1 8.84 3.03 7.53 C1.53 7.27 1.53 7.27 0 7 C-1.44 4.94 -1.44 4.94 -2 3 C-1.34 2.01 -0.68 1.02 0 0 Z " fill="#3C3CFF" transform="translate(225,74)"/>
</g>
<g class="f f5">
<path d="M0 0 C23.47 19.01 37.69 45.07 41.11 75.07 C44.14 107.04 33.81 134.46 14.11 159.26 C8.59 165.71 2.31 170.65 -4.66 175.46 C-5.55 176.08 -6.43 176.69 -7.35 177.33 C-14.72 182.25 -22.45 186.19 -30.66 189.46 C-31.31 189.72 -31.95 189.98 -32.61 190.25 C-54.97 198.86 -84.72 197.19 -106.66 188.46 C-108.45 187.81 -108.45 187.81 -110.27 187.16 C-116.67 184.72 -122.16 181.5 -127.66 177.46 C-128.64 176.77 -128.64 176.77 -129.64 176.06 C-154.2 158.31 -170.77 134.07 -175.93 104.03 C-180.22 74.79 -173.48 45.11 -155.99 21.17 C-141.6 2.59 -123.21 -11.09 -100.72 -17.91 C-98.82 -18.49 -96.95 -19.14 -95.09 -19.8 C-62.8 -29.82 -26.13 -20.38 0 0 Z M-118.66 -4.54 C-119.67 -3.96 -120.67 -3.38 -121.71 -2.79 C-141.11 9.01 -154.18 25.09 -163.66 45.46 C-164.06 46.27 -164.45 47.07 -164.85 47.91 C-175.2 71.08 -174.37 99.65 -165.67 123.13 C-161.62 133.07 -156.55 142.19 -149.66 150.46 C-149.08 151.17 -148.49 151.88 -147.89 152.61 C-146.19 154.61 -144.45 156.54 -142.66 158.46 C-142.05 159.13 -141.43 159.79 -140.8 160.48 C-123.75 178.32 -98.96 189.25 -74.44 190.06 C-47.55 190.66 -23.82 184.72 -2.66 167.46 C-1.85 166.79 -1.03 166.13 -0.19 165.45 C19.98 148.15 33.31 124.81 36.09 98.17 C37.84 71.37 32.82 43.47 15 22.31 C12.14 19.11 9.14 16.08 6.05 13.11 C4.45 11.56 2.89 9.99 1.34 8.4 C-17.72 -10.58 -44.26 -17.87 -70.5 -17.92 C-88.21 -17.71 -103.42 -13.45 -118.66 -4.54 Z " fill="#3C3CFF" transform="translate(294.663818359375,63.541748046875)"/>
<path d="M0 0 C17.63 0.25 33.71 10.78 45.64 22.99 C51 28.76 57.14 35.56 57.54 43.72 C57.48 44.6 57.43 45.47 57.38 46.38 C55.69 47.19 55.69 47.19 53.38 47.38 C49.79 44.5 47.77 41.37 45.57 37.39 C37.63 24.03 23.46 13.77 8.36 9.85 C5.02 9.1 1.68 8.49 -1.7 7.92 C-4.62 7.38 -4.62 7.38 -5.62 6.38 C-5.75 3.88 -5.75 3.88 -5.62 1.38 C-4 -0.25 -2.25 0.09 0 0 Z " fill="#3C3CFF" transform="translate(237.625,74.625)"/>
</g>
<g class="f f6">
<path d="M0 0 C1.49 0.8 1.49 0.8 3.01 1.61 C20.26 11.61 34.87 27.32 44 45 C44.34 45.65 44.69 46.31 45.04 46.98 C58.25 72.61 60.04 103.65 51.37 131 C42.39 157.67 23.67 180.46 -1 194 C-1.95 194.54 -2.91 195.09 -3.89 195.64 C-26.42 207.79 -56.65 211.08 -81.4 204.35 C-110.7 195.54 -135.59 177.9 -150.56 150.73 C-164.76 124.24 -168.62 93.16 -159.88 64.12 C-155.29 49.99 -149.04 37.78 -139.31 26.52 C-138.13 25.15 -136.99 23.74 -135.86 22.33 C-119.88 3.15 -94.31 -10.4 -69.5 -12.83 C-45.23 -14.46 -21.4 -12.44 0 0 Z M-139.1 31.38 C-147 41.11 -151.68 52.37 -156 64 C-156.32 64.84 -156.64 65.68 -156.97 66.55 C-165.1 90.24 -161.76 118.99 -151.15 141.25 C-149.51 144.55 -147.78 147.78 -146 151 C-145.46 151.99 -144.91 152.97 -144.35 153.99 C-137.49 165.54 -127.79 175.12 -117 183 C-116.21 183.6 -115.42 184.21 -114.61 184.83 C-108.18 189.6 -101.37 192.91 -94 196 C-92.66 196.57 -92.66 196.57 -91.29 197.16 C-65.55 207.36 -35.86 205.56 -10.69 194.69 C-0.71 190.19 7.73 184.63 15.71 177.11 C18 175 18 175 20.58 172.96 C35.91 160.57 45.17 140.69 50 122 C50.32 120.8 50.64 119.6 50.97 118.36 C54.66 102.58 53.86 86.65 50 71 C49.73 69.91 49.47 68.81 49.19 67.68 C41.97 41.54 23.93 18.11 0.53 4.49 C-9.83 -1.28 -20.34 -5.63 -32 -8 C-32.91 -8.2 -33.81 -8.41 -34.75 -8.62 C-75.37 -16.79 -112.63 1.41 -139.1 31.38 Z " fill="#3C3CFF" transform="translate(281,53)"/>
<path d="M0 0 C18 5.23 33.19 18.02 42.23 34.29 C52.36 53.06 54.64 72.53 49.9 93.23 C49.05 95.86 49.05 95.86 47.05 97.86 C44.42 97.48 44.42 97.48 42.05 96.86 C41 93.51 41.07 91.78 41.99 88.35 C46.52 71.07 42.81 52.66 34.17 37.36 C33.16 35.83 32.12 34.33 31.05 32.86 C30.45 32.01 29.86 31.16 29.24 30.28 C23.55 22.64 17.11 17.89 8.66 13.6 C7.51 13.01 7.51 13.01 6.33 12.41 C4.79 11.63 3.23 10.88 1.67 10.14 C-3.74 7.45 -3.74 7.45 -4.95 4.08 C-4.95 3.35 -4.95 2.61 -4.95 1.86 C-1.95 -0.14 -1.95 -0.14 0 0 Z " fill="#3C3CFF" transform="translate(250.953125,77.14453125)"/>
</g>
<g class="f f7">
<path d="M0 0 C4.84 0.27 7.5 2.76 10.75 6.06 C11.53 6.85 11.53 6.85 12.33 7.65 C26.23 22.33 32.59 42.37 32.35 62.3 C31.81 78.98 26.42 95.5 15 108 C14.53 108.52 14.06 109.04 13.57 109.57 C0.49 123.75 -14.88 134.2 -34.84 135.13 C-35.67 135.13 -36.51 135.13 -37.38 135.12 C-38.66 135.13 -38.66 135.13 -39.96 135.13 C-42 135 -42 135 -43 134 C-43.04 132.33 -43.04 130.67 -43 129 C-41.98 128.76 -40.97 128.52 -39.92 128.27 C-18.88 123.18 0.04 116.53 12.48 97.52 C22.39 81.13 26.11 63.17 22.12 44.23 C18.41 29.5 10.18 15.27 -2 6 C-1.12 1.12 -1.12 1.12 0 0 Z " fill="#3C3CFF" transform="translate(271,90)"/>
<path d="M0 0 C0.79 0.71 1.58 1.42 2.39 2.15 C3.35 2.98 4.31 3.81 5.3 4.67 C25.68 22.52 38.02 45.4 42.39 72.15 C42.52 72.96 42.65 73.77 42.79 74.61 C44.47 87.05 43.11 99.01 40.75 111.23 C40.46 112.78 40.18 114.32 39.92 115.87 C36.15 135.86 23.67 153.33 9.39 167.15 C8.86 167.67 8.34 168.19 7.8 168.73 C-12.65 189.09 -39.03 198.17 -67.43 198.46 C-97.81 198.33 -123.78 187.35 -146.14 166.68 C-169.33 142.91 -178.05 114.54 -177.77 82.09 C-177.35 60.51 -170.57 40.46 -157.61 23.15 C-157.02 22.35 -156.43 21.56 -155.82 20.74 C-139.9 0.14 -115.74 -17.01 -89.46 -21.19 C-87.1 -21.49 -84.73 -21.74 -82.36 -21.98 C-81.19 -22.11 -81.19 -22.11 -79.99 -22.24 C-51.92 -25.12 -21.79 -18.72 0 0 Z M-93.61 -17.85 C-94.54 -17.65 -95.46 -17.44 -96.41 -17.23 C-113.77 -13.1 -128.82 -4.12 -141.61 8.15 C-142.58 9.03 -143.55 9.92 -144.55 10.83 C-164.91 29.75 -175.44 57.15 -176.78 84.6 C-176.97 115.44 -166.11 143.15 -144.65 165.1 C-143.64 166.12 -142.63 167.13 -141.61 168.15 C-140.96 168.82 -140.31 169.5 -139.64 170.2 C-118.43 190.53 -88.72 196.93 -60.39 196.48 C-38.45 195.94 -16.42 187.31 0.39 173.15 C1.1 172.56 1.8 171.98 2.54 171.38 C4.53 169.68 6.46 167.93 8.39 166.15 C9 165.63 9.61 165.1 10.23 164.57 C27.16 149.17 38.96 123.97 40.39 101.15 C40.54 96.71 40.57 92.28 40.57 87.84 C40.59 86.69 40.6 85.54 40.61 84.36 C40.63 73.62 39.24 63.52 35.76 53.34 C35.5 52.57 35.24 51.81 34.98 51.03 C30.5 38.38 23.86 27.54 15.39 17.15 C14.75 16.32 14.11 15.49 13.45 14.64 C-3.24 -5.64 -30.8 -18.23 -56.61 -20.85 C-69.31 -21.5 -81.27 -21.06 -93.61 -17.85 Z " fill="#3C3CFF" transform="translate(294.61328125,61.8515625)"/>
<path d="M0 0 C4.03 1.39 7.13 3.07 10.06 6.19 C11.45 10.35 11.19 13.8 10 18 C8.25 21.06 8.25 21.06 5 23 C-0.27 23.9 -5.44 24.2 -10.37 21.89 C-13.64 19.37 -14.85 17.47 -16.12 13.5 C-15.98 9.4 -15.33 7.38 -13 4 C-8.68 0.27 -5.67 -0.78 0 0 Z " fill="#3C3CFF" transform="translate(191,172)"/>
</g>
<g class="f f8">
<path d="M0 0 C2.93 0.17 4.48 0.49 6.59 2.57 C18.54 21.31 22.77 41.97 18.62 63.86 C16.16 74.91 10.72 86.66 3 95 C2.57 95.48 2.13 95.96 1.68 96.45 C-11.04 110.35 -25.83 120.03 -45 122 C-68.15 123.01 -86.65 119.95 -105 105 C-105.95 104.3 -105.95 104.3 -106.91 103.58 C-119.61 93.72 -127.93 77.51 -131 62 C-131.16 58.14 -131.16 58.14 -131 55 C-130 54 -130 54 -126.94 53.94 C-125.97 53.96 -125 53.98 -124 54 C-123.79 54.99 -123.58 55.99 -123.37 57.01 C-119.05 76.53 -109.77 92.47 -93 104 C-76.72 113.74 -57.95 117.24 -39.35 112.66 C-21.26 107.49 -6.57 97.35 2.94 80.93 C12.02 64.26 14.55 44.71 9.15 26.29 C7 19.93 4.43 14.12 0.2 8.82 C-1.3 6.54 -1.77 4.71 -2 2 C-1.34 1.34 -0.68 0.68 0 0 Z " fill="#3C3CFF" transform="translate(283,103)"/>
<path d="M0 0 C6.16 1.99 11.72 3.97 16 9 C17.81 13.17 18.19 15.26 17.06 19.69 C14.6 23.64 12.55 25.81 8 27 C0.82 26.78 -6.63 23.28 -12.5 19.31 C-14.81 15.75 -15.2 12.21 -15 8 C-12.13 1.04 -7.33 -1.28 0 0 Z " fill="#3C3CFF" transform="translate(184,162)"/>
</g>
<g class="f f9">
<path d="M0 0 C0.69 1.81 0.69 1.81 1 4 C-0.65 6.75 -2.21 7.06 -5.3 7.92 C-6.64 8.2 -7.97 8.48 -9.31 8.75 C-26.56 12.75 -40.12 22.29 -50.51 36.61 C-60.88 53.29 -63.71 72.68 -59.94 91.88 C-54.66 111.03 -42.03 125.76 -25.11 135.7 C-9.07 143.52 10.08 144.7 27.04 139.26 C44.28 133.22 57.64 122.47 66.19 106.25 C67.15 104.18 68.09 102.1 69 100 C69.42 99.08 69.83 98.17 70.26 97.22 C75.5 83.52 75.39 64.99 69.78 51.45 C68.86 48.57 69.18 46.87 70 44 C70.99 43.67 71.98 43.34 73 43 C77.8 46.64 78.63 51.42 80 57 C80.21 57.77 80.42 58.55 80.63 59.35 C85.56 79.99 80 99.62 69.6 117.39 C68.19 119.42 66.68 121.18 65 123 C64.57 123.48 64.13 123.96 63.68 124.45 C50.96 138.35 36.17 148.03 17 150 C-6.15 151.01 -24.65 147.95 -43 133 C-43.95 132.3 -43.95 132.3 -44.91 131.58 C-59.33 120.38 -67.69 101.72 -70 84 C-71.32 62.24 -66.49 41.8 -51.86 25.08 C-43.27 15.61 -33.98 8.66 -22 4 C-20.51 3.41 -20.51 3.41 -18.99 2.81 C-12.49 0.42 -6.91 -0.55 0 0 Z " fill="#3C3CFF" transform="translate(221,75)"/>
<path d="M0 0 C3.19 1.73 6.01 3.85 8.88 6.06 C10.06 6.95 10.06 6.95 11.27 7.85 C16.19 11.55 21.06 15.32 25.82 19.23 C27.36 20.48 28.93 21.69 30.53 22.86 C31.75 23.77 31.75 23.77 33 24.69 C33.72 25.21 34.44 25.73 35.19 26.26 C37.86 28.83 38.94 31.4 39.08 35.1 C38.53 39.12 38.05 42.07 35 45 C29.74 46.75 25.62 46.72 20.62 44.5 C16.75 42.01 13.23 39.05 9.67 36.14 C7 34 4.28 31.99 1.5 30 C-12.95 19.58 -12.95 19.58 -16 15 C-16.27 12.88 -16.27 12.88 -16.25 10.56 C-16.26 9.8 -16.26 9.04 -16.27 8.25 C-15.97 5.73 -15.35 4.15 -14 2 C-9.33 -1.23 -5.36 -1.55 0 0 Z " fill="#3C3CFF" transform="translate(181,150)"/>
</g>
<g class="f f10">
<path d="M0 0 C0.99 0.99 0.99 0.99 2 2 C1.62 4.62 1.62 4.62 1 7 C-1.43 7.84 -2.94 8.01 -5.5 7.56 C-21.65 4.97 -39.63 8.76 -53.07 18.14 C-55.82 20.34 -58.42 22.61 -61 25 C-61.67 25.6 -62.34 26.2 -63.02 26.82 C-74.83 37.93 -81.53 53.73 -82.29 69.82 C-82.8 88.98 -78.49 105.52 -65.64 120.33 C-51.48 134.62 -35.56 142.15 -15.25 142.5 C2.73 142.43 19.74 135.83 32.79 123.31 C39.5 116.3 44.13 108.91 48 100 C48.42 99.08 48.83 98.17 49.26 97.22 C54.04 84.74 54.28 67.64 50 55 C49.81 52.12 49.81 52.12 50 50 C51 49 51 49 53.44 48.75 C54.28 48.83 55.13 48.91 56 49 C63.63 60.45 62.05 79.08 59.62 91.86 C57.16 102.91 51.72 114.66 44 123 C43.57 123.48 43.13 123.96 42.68 124.45 C29.96 138.35 15.17 148.03 -4 150 C-27.15 151.01 -45.65 147.95 -64 133 C-64.95 132.3 -64.95 132.3 -65.91 131.58 C-80.33 120.38 -88.69 101.72 -91 84 C-92.32 62.24 -87.49 41.8 -72.86 25.08 C-60.45 11.39 -43.36 0.53 -24.48 -0.91 C-7.76 -1.49 -7.76 -1.49 0 0 Z " fill="#3C3CFF" transform="translate(242,75)"/>
<path d="M0 0 C5.82 3.4 10.44 8.34 15.09 13.15 C21.5 19.37 28.8 24.74 36 30 C39.26 25.73 42.43 21.41 45.5 17 C46.67 15.33 47.83 13.67 49 12 C49.81 10.84 49.81 10.84 50.64 9.66 C51.15 8.94 51.66 8.23 52.19 7.5 C52.63 6.87 53.08 6.24 53.54 5.59 C55.25 3.73 56.64 2.89 59 2 C63.79 2.08 66.01 2.31 69.94 5.06 C72.51 8.73 73.62 11.58 73 16 C70.22 23.11 65.55 29.24 61.01 35.31 C59.09 37.88 57.26 40.49 55.44 43.12 C44.75 58.47 44.75 58.47 41.07 59.58 C35.52 60.12 32.37 58.96 28.01 55.42 C23.39 51.39 19.03 47.12 14.77 42.72 C11.76 39.8 8.45 37.24 5.19 34.6 C1.41 31.54 -2.3 28.41 -6 25.25 C-6.65 24.71 -7.29 24.16 -7.96 23.6 C-12.43 19.77 -15.66 16.64 -16.44 10.56 C-15.92 6.37 -14.64 4.26 -12 1 C-8.15 -0.93 -4.17 -0.81 0 0 Z " fill="#3C3CFF" transform="translate(180,146)"/>
</g>
<g class="f f11">
<path d="M0 0 C3.17 2.19 3.79 3.37 5 7 C5.63 15.48 1.31 20.07 -3.56 26.5 C-4.36 27.55 -4.36 27.55 -5.17 28.63 C-10.6 35.81 -16.06 42.97 -21.62 50.06 C-25.72 55.31 -29.7 60.62 -33.62 66 C-38.36 72.46 -43.14 78.88 -48 85.25 C-48.77 86.27 -48.77 86.27 -49.56 87.3 C-59.82 100.7 -59.82 100.7 -65.62 101.5 C-71.37 101.39 -74.18 97.93 -78 94 C-79.36 92.64 -80.71 91.29 -82.07 89.93 C-83.03 88.97 -83.99 88.01 -84.94 87.04 C-87.46 84.5 -90.01 82.06 -92.75 79.75 C-98.96 74.46 -104.59 68.5 -110.31 62.7 C-111.83 61.17 -113.36 59.67 -114.89 58.16 C-118.04 54.93 -118.39 52.63 -118.36 48.11 C-117.72 44.38 -115.66 42.6 -113 40 C-109.6 38.3 -106.62 38.07 -103 39 C-99.27 41.61 -96.17 44.75 -93 48 C-92.3 48.7 -91.59 49.41 -90.87 50.13 C-89.55 51.45 -88.24 52.77 -86.93 54.1 C-84.4 56.59 -81.72 58.89 -79.02 61.19 C-76.1 63.8 -73.43 66.64 -70.76 69.5 C-69.01 71.32 -69.01 71.32 -66 71 C-64.3 68.91 -62.8 66.86 -61.31 64.62 C-60.42 63.33 -59.52 62.03 -58.62 60.74 C-58.18 60.1 -57.73 59.46 -57.28 58.8 C-55.57 56.39 -53.74 54.1 -51.88 51.81 C-49.13 48.45 -46.53 45.02 -44 41.5 C-41.42 37.92 -38.78 34.43 -36 31 C-33.27 27.63 -30.66 24.21 -28.12 20.69 C-25.03 16.4 -21.89 12.15 -18.69 7.94 C-18.06 7.1 -18.06 7.1 -17.41 6.24 C-12.37 -0.36 -7.99 -0.99 0 0 Z " fill="#3C3CFF" transform="translate(282,104)"/>
<path d="M0 0 C10.64 -0.2 23.71 -0.32 32.79 6.12 C33.91 8.81 33.91 8.81 33.79 11.12 C33.46 11.45 33.13 11.78 32.79 12.12 C28.5 11.65 24.31 10.84 20.1 9.97 C2.21 6.32 -14.97 8.24 -31.21 17.12 C-35.14 19.86 -38.7 22.87 -42.21 26.12 C-42.88 26.72 -43.55 27.32 -44.23 27.94 C-56.04 39.05 -62.74 54.85 -63.5 70.94 C-64.01 90.1 -59.7 106.64 -46.86 121.45 C-32.69 135.74 -16.78 143.27 3.54 143.62 C21.52 143.55 38.53 136.95 51.58 124.43 C58.29 117.42 62.92 110.03 66.79 101.12 C67.21 100.2 67.62 99.29 68.05 98.34 C72.69 86.21 72.08 71.18 70.14 58.48 C69.97 56.82 69.97 56.82 69.79 55.12 C70.78 54.13 70.78 54.13 71.79 53.12 C73.81 53.23 73.81 53.23 75.79 54.12 C76.8 56.01 76.8 56.01 77.48 58.37 C77.82 59.52 77.82 59.52 78.18 60.7 C83.35 81.13 77.75 100.8 67.39 118.51 C65.98 120.55 64.47 122.3 62.79 124.12 C62.35 124.6 61.92 125.08 61.47 125.57 C48.75 139.47 33.96 149.15 14.79 151.12 C-8.36 152.14 -26.86 149.07 -45.21 134.12 C-46.16 133.42 -46.16 133.42 -47.12 132.7 C-61.54 121.5 -69.9 102.84 -72.21 85.12 C-73.54 63.36 -68.7 42.92 -54.07 26.2 C-41.68 12.52 -24.55 1.61 -5.67 0.21 C-3.78 0.14 -1.89 0.07 0 0 Z " fill="#3C3CFF" transform="translate(223.2109375,73.87890625)"/>
</g>
<g class="f f12">
<path d="M0 0 C2.87 1.79 4.49 2.98 6 6 C6.63 9.82 6.87 13.5 4.88 16.92 C4.39 17.53 3.9 18.13 3.39 18.76 C2.85 19.45 2.3 20.14 1.74 20.85 C1.17 21.56 0.59 22.27 0 23 C-1.1 24.43 -2.2 25.86 -3.3 27.3 C-4.45 28.78 -5.6 30.27 -6.75 31.75 C-7.36 32.54 -7.97 33.32 -8.6 34.14 C-12.85 39.59 -17.23 44.91 -21.69 50.19 C-24.87 54.06 -27.84 58.07 -30.8 62.11 C-32.43 64.26 -34.09 66.29 -35.86 68.32 C-39.26 72.25 -42.38 76.36 -45.5 80.5 C-49.06 85.23 -52.69 89.85 -56.58 94.32 C-59.32 97.56 -61.81 101.02 -64.3 104.46 C-67.52 108.77 -70.45 111.42 -75.75 112.62 C-83.36 111.16 -88.44 104.63 -93.41 99.09 C-97.81 94.26 -102.35 89.65 -107.08 85.14 C-108.27 83.99 -109.46 82.85 -110.65 81.7 C-112.47 79.95 -114.28 78.22 -116.12 76.5 C-117.94 74.8 -119.73 73.07 -121.52 71.33 C-122.35 70.57 -122.35 70.57 -123.19 69.8 C-126.28 66.74 -127.35 64.7 -127.42 60.29 C-127.25 56.48 -126.46 54.01 -124 51 C-119.87 48.25 -116.83 48.11 -112 49 C-110.25 50.11 -110.25 50.11 -108.54 51.7 C-107.86 52.33 -107.17 52.96 -106.46 53.62 C-101.08 58.83 -95.78 64.12 -90.5 69.44 C-89.28 70.66 -88.07 71.88 -86.85 73.1 C-83.9 76.06 -80.95 79.03 -78 82 C-74.11 80.7 -73.31 79 -70.94 75.69 C-67.77 71.32 -64.49 67.12 -61 63 C-56.89 58.13 -53.07 53.12 -49.29 48 C-46.92 44.9 -44.46 41.92 -41.94 38.94 C-38.75 35.16 -35.74 31.34 -32.88 27.31 C-29.84 23.05 -26.56 19.19 -23.02 15.34 C-20.01 11.85 -17.45 8.09 -14.86 4.29 C-10.89 -0.59 -5.96 -0.89 0 0 Z " fill="#3C3CFF" transform="translate(291,93)"/>
<path d="M0 0 C12.53 -0.24 29.39 0.42 39.7 8.65 C40.79 10.12 40.79 10.12 40.54 12.25 C39.79 14.12 39.79 14.12 38.79 15.12 C35.12 14.83 32.3 14.39 29.03 12.68 C25.46 10.96 22.03 10.11 18.16 9.43 C17.46 9.31 16.76 9.18 16.03 9.05 C-1.22 6.18 -19.75 9.12 -34.29 19.27 C-37.03 21.46 -39.64 23.73 -42.21 26.12 C-42.88 26.72 -43.55 27.32 -44.23 27.94 C-56.04 39.05 -62.74 54.85 -63.5 70.94 C-64.01 90.1 -59.7 106.64 -46.86 121.45 C-32.69 135.74 -16.78 143.27 3.54 143.62 C21.52 143.55 38.53 136.95 51.58 124.43 C58.29 117.42 62.92 110.03 66.79 101.12 C67.21 100.2 67.62 99.29 68.05 98.34 C72.55 86.59 72.24 71.78 70.18 59.48 C70.05 58.7 69.92 57.92 69.79 57.12 C71.23 55.25 71.23 55.25 72.79 54.12 C74.68 54.8 74.68 54.8 76.79 56.12 C82.85 69.4 80.97 87.89 75.96 101.35 C72.6 109.49 68.81 117.62 62.79 124.12 C62.35 124.6 61.92 125.08 61.47 125.57 C48.75 139.47 33.96 149.15 14.79 151.12 C-8.36 152.14 -26.86 149.07 -45.21 134.12 C-46.16 133.42 -46.16 133.42 -47.12 132.7 C-61.54 121.5 -69.9 102.84 -72.21 85.12 C-73.54 63.36 -68.7 42.92 -54.07 26.2 C-41.68 12.52 -24.55 1.61 -5.67 0.21 C-3.78 0.14 -1.89 0.07 0 0 Z " fill="#3C3CFF" transform="translate(223.2109375,73.87890625)"/>
</g>
<g class="f f13">
<path d="M0 0 C3.36 1.89 5.29 3.36 6.84 6.95 C7.94 12.01 6.72 15.14 4.06 19.5 C1.04 23.81 -2.28 27.72 -5.85 31.58 C-8.73 34.82 -11.31 38.25 -13.93 41.7 C-17.43 46.29 -21.04 50.78 -24.69 55.25 C-28.63 60.08 -32.53 64.93 -36.34 69.88 C-38.31 72.39 -40.34 74.85 -42.38 77.31 C-45.57 81.19 -48.63 85.15 -51.62 89.19 C-54.65 93.26 -57.78 97.1 -61.18 100.86 C-64.28 104.51 -67.02 108.45 -69.79 112.36 C-72.72 115.86 -75.34 117.67 -79.81 118.56 C-88.48 117.03 -95.46 108.06 -100.88 101.58 C-104.18 97.78 -107.73 94.32 -111.37 90.85 C-112.53 89.73 -113.7 88.61 -114.86 87.49 C-116.65 85.77 -118.45 84.05 -120.28 82.35 C-122.06 80.68 -123.81 78.99 -125.56 77.29 C-126.11 76.79 -126.65 76.29 -127.22 75.78 C-130.27 72.75 -131.36 70.52 -131.46 66.33 C-131.3 61.97 -129.84 59.34 -127 56 C-123.4 54.2 -119.91 54.33 -116 55 C-114.25 56.11 -114.25 56.11 -112.54 57.69 C-111.85 58.33 -111.17 58.96 -110.46 59.62 C-105.08 64.83 -99.78 70.12 -94.5 75.44 C-93.28 76.66 -92.07 77.88 -90.85 79.1 C-87.9 82.06 -84.95 85.03 -82 88 C-78.2 86.73 -77.55 85.27 -75.31 82 C-72.78 78.41 -70.23 75.03 -67.25 71.81 C-63.58 67.8 -60.35 63.55 -57.12 59.19 C-52.74 53.25 -48.19 47.55 -43.42 41.91 C-40.91 38.89 -38.5 35.81 -36.12 32.69 C-31.46 26.56 -26.67 20.54 -21.84 14.54 C-20.06 12.33 -18.31 10.11 -16.57 7.86 C-15.86 6.96 -15.16 6.06 -14.44 5.12 C-13.54 3.95 -13.54 3.95 -12.62 2.76 C-9.35 -0.79 -4.52 -0.73 0 0 Z " fill="#3C3CFF" transform="translate(295,87)"/>
<path d="M0 0 C14.56 -0.27 31.39 1.12 42.79 11.12 C42.46 12.77 42.13 14.42 41.79 16.12 C38.79 17.12 38.79 17.12 36.21 16.01 C35.19 15.47 34.16 14.93 33.1 14.37 C15.92 6.15 -2.97 6.4 -20.89 12.34 C-29.24 15.63 -35.65 20.04 -42.21 26.12 C-42.88 26.72 -43.55 27.32 -44.23 27.94 C-56.04 39.05 -62.74 54.85 -63.5 70.94 C-64.01 90.1 -59.7 106.64 -46.86 121.45 C-32.69 135.74 -16.78 143.27 3.54 143.62 C21.52 143.55 38.53 136.95 51.58 124.43 C58.29 117.42 62.92 110.03 66.79 101.12 C67.21 100.2 67.62 99.29 68.05 98.34 C72.31 87.21 72.78 72.02 70.18 60.42 C69.79 58.12 69.79 58.12 71.23 55.81 C71.74 55.25 72.26 54.69 72.79 54.12 C74.68 54.8 74.68 54.8 76.79 56.12 C82.85 69.4 80.97 87.89 75.96 101.35 C72.6 109.49 68.81 117.62 62.79 124.12 C62.35 124.6 61.92 125.08 61.47 125.57 C48.75 139.47 33.96 149.15 14.79 151.12 C-8.36 152.14 -26.86 149.07 -45.21 134.12 C-46.16 133.42 -46.16 133.42 -47.12 132.7 C-61.54 121.5 -69.9 102.84 -72.21 85.12 C-73.54 63.36 -68.7 42.92 -54.07 26.2 C-41.68 12.52 -24.55 1.61 -5.67 0.21 C-3.78 0.14 -1.89 0.07 0 0 Z " fill="#3C3CFF" transform="translate(223.2109375,73.87890625)"/>
</g>
<g class="f f14">
<path d="M0 0 C2.35 1.56 3.47 3.39 4.27 6.08 C5.09 14.29 0.67 19.24 -4.18 25.34 C-7.44 29.31 -10.75 33.25 -14.11 37.14 C-18.29 41.99 -22.09 47.1 -25.9 52.25 C-29.72 57.4 -33.75 62.31 -37.89 67.21 C-40.4 70.23 -42.81 73.32 -45.19 76.44 C-50.33 83.19 -55.63 89.82 -60.96 96.44 C-62.81 98.74 -64.65 101.06 -66.5 103.38 C-67.12 104.14 -67.73 104.91 -68.37 105.7 C-69.81 107.5 -71.24 109.3 -72.66 111.11 C-73.45 112.1 -74.25 113.1 -75.06 114.12 C-75.78 115.03 -76.5 115.94 -77.23 116.88 C-79.77 119.62 -81.63 120.88 -85.32 121.42 C-95.18 120.93 -100.8 112.84 -107 106 C-107.42 105.53 -107.84 105.06 -108.27 104.58 C-114.75 97.39 -121.73 90.67 -128.6 83.87 C-129.1 83.38 -129.6 82.88 -130.12 82.37 C-131.5 81 -132.88 79.64 -134.26 78.27 C-137.81 74.55 -137.65 71.58 -137.6 66.61 C-137.19 63.09 -135.92 61.45 -133.31 59.12 C-130.63 57.02 -129.15 57.13 -125.67 57.13 C-120.05 57.91 -117.08 61.47 -113.31 65.44 C-112.59 66.17 -111.87 66.9 -111.13 67.66 C-108.84 69.98 -106.58 72.34 -104.31 74.69 C-102.76 76.27 -101.21 77.86 -99.65 79.44 C-95.85 83.32 -92.08 87.21 -88.31 91.12 C-84.53 89.86 -83.87 88.43 -81.62 85.19 C-77.72 79.66 -73.58 74.38 -69.31 69.12 C-64.88 63.64 -60.52 58.11 -56.25 52.5 C-53.58 49 -50.89 45.57 -47.94 42.31 C-43.87 37.79 -40.34 32.87 -36.73 27.98 C-33.61 23.8 -30.4 19.78 -26.89 15.92 C-25.07 13.85 -23.42 11.69 -21.75 9.5 C-15.51 1.4 -10.84 -4.1 0 0 Z " fill="#3C3CFF" transform="translate(301.3125,83.875)"/>
<path d="M0 0 C-0.33 1.65 -0.66 3.3 -1 5 C-5.24 6.25 -7.24 5.77 -11.12 3.75 C-29.2 -5.02 -46.2 -4.03 -64.86 1.91 C-81.6 8.07 -93.94 20.41 -101.69 36.25 C-108.87 53.04 -109.8 72.91 -103 90 C-94.76 107.88 -82.57 120.98 -63.87 128 C-62.92 128.33 -61.98 128.66 -61 129 C-60.17 129.32 -59.33 129.64 -58.47 129.96 C-42.46 135.32 -24.82 132.23 -10 125 C-9.37 124.75 -8.74 124.5 -8.09 124.24 C5.98 118.29 17.02 103.59 22.76 89.95 C28.11 76.53 27.98 62.32 26.02 48.14 C26 46 26 46 28 43 C29.65 43.33 31.3 43.66 33 44 C38.89 63.63 36.52 83.85 27 102 C16.63 119.75 0.4 133.45 -19.62 139 C-36.11 142.63 -55.55 142.11 -71 135 C-71.96 134.59 -72.92 134.18 -73.9 133.75 C-92.41 124.8 -105.58 107.96 -112.74 89.05 C-119.56 69.21 -116.93 48.08 -108.06 29.38 C-97.55 10.05 -80.81 -3.01 -59.81 -9.25 C-40.92 -14.34 -15.79 -13.16 0 0 Z " fill="#3C3CFF" transform="translate(267,85)"/>
</g>
<g class="f f15">
<path d="M0 0 C3.07 1.71 5.4 3.81 7 7 C7.68 13.09 6.88 16.06 3.14 20.88 C2.6 21.54 2.06 22.2 1.5 22.88 C0.95 23.58 0.4 24.28 -0.17 25 C-1.76 27.01 -3.38 29.01 -5 31 C-5.71 31.9 -6.42 32.8 -7.16 33.73 C-9.08 36.17 -11.04 38.58 -13 41 C-15.02 43.52 -17.04 46.04 -19.06 48.56 C-19.59 49.22 -20.11 49.87 -20.65 50.54 C-23.83 54.52 -26.98 58.53 -30.09 62.56 C-33.22 66.56 -36.41 70.52 -39.59 74.48 C-42.32 77.89 -45.02 81.3 -47.69 84.75 C-50.17 87.97 -52.73 91.11 -55.31 94.25 C-58.67 98.33 -61.92 102.48 -65.12 106.69 C-75.07 119.71 -75.07 119.71 -80 123 C-85.69 123.66 -89.52 122.43 -94 119 C-97.34 116.01 -100.46 112.84 -103.34 109.4 C-107.1 104.94 -111.13 100.91 -115.37 96.92 C-117.13 95.24 -118.88 93.57 -120.64 91.89 C-121.84 90.75 -123.05 89.62 -124.28 88.5 C-134.43 79.14 -134.43 79.14 -135.84 73.83 C-135.92 69.43 -135.44 66.78 -133.25 62.94 C-129.53 59.73 -128.2 58.98 -123.12 59.06 C-116.02 60.22 -112.19 65.85 -107.79 71.03 C-106.12 72.87 -104.42 74.43 -102.5 76 C-99.17 78.74 -96.44 81.82 -93.63 85.1 C-91.52 87.56 -89.43 89.84 -87 92 C-86.01 92 -85.02 92 -84 92 C-81.7 89.73 -81.7 89.73 -79.38 86.75 C-78.94 86.21 -78.5 85.67 -78.05 85.12 C-74.3 80.47 -70.72 75.71 -67.2 70.89 C-65.56 68.74 -63.91 66.71 -62.14 64.67 C-58.17 60.1 -54.58 55.25 -50.94 50.4 C-48.23 46.81 -45.46 43.33 -42.46 39.96 C-39.07 36.14 -36.02 32.13 -33 28 C-29.39 23.12 -25.75 18.37 -21.66 13.88 C-18.89 10.74 -16.36 7.41 -13.8 4.1 C-9.81 -0.56 -5.79 -1 0 0 Z " fill="#3C3CFF" transform="translate(299,82)"/>
<path d="M0 0 C1.25 2.16 1.25 2.16 2 4 C1.34 4.99 0.68 5.98 0 7 C-4.58 7.75 -6.93 6.55 -10.75 4.15 C-26.9 -4.12 -44.58 -3.11 -61.36 2.03 C-79.27 8.38 -91.83 19.95 -100.02 36.86 C-107.61 53.52 -108.72 71.68 -102.61 89.02 C-95.61 107.08 -83.67 119.37 -66.25 127.64 C-51.24 133.91 -34.46 135.87 -19 130 C-17.49 129.44 -17.49 129.44 -15.95 128.86 C1.23 122.08 15.24 110.17 22.88 93.12 C28.87 78.97 29.09 64.29 27.02 49.17 C27 47 27 47 29 44 C31.38 44.25 31.38 44.25 34 45 C39.88 54.48 37.84 72.86 35.94 83.52 C32.55 96.06 26.5 107.21 18 117 C17.39 117.72 16.78 118.45 16.14 119.19 C8.13 127.92 -2.84 134.28 -14 138 C-14.79 138.28 -15.59 138.57 -16.4 138.86 C-34.18 145.1 -54.91 143.3 -71.87 135.25 C-75 133.6 -78.01 131.89 -81 130 C-82.51 129.06 -82.51 129.06 -84.04 128.1 C-87.06 125.96 -89.46 123.68 -92 121 C-92.79 120.22 -93.58 119.44 -94.39 118.63 C-103.57 109.12 -110.08 98 -113 85 C-113.16 84.36 -113.33 83.72 -113.5 83.06 C-118.46 62.9 -114.36 42.69 -104 25 C-102.16 22.17 -100.18 19.57 -98 17 C-97.18 15.99 -97.18 15.99 -96.35 14.95 C-74.61 -11.22 -28.47 -21.25 0 0 Z " fill="#3C3CFF" transform="translate(266,84)"/>
</g>
<g class="f f16">
<path d="M0 0 C3.07 1.7 5.41 3.81 7 7 C7.86 13.56 6.42 16.68 2.48 21.9 C1.85 22.7 1.21 23.49 0.56 24.31 C-0.4 25.57 -0.4 25.57 -1.38 26.85 C-3.23 29.25 -5.11 31.63 -7 34 C-7.46 34.58 -7.92 35.17 -8.4 35.77 C-10.89 38.89 -13.43 41.95 -16 45 C-21.41 51.49 -26.56 58.03 -31.37 64.98 C-32.18 65.98 -32.18 65.98 -33 67 C-33.66 67 -34.32 67 -35 67 C-35.26 67.56 -35.52 68.12 -35.79 68.7 C-38.17 73.22 -41.45 77.17 -44.5 81.25 C-45.19 82.19 -45.88 83.12 -46.59 84.09 C-47.58 85.41 -47.58 85.41 -48.59 86.77 C-49.2 87.58 -49.8 88.39 -50.43 89.23 C-51.21 90.1 -51.21 90.1 -52 91 C-52.66 91 -53.32 91 -54 91 C-54.23 91.53 -54.46 92.06 -54.7 92.61 C-56.41 95.76 -58.6 98.5 -60.81 101.31 C-63.64 104.92 -66.42 108.53 -69 112.31 C-69.66 113.2 -70.32 114.09 -71 115 C-71.66 115 -72.32 115 -73 115 C-73.23 115.58 -73.45 116.16 -73.69 116.75 C-75.42 119.72 -77.08 121.18 -80 123 C-84.79 123.71 -88.08 123 -92.18 120.39 C-96.34 117.21 -99.96 113.41 -103.34 109.42 C-109.29 102.43 -115.85 96.07 -122.38 89.62 C-124.74 87.29 -127.1 84.95 -129.46 82.6 C-130 82.07 -130.54 81.53 -131.1 80.99 C-135.91 76.21 -135.91 76.21 -136.25 71.69 C-135.98 67.75 -135.33 66.11 -133 63 C-132.41 62.13 -132.41 62.13 -131.81 61.25 C-128.86 59.21 -125.51 58.72 -122 59 C-116.46 61.23 -112.94 64.66 -108.85 68.86 C-108.19 69.52 -107.54 70.18 -106.86 70.86 C-104.77 72.96 -102.7 75.07 -100.62 77.19 C-99.21 78.62 -97.79 80.05 -96.37 81.48 C-92.91 84.98 -89.45 88.49 -86 92 C-82.01 90.67 -80.44 88.05 -78 84.81 C-77.01 83.53 -76.02 82.24 -75.03 80.95 C-74.52 80.29 -74.02 79.63 -73.5 78.96 C-71.21 75.97 -68.89 73.02 -66.56 70.06 C-66.11 69.49 -65.66 68.92 -65.2 68.33 C-58.41 59.69 -51.57 51.09 -44.56 42.62 C-40.8 38.05 -37.2 33.35 -33.62 28.62 C-27.99 21.19 -22.08 14.07 -16 7 C-15.1 5.9 -14.21 4.8 -13.31 3.7 C-9.51 -0.74 -5.62 -0.87 0 0 Z " fill="#3C3CFF" transform="translate(299,82)"/>
<path d="M0 0 C0.8 0.33 1.6 0.66 2.42 1 C7.74 3.41 7.74 3.41 8.84 5.94 C9 8 9 8 7 11 C2.56 11.53 -0.32 10.68 -4.25 8.69 C-19.5 0.99 -37.83 0.37 -54.05 5.6 C-71.88 12.06 -84.85 23.81 -93.04 40.87 C-100.61 57.67 -101.67 75.71 -95.55 93.16 C-93.35 98.86 -90.47 103.98 -87 109 C-86.39 109.88 -85.79 110.77 -85.16 111.68 C-80.35 118.16 -74.76 122.65 -68 127 C-67.26 127.48 -66.52 127.97 -65.75 128.46 C-55.35 134.75 -44.2 136.74 -32.19 136.62 C-30.96 136.62 -29.74 136.61 -28.48 136.6 C-18.55 136.37 -10.74 134.63 -2 130 C-1.07 129.53 -0.13 129.06 0.83 128.58 C15.35 120.63 26.42 107.5 32 92 C35.76 78.81 35.67 65.82 34.02 52.29 C34.02 51.54 34.01 50.78 34 50 C34.99 49.01 34.99 49.01 36 48 C38.5 48.12 38.5 48.12 41 49 C46.85 58.54 44.84 76.81 42.94 87.52 C38.32 104.59 28.31 121.26 13.62 131.5 C11 133 11 133 9 133 C9 133.66 9 134.32 9 135 C-8.63 144.53 -28.63 149.57 -48.56 144.75 C-50.38 144.2 -52.2 143.62 -54 143 C-54.91 142.72 -55.81 142.44 -56.75 142.16 C-68.59 138.26 -78.21 131.76 -87 123 C-88.05 121.99 -88.05 121.99 -89.12 120.95 C-97.5 112.28 -103.36 100.75 -106 89 C-106.25 88.04 -106.25 88.04 -106.5 87.06 C-111.26 67.72 -108.04 47.59 -98.18 30.47 C-86.5 11.35 -69.06 0.13 -47.52 -5.41 C-31.38 -9.21 -15.12 -6.39 0 0 Z " fill="#3C3CFF" transform="translate(259,80)"/>
</g>
<g class="f f17">
<path d="M0 0 C3.89 1.84 5.76 4.48 7.56 8.38 C8.09 12.74 7.34 15.39 5 19 C3.47 20.88 1.86 22.66 0.22 24.44 C-2.69 27.8 -5.3 31.36 -7.94 34.94 C-11.79 40.15 -15.76 45.1 -20.15 49.88 C-22.21 52.24 -24 54.7 -25.81 57.25 C-28.77 61.41 -31.92 65.33 -35.25 69.19 C-40.04 74.74 -44.44 80.52 -48.8 86.41 C-51.74 90.36 -54.77 94.11 -58.1 97.75 C-60.32 100.37 -62.32 103.12 -64.35 105.9 C-76.36 122.3 -76.36 122.3 -83.56 123.69 C-92.25 121.95 -97.79 115.97 -103.34 109.42 C-109.29 102.43 -115.85 96.07 -122.38 89.62 C-124.74 87.29 -127.1 84.95 -129.46 82.6 C-130 82.07 -130.54 81.53 -131.1 80.99 C-134.5 77.61 -135.86 76.14 -136.44 71.31 C-136.37 66.92 -134.87 64.47 -131.84 61.36 C-128.77 59.1 -125.76 58.43 -122 59 C-116.46 61.25 -113 64.64 -108.92 68.86 C-108.27 69.52 -107.62 70.18 -106.94 70.86 C-104.87 72.96 -102.81 75.07 -100.75 77.19 C-98.67 79.31 -96.6 81.43 -94.51 83.55 C-93.22 84.86 -91.93 86.18 -90.65 87.5 C-89.14 89.04 -87.57 90.53 -86 92 C-85.34 92 -84.68 92 -84 92 C-82.6 90.5 -81.28 88.92 -80 87.31 C-79.19 86.3 -78.38 85.29 -77.55 84.25 C-74.67 80.59 -71.84 76.89 -69.01 73.19 C-65.06 68.02 -60.95 62.99 -56.83 57.95 C-53.4 53.75 -50.04 49.5 -46.75 45.19 C-43.03 40.3 -39.18 35.54 -35.27 30.8 C-32.83 27.79 -30.47 24.71 -28.12 21.62 C-24.54 16.93 -20.86 12.33 -17.06 7.81 C-16.37 6.98 -16.37 6.98 -15.67 6.14 C-10.87 0.48 -7.29 -1.19 0 0 Z " fill="#3C3CFF" transform="translate(299,82)"/>
<path d="M0 0 C0.8 0.32 1.6 0.64 2.42 0.97 C4.62 1.94 4.62 1.94 8 4 C9 6.75 9 6.75 9 9 C7.13 10.73 7.13 10.73 4 12 C0.45 11.22 -2.76 9.74 -6.06 8.25 C-7.84 7.48 -9.63 6.72 -11.41 5.95 C-12.2 5.6 -12.98 5.26 -13.79 4.9 C-26.89 -0.41 -45.2 1.92 -58.04 7.13 C-76.39 15.29 -88.45 28.46 -95.67 47.14 C-101.89 64.84 -100.39 83.65 -92.32 100.51 C-90.67 103.44 -88.9 106.22 -87 109 C-86.56 109.71 -86.13 110.42 -85.68 111.16 C-77.91 122.91 -62.08 132.33 -48.62 135.55 C-32.79 138.29 -16.28 137.58 -2 130 C-1.07 129.53 -0.13 129.06 0.83 128.58 C10.31 123.39 17.96 115.9 24 107 C24.68 106.11 25.36 105.23 26.06 104.31 C35.62 87.98 36.04 70.89 34.02 52.55 C34.02 51.71 34.01 50.87 34 50 C34.99 49.01 34.99 49.01 36 48 C38.5 48.12 38.5 48.12 41 49 C46.91 58.63 44.78 76.86 42.89 87.64 C38.13 105.66 26.84 122.89 11 133 C10.34 133 9.68 133 9 133 C9 133.66 9 134.32 9 135 C-10.06 145.6 -30.81 149.78 -52.24 143.98 C-69.16 138.79 -83.52 129.28 -94 115 C-94.57 114.25 -95.13 113.49 -95.71 112.72 C-107.72 95.86 -110.47 74.51 -107.38 54.4 C-103.48 33.73 -90.61 16.79 -73.62 4.75 C-51.2 -9.48 -24.09 -10.14 0 0 Z " fill="#3C3CFF" transform="translate(259,80)"/>
</g>
<g class="f f18">
<path d="M0 0 C3.22 0.05 5.1 0.12 7.77 1.95 C10.57 5.09 12.86 8.24 12.75 12.56 C11.16 17.25 9.14 20.95 5.75 24.56 C5.09 24.56 4.43 24.56 3.75 24.56 C3.54 25.23 3.33 25.9 3.12 26.59 C1.26 30.62 -1.37 33.72 -4.19 37.12 C-5.26 38.44 -6.33 39.75 -7.4 41.07 C-7.9 41.67 -8.4 42.28 -8.92 42.91 C-9.99 44.24 -11.01 45.63 -12 47.03 C-12.42 47.53 -12.83 48.04 -13.25 48.56 C-13.91 48.56 -14.57 48.56 -15.25 48.56 C-15.5 49.12 -15.76 49.67 -16.02 50.24 C-18.55 55.02 -22.02 59.24 -25.25 63.56 C-26.25 64.91 -26.25 64.91 -27.26 66.28 C-27.88 67.1 -28.49 67.91 -29.12 68.75 C-29.68 69.49 -30.23 70.22 -30.8 70.98 C-31.28 71.5 -31.76 72.02 -32.25 72.56 C-32.91 72.56 -33.57 72.56 -34.25 72.56 C-34.53 73.15 -34.8 73.73 -35.09 74.34 C-36.19 76.45 -37.4 78.26 -38.82 80.17 C-39.32 80.84 -39.82 81.51 -40.34 82.2 C-40.86 82.89 -41.39 83.59 -41.94 84.31 C-42.76 85.4 -42.76 85.4 -43.59 86.51 C-46.69 90.6 -49.88 94.52 -53.35 98.31 C-55.57 100.94 -57.57 103.68 -59.6 106.46 C-71.61 122.86 -71.61 122.86 -78.81 124.25 C-87.5 122.51 -93.04 116.53 -98.59 109.98 C-104.54 103 -111.1 96.63 -117.62 90.19 C-119.99 87.85 -122.35 85.51 -124.71 83.16 C-125.25 82.63 -125.79 82.1 -126.35 81.55 C-129.75 78.17 -131.11 76.71 -131.69 71.88 C-131.62 67.48 -130.12 65.03 -127.09 61.92 C-124.02 59.66 -121.01 59 -117.25 59.56 C-111.71 61.81 -108.25 65.2 -104.17 69.42 C-103.52 70.08 -102.87 70.74 -102.19 71.42 C-100.12 73.52 -98.06 75.64 -96 77.75 C-93.92 79.87 -91.85 81.99 -89.76 84.11 C-88.47 85.42 -87.18 86.74 -85.9 88.07 C-84.39 89.6 -82.82 91.09 -81.25 92.56 C-80.59 92.56 -79.93 92.56 -79.25 92.56 C-77.52 90.56 -75.91 88.54 -74.31 86.44 C-73.32 85.15 -72.32 83.85 -71.32 82.56 C-70.81 81.9 -70.3 81.23 -69.77 80.55 C-67.43 77.5 -65.06 74.46 -62.69 71.44 C-62.23 70.86 -61.78 70.28 -61.31 69.68 C-58.33 65.89 -55.29 62.18 -52.19 58.5 C-48.3 53.88 -44.59 49.15 -40.93 44.35 C-37.56 39.93 -34.06 35.65 -30.52 31.37 C-28.08 28.35 -25.72 25.28 -23.38 22.19 C-6.7 0.28 -6.7 0.28 0 0 Z " fill="#3C3CFF" transform="translate(294.25,81.4375)"/>
<path d="M0 0 C0.96 0.41 0.96 0.41 1.93 0.84 C4.87 2.25 6.24 3.04 7.4 6.16 C7.44 8.56 7.44 8.56 6.44 10.56 C2.88 11.99 1.34 11.53 -2.3 10.2 C-3.69 9.56 -5.07 8.91 -6.44 8.25 C-21.94 0.94 -39.3 -0.08 -55.76 5.23 C-72.83 11.39 -85.64 23.49 -94.25 39.25 C-102.64 57.14 -102.99 76.12 -96.35 94.58 C-90.33 109.83 -77.49 123.7 -62.56 130.56 C-61.12 131.26 -61.12 131.26 -59.64 131.98 C-45.09 137.96 -25.16 138.71 -10.44 132.94 C-8.07 131.91 -5.85 130.77 -3.56 129.56 C-2.63 129.09 -1.7 128.63 -0.73 128.14 C8.75 122.95 16.4 115.46 22.44 106.56 C23.12 105.68 23.8 104.79 24.5 103.88 C34.05 87.54 34.47 70.45 32.46 52.11 C32.45 51.27 32.45 50.43 32.44 49.56 C33.43 48.57 33.43 48.57 34.44 47.56 C36.94 47.75 36.94 47.75 39.44 48.56 C45.5 57.66 43.6 74.75 42.06 85.13 C39.07 98.82 31.66 111.19 22.44 121.56 C21.87 122.2 21.31 122.83 20.73 123.49 C7.4 137.59 -11.08 145.38 -30.31 146.04 C-52.1 146.25 -71.34 139.43 -87.56 124.56 C-91.27 120.5 -94.44 116.08 -97.56 111.56 C-98.08 110.85 -98.59 110.14 -99.12 109.41 C-109.89 93.59 -111.71 73.02 -109.06 54.48 C-105.5 36.12 -94.71 18.55 -79.36 7.68 C-77.18 6.33 -75.01 5.33 -72.56 4.56 C-72.56 3.9 -72.56 3.24 -72.56 2.56 C-48.44 -8.46 -24.66 -11.01 0 0 Z " fill="#3C3CFF" transform="translate(260.5625,80.4375)"/>
</g>
<g class="f f19">
<path d="M0 0 C3.91 0.79 5.49 2.47 7.71 5.69 C9.07 8.16 9.81 9.69 9.74 12.55 C7.91 17.49 5.88 20.94 2.36 24.93 C-2.55 30.6 -7.11 36.5 -11.62 42.5 C-14.08 45.76 -16.57 48.95 -19.25 52.04 C-23.18 56.55 -26.73 61.36 -30.32 66.15 C-33.6 70.48 -37.03 74.61 -40.64 78.68 C-42.91 81.29 -44.96 84.01 -47.01 86.8 C-47.75 87.8 -48.49 88.79 -49.25 89.82 C-50.49 91.5 -51.71 93.19 -52.9 94.91 C-53.35 95.45 -53.8 95.99 -54.26 96.55 C-54.92 96.55 -55.58 96.55 -56.26 96.55 C-56.54 97.13 -56.81 97.72 -57.1 98.32 C-59.02 102 -61.58 105.18 -64.07 108.49 C-64.86 109.54 -64.86 109.54 -65.65 110.62 C-69.37 115.58 -73.06 120.08 -78.26 123.55 C-82.71 123.99 -85.18 124.08 -89.2 122.11 C-94.68 117.53 -99.61 112.49 -104.24 107.06 C-109.55 100.95 -115.39 95.36 -121.14 89.68 C-123.41 87.43 -125.68 85.18 -127.94 82.93 C-128.46 82.42 -128.98 81.91 -129.52 81.38 C-133 77.93 -134.21 76.68 -134.45 71.68 C-134.33 66.07 -134.33 66.07 -132.26 63.55 C-128.26 60.59 -126.32 59.6 -121.32 59.36 C-111.13 61.39 -101.72 75.05 -94.65 82.25 C-92.99 83.95 -91.32 85.64 -89.64 87.33 C-89.13 87.85 -88.62 88.38 -88.09 88.92 C-86.85 90.17 -85.56 91.36 -84.26 92.55 C-83.6 92.55 -82.94 92.55 -82.26 92.55 C-80.53 90.55 -78.92 88.53 -77.32 86.43 C-76.32 85.13 -75.32 83.83 -74.32 82.54 C-73.81 81.87 -73.3 81.2 -72.77 80.52 C-70.5 77.56 -68.19 74.61 -65.89 71.68 C-65.44 71.11 -65 70.54 -64.54 69.96 C-60.36 64.64 -56.09 59.4 -51.82 54.16 C-48.53 50.13 -45.3 46.07 -42.13 41.95 C-38.03 36.69 -33.84 31.5 -29.67 26.3 C-27.8 23.97 -25.94 21.64 -24.07 19.3 C-21.21 15.73 -18.34 12.17 -15.45 8.61 C-14.36 7.27 -14.36 7.27 -13.24 5.9 C-12.59 5.12 -11.94 4.35 -11.26 3.55 C-10.79 2.96 -10.32 2.38 -9.83 1.77 C-6.88 -0.52 -3.59 -0.09 0 0 Z " fill="#3C3CFF" transform="translate(297.26171875,81.44921875)"/>
<path d="M0 0 C0.96 0.41 0.96 0.41 1.93 0.84 C4.88 2.26 6.25 3.05 7.41 6.17 C7.44 8.56 7.44 8.56 6.31 10.44 C4.44 11.56 4.44 11.56 2.25 11.32 C-1.16 10.4 -4.22 9.07 -7.44 7.62 C-23.27 0.55 -41.36 0.04 -57.76 5.95 C-73.9 12.47 -86.68 24.18 -94.25 39.81 C-102.29 58.87 -103.19 77.23 -95.56 96.56 C-88.99 110.92 -77 123.93 -62.56 130.56 C-61.12 131.26 -61.12 131.26 -59.64 131.98 C-45.09 137.96 -25.16 138.71 -10.44 132.94 C-8.07 131.91 -5.85 130.77 -3.56 129.56 C-2.63 129.09 -1.7 128.63 -0.73 128.14 C8.74 122.96 16.43 115.47 22.44 106.56 C23.14 105.59 23.84 104.62 24.56 103.62 C33.16 89.58 35.66 72.52 32.25 56.44 C32.03 55.59 31.81 54.74 31.58 53.87 C31.44 51.56 31.44 51.56 32.89 49.26 C33.4 48.7 33.91 48.14 34.44 47.56 C36.81 47.88 36.81 47.88 39.44 48.56 C45.53 57.7 43.58 74.84 42.04 85.26 C37.83 105.19 24.95 122.6 8.15 133.87 C-10.35 145.42 -31.09 148.79 -52.44 144.06 C-71.17 139.33 -86.99 127.49 -97.56 111.56 C-98.05 110.88 -98.54 110.19 -99.05 109.48 C-109.86 93.63 -111.72 73.08 -109.06 54.48 C-105.5 36.12 -94.71 18.55 -79.36 7.68 C-77.18 6.33 -75.01 5.33 -72.56 4.56 C-72.56 3.9 -72.56 3.24 -72.56 2.56 C-48.44 -8.46 -24.66 -11.01 0 0 Z " fill="#3C3CFF" transform="translate(260.5625,80.4375)"/>
</g>
<g class="f f20">
<path d="M0 0 C3.74 0.98 5.17 2.34 7.23 5.59 C8.26 9.18 8.17 11.97 7.23 15.59 C5.09 19.34 2.48 22.58 -0.31 25.87 C-2.43 28.37 -4.48 30.92 -6.54 33.47 C-8.21 35.53 -9.89 37.59 -11.57 39.64 C-14.39 43.1 -17.13 46.6 -19.83 50.15 C-26.77 59.24 -33.92 68.15 -41.21 76.96 C-45.62 82.32 -49.82 87.84 -53.99 93.4 C-57.21 97.66 -60.6 101.7 -64.15 105.7 C-67.21 109.26 -69.84 113.12 -72.56 116.95 C-75.49 120.44 -78.11 122.25 -82.58 123.15 C-89.71 121.89 -95.01 115.57 -99.64 110.34 C-104.39 105.06 -109.33 100.04 -114.46 95.14 C-116.25 93.41 -118.05 91.67 -119.84 89.94 C-121.04 88.79 -122.24 87.65 -123.46 86.52 C-133.21 77.42 -133.21 77.42 -134.59 72.92 C-134.71 67.83 -133.1 64.51 -129.77 60.59 C-126.17 58.79 -122.68 58.92 -118.77 59.59 C-117.02 60.69 -117.02 60.69 -115.31 62.28 C-114.62 62.91 -113.93 63.55 -113.23 64.2 C-107.85 69.42 -102.55 74.71 -97.27 80.02 C-96.05 81.24 -94.84 82.47 -93.62 83.69 C-90.67 86.65 -87.72 89.62 -84.77 92.59 C-80.88 91.29 -80.08 89.59 -77.71 86.27 C-74.55 81.93 -71.3 77.75 -67.83 73.65 C-63.98 69.08 -60.29 64.41 -56.66 59.66 C-50.83 52.01 -44.76 44.54 -38.72 37.05 C-35.6 33.17 -32.52 29.27 -29.48 25.32 C-8.97 -1.32 -8.97 -1.32 0 0 Z " fill="#3C3CFF" transform="translate(297.76953125,82.4140625)"/>
<path d="M0 0 C14.58 -0.27 30.49 1.55 42.79 10.12 C43.73 12.68 43.73 12.68 43.79 15.12 C43.13 15.78 42.47 16.44 41.79 17.12 C37.72 17.02 34.93 15.69 31.48 13.75 C15.59 5.47 -3.64 7.05 -20.21 12.12 C-37 17.95 -50.3 31.74 -58.02 47.5 C-65.23 64.8 -65.92 85.2 -58.77 102.64 C-51.32 118.61 -38.6 132.56 -21.95 139.2 C-2.67 145.7 15.86 144.66 34.38 136.55 C49.79 128.82 60 116.76 66.79 101.12 C67.21 100.2 67.62 99.29 68.05 98.34 C72.31 87.21 72.78 72.02 70.18 60.42 C69.79 58.12 69.79 58.12 71.23 55.81 C71.74 55.25 72.26 54.69 72.79 54.12 C74.68 54.8 74.68 54.8 76.79 56.12 C82.85 69.4 80.97 87.89 75.96 101.35 C72.6 109.49 68.81 117.62 62.79 124.12 C62.35 124.6 61.92 125.08 61.47 125.57 C48.75 139.47 33.96 149.15 14.79 151.12 C-8.36 152.14 -26.86 149.07 -45.21 134.12 C-46.16 133.42 -46.16 133.42 -47.12 132.7 C-61.54 121.5 -69.9 102.84 -72.21 85.12 C-73.54 63.36 -68.7 42.92 -54.07 26.2 C-41.68 12.52 -24.55 1.61 -5.67 0.21 C-3.78 0.14 -1.89 0.07 0 0 Z " fill="#3C3CFF" transform="translate(223.2109375,73.87890625)"/>
</g>
</svg>
