<?xml version="1.0" encoding="UTF-8"?>
<!-- Generator: https://ezgif.com - animated SVG -->
<svg xmlns="http://www.w3.org/2000/svg" width="480" height="480" viewBox="0 0 480 480">
<style>
.f{visibility:hidden}
.f0{animation:f0 1.65s step-end 1}
.f1{animation:f1 1.65s step-end 1}
.f2{animation:f2 1.65s step-end 1}
.f3{animation:f3 1.65s step-end 1}
.f4{animation:f4 1.65s step-end 1}
.f5{animation:f5 1.65s step-end 1}
.f6{animation:f6 1.65s step-end 1}
.f7{animation:f7 1.65s step-end 1}
.f8{animation:f8 1.65s step-end 1}
.f9{animation:f9 1.65s step-end 1}
.f10{animation:f10 1.65s step-end 1}
.f11{animation:f11 1.65s step-end 1}
.f12{animation:f12 1.65s step-end 1}
.f13{animation:f13 1.65s step-end 1}
.f14{animation:f14 1.65s step-end 1}
.f15{animation:f15 1.65s step-end 1}
.f16{animation:f16 1.65s step-end 1}
.f17{animation:f17 1.65s step-end 1}
.f18{animation:f18 1.65s step-end 1}
.f19{animation:f19 1.65s step-end 1}
.f20{animation:f20 1.65s step-end 1}
.f21{animation:f21 1.65s step-end 1}
.f22{animation:f22 1.65s step-end 1}
.f23{animation:f23 1.65s step-end 1}
.f24{animation:f24 1.65s step-end 1}
.f25{animation:f25 1.65s step-end 1}
.f26{animation:f26 1.65s step-end 1}
.f27{animation:f27 1.65s step-end 1}
.f28{animation:f28 1.65s step-end 1}
.f29{animation:f29 1.65s step-end 1}
.f30{animation:f30 1.65s step-end 1}
.f31{animation:f31 1.65s step-end 1}
.f32{animation:f32 1.65s step-end 1}
.f33{animation:f33 1.65s step-end 1}
.f34{animation:f34 1.65s step-end 1}
.f35{animation:f35 1.65s step-end 1}
.f36{animation:f36 1.65s step-end 1}
.f37{animation:f37 1.65s step-end 1}
.f38{animation:f38 1.65s step-end 1}
.f39{animation:f39 1.65s step-end 1}
.f40{animation:f40 1.65s step-end 1}
.f41{animation:f41 1.65s step-end 1}
.f42{animation:f42 1.65s step-end 1}
.f43{animation:f43 1.65s step-end 1}
.f44{animation:f44 1.65s step-end 1 forwards}
@keyframes f0{0%{visibility:hidden}0.0000%{visibility:visible}1.8182%{visibility:hidden}100%{visibility:hidden}}
@keyframes f1{0%{visibility:hidden}1.8182%{visibility:visible}3.6364%{visibility:hidden}100%{visibility:hidden}}
@keyframes f2{0%{visibility:hidden}3.6364%{visibility:visible}5.4545%{visibility:hidden}100%{visibility:hidden}}
@keyframes f3{0%{visibility:hidden}5.4545%{visibility:visible}7.2727%{visibility:hidden}100%{visibility:hidden}}
@keyframes f4{0%{visibility:hidden}7.2727%{visibility:visible}9.0909%{visibility:hidden}100%{visibility:hidden}}
@keyframes f5{0%{visibility:hidden}9.0909%{visibility:visible}10.9091%{visibility:hidden}100%{visibility:hidden}}
@keyframes f6{0%{visibility:hidden}10.9091%{visibility:visible}12.7273%{visibility:hidden}100%{visibility:hidden}}
@keyframes f7{0%{visibility:hidden}12.7273%{visibility:visible}14.5455%{visibility:hidden}100%{visibility:hidden}}
@keyframes f8{0%{visibility:hidden}14.5455%{visibility:visible}16.3636%{visibility:hidden}100%{visibility:hidden}}
@keyframes f9{0%{visibility:hidden}16.3636%{visibility:visible}18.1818%{visibility:hidden}100%{visibility:hidden}}
@keyframes f10{0%{visibility:hidden}18.1818%{visibility:visible}20.0000%{visibility:hidden}100%{visibility:hidden}}
@keyframes f11{0%{visibility:hidden}20.0000%{visibility:visible}21.8182%{visibility:hidden}100%{visibility:hidden}}
@keyframes f12{0%{visibility:hidden}21.8182%{visibility:visible}23.6364%{visibility:hidden}100%{visibility:hidden}}
@keyframes f13{0%{visibility:hidden}23.6364%{visibility:visible}25.4545%{visibility:hidden}100%{visibility:hidden}}
@keyframes f14{0%{visibility:hidden}25.4545%{visibility:visible}27.2727%{visibility:hidden}100%{visibility:hidden}}
@keyframes f15{0%{visibility:hidden}27.2727%{visibility:visible}29.0909%{visibility:hidden}100%{visibility:hidden}}
@keyframes f16{0%{visibility:hidden}29.0909%{visibility:visible}30.9091%{visibility:hidden}100%{visibility:hidden}}
@keyframes f17{0%{visibility:hidden}30.9091%{visibility:visible}32.7273%{visibility:hidden}100%{visibility:hidden}}
@keyframes f18{0%{visibility:hidden}32.7273%{visibility:visible}34.5455%{visibility:hidden}100%{visibility:hidden}}
@keyframes f19{0%{visibility:hidden}34.5455%{visibility:visible}36.3636%{visibility:hidden}100%{visibility:hidden}}
@keyframes f20{0%{visibility:hidden}36.3636%{visibility:visible}38.1818%{visibility:hidden}100%{visibility:hidden}}
@keyframes f21{0%{visibility:hidden}38.1818%{visibility:visible}40.0000%{visibility:hidden}100%{visibility:hidden}}
@keyframes f22{0%{visibility:hidden}40.0000%{visibility:visible}41.8182%{visibility:hidden}100%{visibility:hidden}}
@keyframes f23{0%{visibility:hidden}41.8182%{visibility:visible}43.6364%{visibility:hidden}100%{visibility:hidden}}
@keyframes f24{0%{visibility:hidden}43.6364%{visibility:visible}45.4545%{visibility:hidden}100%{visibility:hidden}}
@keyframes f25{0%{visibility:hidden}45.4545%{visibility:visible}47.2727%{visibility:hidden}100%{visibility:hidden}}
@keyframes f26{0%{visibility:hidden}47.2727%{visibility:visible}49.0909%{visibility:hidden}100%{visibility:hidden}}
@keyframes f27{0%{visibility:hidden}49.0909%{visibility:visible}50.9091%{visibility:hidden}100%{visibility:hidden}}
@keyframes f28{0%{visibility:hidden}50.9091%{visibility:visible}52.7273%{visibility:hidden}100%{visibility:hidden}}
@keyframes f29{0%{visibility:hidden}52.7273%{visibility:visible}54.5455%{visibility:hidden}100%{visibility:hidden}}
@keyframes f30{0%{visibility:hidden}54.5455%{visibility:visible}56.3636%{visibility:hidden}100%{visibility:hidden}}
@keyframes f31{0%{visibility:hidden}56.3636%{visibility:visible}58.1818%{visibility:hidden}100%{visibility:hidden}}
@keyframes f32{0%{visibility:hidden}58.1818%{visibility:visible}60.0000%{visibility:hidden}100%{visibility:hidden}}
@keyframes f33{0%{visibility:hidden}60.0000%{visibility:visible}61.8182%{visibility:hidden}100%{visibility:hidden}}
@keyframes f34{0%{visibility:hidden}61.8182%{visibility:visible}63.6364%{visibility:hidden}100%{visibility:hidden}}
@keyframes f35{0%{visibility:hidden}63.6364%{visibility:visible}65.4545%{visibility:hidden}100%{visibility:hidden}}
@keyframes f36{0%{visibility:hidden}65.4545%{visibility:visible}67.2727%{visibility:hidden}100%{visibility:hidden}}
@keyframes f37{0%{visibility:hidden}67.2727%{visibility:visible}69.0909%{visibility:hidden}100%{visibility:hidden}}
@keyframes f38{0%{visibility:hidden}69.0909%{visibility:visible}89.0909%{visibility:hidden}100%{visibility:hidden}}
@keyframes f39{0%{visibility:hidden}89.0909%{visibility:visible}90.9091%{visibility:hidden}100%{visibility:hidden}}
@keyframes f40{0%{visibility:hidden}90.9091%{visibility:visible}92.7273%{visibility:hidden}100%{visibility:hidden}}
@keyframes f41{0%{visibility:hidden}92.7273%{visibility:visible}94.5455%{visibility:hidden}100%{visibility:hidden}}
@keyframes f42{0%{visibility:hidden}94.5455%{visibility:visible}96.3636%{visibility:hidden}100%{visibility:hidden}}
@keyframes f43{0%{visibility:hidden}96.3636%{visibility:visible}98.1818%{visibility:hidden}100%{visibility:hidden}}
@keyframes f44{0%{visibility:hidden}98.1818%{visibility:visible}100.0000%{visibility:visible}100%{visibility:visible}}
</style>
<g class="f f0">
<path d="M0 0 C6.92 5.39 12.53 10.41 14.19 19.25 C9.95 22.98 5.39 24.02 -0.14 24.6 C-4.65 24.17 -6.91 22.37 -10.19 19.5 C-19.06 12.23 -19.06 12.23 -30.06 10 C-35.75 10.92 -40.39 14.4 -45.09 17.54 C-47.81 19.25 -47.81 19.25 -49.81 19.25 C-51.38 14.32 -50.11 10.77 -47.81 6.25 C-35.29 -10.71 -17.06 -11.86 0 0 Z " fill="#3C3CFF" transform="translate(303.8125,377.75)"/>
<path d="M0 0 C3.12 0.25 3.12 0.25 4.94 1.5 C6.34 3.56 6.98 4.74 7.12 7.25 C5.98 9.49 4.92 11.46 3.12 13.25 C-2.2 13.71 -2.2 13.71 -4.69 12 C-6.09 9.94 -6.73 8.76 -6.88 6.25 C-3.85 0.33 -3.85 0.33 0 0 Z " fill="#3C3CFF" transform="translate(239.875,394.75)"/>
</g>
<g class="f f1">
<path d="M0 0 C4.03 2.98 6.87 7.02 8.2 11.85 C7.91 16.33 5.94 18.97 3.26 22.48 C2.55 23.42 1.84 24.36 1.11 25.33 C0.48 26.16 -0.15 26.99 -0.8 27.85 C-1.46 28.84 -2.12 29.83 -2.8 30.85 C-10.92 33.56 -18.57 31.08 -26.49 28.85 C-40.85 25.07 -52.88 23.52 -66.28 31.29 C-71.84 34.97 -76.62 39.37 -81.46 43.92 C-91.05 52.85 -91.05 52.85 -96.8 52.85 C-99.54 40.47 -95.13 27.62 -88.89 16.95 C-79.93 3.69 -68.22 -5.25 -52.61 -9.52 C-34.22 -12.54 -15.86 -10.11 0 0 Z " fill="#3C3CFF" transform="translate(361.80078125,338.1484375)"/>
<path d="M0 0 C3.26 2.54 4.94 4.7 5.57 8.86 C5.77 12.9 5.41 15.41 3.69 19.12 C0.7 22.34 -1.54 23.54 -5.75 24.75 C-10.54 24.58 -13.95 23.7 -17.75 20.75 C-20.9 17.06 -21.28 13.66 -21.09 8.96 C-20.54 5.37 -19.21 3.4 -16.75 0.75 C-10.76 -2.75 -6.28 -2.86 0 0 Z " fill="#3C3CFF" transform="translate(247.75,390.25)"/>
</g>
<g class="f f2">
<path d="M0 0 C3.28 2.85 4.72 4.47 5.2 8.92 C4.93 29.1 4.93 29.1 -1.92 36.81 C-8.85 42.34 -16.6 43.84 -25.1 45.6 C-32.9 47.22 -40.04 48.96 -47.16 52.6 C-48.05 53.03 -48.93 53.47 -49.85 53.92 C-63.11 61.74 -74 74.42 -83.16 86.6 C-86.12 90.3 -89.13 93.96 -92.16 97.6 C-92.9 98.5 -93.65 99.41 -94.41 100.34 C-98.85 105.53 -103.43 110.57 -110.16 112.6 C-112.93 112.21 -112.93 112.21 -115.16 111.6 C-120.63 86.32 -110.21 54.98 -96.78 33.71 C-83.62 13.96 -64.19 -0.69 -40.79 -5.88 C-26.45 -8.73 -12.35 -8.63 0 0 Z " fill="#3C3CFF" transform="translate(387.16015625,266.40234375)"/>
<path d="M0 0 C5.15 2.96 9.47 7.35 11.23 13.13 C12.42 19.21 11.49 23.68 8.62 29.12 C5.46 33.57 2.85 36.41 -2.38 38.12 C-9.26 38.99 -14.98 38.87 -20.69 34.68 C-25.72 30.03 -28.11 25.64 -28.63 18.81 C-28.16 11.88 -25.17 7.02 -20.38 2.12 C-14.65 -2.07 -6.59 -2.44 0 0 Z " fill="#3C3CFF" transform="translate(248.37890625,382.87890625)"/>
</g>
<g class="f f3">
<path d="M0 0 C4.43 3.76 6.32 7.32 8.25 12.62 C8.51 13.29 8.76 13.96 9.02 14.65 C13.23 25.71 12.78 34.07 8 45 C3.97 52.73 -1.26 59.44 -8 65 C-8.66 65 -9.32 65 -10 65 C-10.26 65.57 -10.51 66.14 -10.78 66.73 C-12.13 69.23 -13.71 71.15 -15.56 73.31 C-29.38 90.47 -38.78 111.82 -48.82 131.35 C-70.44 173.31 -70.44 173.31 -86 180 C-89.79 180.92 -93.42 181.79 -97 180 C-97.98 177.05 -98.13 175.12 -98.13 172.05 C-98.13 171.05 -98.14 170.05 -98.14 169.02 C-98.13 167.94 -98.13 166.86 -98.12 165.75 C-98.12 164.63 -98.12 163.51 -98.11 162.35 C-97.78 112.17 -92.81 55.87 -56 18 C-55.35 17.29 -54.71 16.58 -54.04 15.86 C-41.14 2.11 -18.37 -9.35 0 0 Z " fill="#3C3CFF" transform="translate(369,182)"/>
<path d="M0 0 C5.55 4.09 9.29 9.3 11 16 C12.1 25.16 11.1 32.54 5.53 39.96 C0.63 45.44 -5.27 48.29 -12.51 49.38 C-19.74 49.73 -26.21 47.8 -32.04 43.49 C-37.41 38.57 -40.51 33.11 -41.38 25.85 C-41.71 16.73 -40 10.03 -33.88 3.19 C-24.12 -5.76 -11.28 -6.41 0 0 Z " fill="#3C3CFF" transform="translate(255,379)"/>
</g>
<g class="f f4">
<path d="M0 0 C3.13 1.92 5.5 4.33 8 7 C9.17 8.1 10.33 9.21 11.5 10.31 C14 13 14 13 14 15 C14.66 15 15.32 15 16 15 C16.34 15.93 16.68 16.87 17.03 17.83 C17.52 19.16 18.01 20.49 18.5 21.81 C18.89 22.88 18.89 22.88 19.29 23.97 C20.79 28.01 22.4 31.96 24.21 35.87 C24.58 36.68 24.95 37.5 25.33 38.33 C26.05 39.9 26.79 41.46 27.55 43 C32.32 53.54 28.53 65.27 26.12 76.08 C25.83 77.43 25.53 78.77 25.24 80.11 C24.63 82.92 24.01 85.74 23.38 88.55 C22.61 92.04 21.84 95.54 21.08 99.05 C9.95 150.19 9.95 150.19 2.06 172.25 C1.65 173.43 1.23 174.61 0.8 175.83 C-7.02 197.57 -18.11 223.24 -39.44 234.88 C-43.72 236.23 -46.53 236.45 -51 236 C-53.22 234.41 -53.9 233.49 -54.43 230.8 C-54.46 229.94 -54.48 229.09 -54.51 228.2 C-54.56 226.74 -54.56 226.74 -54.62 225.24 C-54.64 224.19 -54.67 223.13 -54.7 222.04 C-54.73 220.93 -54.77 219.83 -54.81 218.69 C-54.93 215.15 -55.03 211.61 -55.12 208.06 C-55.23 204.59 -55.35 201.12 -55.46 197.65 C-55.53 195.35 -55.61 193.05 -55.67 190.75 C-55.85 185.04 -56.07 179.34 -56.4 173.63 C-57.19 160.16 -57.22 146.69 -57.24 133.2 C-57.24 130.37 -57.26 127.54 -57.28 124.71 C-57.58 86.5 -57.05 40.91 -29.46 11.3 C-21.55 3.92 -11.15 -2.26 0 0 Z " fill="#3C3CFF" transform="translate(318,111)"/>
<path d="M0 0 C6.78 7.73 9.02 16.05 8.88 26.07 C8.24 34.75 4.08 42.72 -2.21 48.7 C-9.66 54.63 -18.29 57.61 -27.84 56.66 C-36.52 55.17 -44.44 51.62 -50.33 44.91 C-56.42 35.58 -59 26.63 -56.87 15.51 C-54.1 6.22 -48.71 -1.19 -40.33 -6.09 C-26.61 -12.78 -11.26 -10.13 0 0 Z " fill="#3C3CFF" transform="translate(264.328125,378.09375)"/>
</g>
<g class="f f5">
<path d="M0 0 C0.8 -0.01 1.6 -0.02 2.42 -0.03 C9.55 0.07 15.99 1.57 21.31 6.56 C21.97 7.17 22.62 7.78 23.29 8.41 C24.32 9.41 24.32 9.41 25.38 10.44 C26.15 11.19 26.93 11.94 27.74 12.72 C47.56 32.18 48.38 62.36 48.68 88.88 C48.7 93.25 48.7 97.63 48.69 102 C48.69 103.14 48.68 104.28 48.68 105.46 C48.64 122.65 48.16 139.45 45.38 156.44 C45.21 157.5 45.04 158.57 44.87 159.67 C41.32 181.91 35.56 204.25 25.38 224.44 C24.88 225.44 24.88 225.44 24.37 226.46 C19.32 236.49 13.42 244.61 5.38 252.44 C4.74 253.07 4.1 253.71 3.44 254.37 C-1.54 259 -7.21 261.78 -13.88 263.06 C-17.17 262.31 -18.48 260.91 -20.55 258.3 C-22.53 254.87 -22.46 251.33 -22.56 247.44 C-22.6 246.56 -22.64 245.67 -22.69 244.77 C-22.78 242.85 -22.86 240.94 -22.94 239.02 C-23.15 233.79 -23.46 228.57 -23.77 223.34 C-23.87 221.72 -23.87 221.72 -23.96 220.07 C-24.63 209.34 -25.84 198.71 -27.25 188.06 C-27.37 187.13 -27.5 186.19 -27.62 185.22 C-29.47 171.28 -31.48 157.36 -33.46 143.44 C-34.06 139.25 -34.66 135.06 -35.25 130.88 C-35.4 129.84 -35.4 129.84 -35.55 128.79 C-48.6 36.9 -48.6 36.9 -34.32 15.48 C-30.36 10.35 -25.31 7.4 -19.62 4.44 C-18.9 4.02 -18.17 3.6 -17.43 3.18 C-11.73 0.34 -6.26 0.06 0 0 Z " fill="#3C3CFF" transform="translate(273.625,72.5625)"/>
<path d="M0 0 C2.29 1.7 4.38 3.47 6.46 5.42 C7.03 5.95 7.59 6.47 8.18 7.01 C15.23 14.35 18.2 24.19 18.59 34.19 C18.13 45.91 13.65 55.8 5.09 63.8 C1.15 67.08 -2.77 69.54 -7.54 71.42 C-8.57 71.83 -9.6 72.25 -10.66 72.67 C-21.97 74.86 -33.15 74.02 -43.07 67.84 C-45.36 66.15 -47.45 64.37 -49.54 62.42 C-50.1 61.9 -50.66 61.38 -51.25 60.84 C-58.3 53.49 -61.27 43.65 -61.66 33.65 C-61.2 21.93 -56.72 12.05 -48.16 4.05 C-44.22 0.76 -40.3 -1.69 -35.54 -3.58 C-34.5 -3.99 -33.47 -4.4 -32.41 -4.83 C-21.1 -7.02 -9.92 -6.17 0 0 Z " fill="#3C3CFF" transform="translate(261.53515625,367.578125)"/>
</g>
<g class="f f6">
<path d="M0 0 C5.78 4.95 10.22 10.38 14.13 16.89 C14.47 17.45 14.81 18.01 15.16 18.59 C35.24 52.49 44.22 96.81 45.13 135.89 C45.15 136.65 45.17 137.42 45.19 138.21 C46.24 182.35 38.79 235.23 7.45 268.76 C-0.04 275.64 -0.04 275.64 -4.68 276.26 C-7.87 275.89 -7.87 275.89 -10.49 274.07 C-16.16 266.47 -17.73 256.77 -19.42 247.62 C-19.64 246.47 -19.86 245.32 -20.08 244.14 C-20.55 241.71 -21.01 239.27 -21.47 236.84 C-22.66 230.5 -23.89 224.18 -25.12 217.85 C-25.36 216.62 -25.6 215.38 -25.85 214.11 C-28.49 200.61 -31.44 187.21 -34.87 173.89 C-35.15 172.78 -35.43 171.67 -35.73 170.53 C-43.71 139.68 -53.64 109.29 -64.55 79.37 C-71.58 59.97 -78.86 38.17 -69.68 18.33 C-62.25 4.83 -49.58 -4.75 -34.87 -9.11 C-21.68 -11.96 -10.61 -7.82 0 0 Z " fill="#3C3CFF" transform="translate(251.8671875,50.11328125)"/>
<path d="M0 0 C9.22 7.99 16.19 16.75 18.5 29.02 C19.51 44.61 17.17 57.1 6.62 69.18 C-2.72 78.99 -13.58 83.78 -27.12 84.27 C-41.76 84.1 -52.45 78.19 -62.5 68.02 C-72.18 57.37 -74.28 45.08 -73.68 31.16 C-72.62 18.5 -64.82 8.08 -55.5 0.02 C-39.64 -12.07 -15.79 -12.48 0 0 Z " fill="#3C3CFF" transform="translate(267.5,363.9765625)"/>
</g>
<g class="f f7">
<path d="M0 0 C33.96 26.66 48.45 76.5 53.97 117.45 C59.67 165.99 53.96 219.83 32.1 263.88 C31.58 264.94 31.07 265.99 30.54 267.08 C26.78 274.39 22.05 283.35 14.41 287.13 C11.1 287.88 11.1 287.88 8.54 287.57 C-10.08 274.68 -13.06 235.34 -17.94 214.79 C-29.62 165.62 -43.07 117.74 -65.93 72.41 C-73.06 58.05 -76.24 43.02 -71.54 27.32 C-66.95 13.94 -59.65 -1.83 -46.96 -9.12 C-30.54 -17.11 -13.63 -9.94 0 0 Z " fill="#3C3CFF" transform="translate(229.90234375,36.1171875)"/>
<path d="M0 0 C12.65 8.13 20.75 18.68 24.81 33.25 C27.86 48.57 25 63.01 16.81 76.25 C8.5 87.57 -3.45 95.23 -17.19 98.25 C-35.33 99.78 -49.67 96.29 -63.88 84.56 C-73.78 75.36 -79.48 62.68 -80.39 49.24 C-80.63 33.26 -75.84 19.18 -64.67 7.5 C-46.61 -8.89 -21.21 -11.85 0 0 Z " fill="#3C3CFF" transform="translate(267.1875,355.75)"/>
</g>
<g class="f f8">
<path d="M0 0 C34.07 31.41 45.04 91.4 47.56 135.5 C47.75 141.19 47.81 146.87 47.81 152.56 C47.81 153.35 47.81 154.13 47.81 154.94 C47.77 185.04 43.79 215.09 33.56 243.5 C33.32 244.18 33.08 244.85 32.82 245.55 C21.47 276.55 21.47 276.55 9.56 282.5 C5.98 282.9 4.16 282.89 1.1 280.9 C-6.74 273.49 -10.07 261.19 -13.21 251.18 C-13.56 250.1 -13.9 249.02 -14.25 247.9 C-17.87 236.35 -21.04 224.69 -24.19 213 C-30.68 188.97 -37.52 165.1 -45.44 141.5 C-45.7 140.71 -45.96 139.93 -46.23 139.12 C-51.69 122.83 -57.31 106.61 -63.74 90.68 C-64.1 89.79 -64.46 88.9 -64.84 87.98 C-66.57 83.7 -68.32 79.44 -70.11 75.18 C-77.29 57.89 -83.14 40.1 -76.75 21.62 C-70.54 6.86 -58.58 -6.24 -43.81 -12.64 C-27.5 -18.57 -12.34 -10.13 0 0 Z " fill="#3C3CFF" transform="translate(233.4375,40.5)"/>
<path d="M0 0 C15.26 11.31 24.47 24.83 27.37 43.76 C28.91 58.95 24.72 74.36 15.3 86.41 C5.2 98.13 -8 107.62 -23.84 108.94 C-42.06 109.96 -56.73 106.6 -70.82 94.45 C-83.55 82.49 -90.41 68.05 -91.07 50.45 C-90.59 33.25 -83.94 18.73 -71.63 6.76 C-52.24 -10.7 -22.31 -14.58 0 0 Z " fill="#3C3CFF" transform="translate(271.62890625,351.2421875)"/>
</g>
<g class="f f9">
<path d="M0 0 C3.64 2.74 6.84 5.74 10 9 C10.64 9.64 11.27 10.28 11.93 10.94 C50.12 51.68 51.57 131.74 50.09 183.48 C49.73 193.41 48.65 203.2 47 213 C46.83 214 46.67 215.01 46.5 216.05 C42.43 239.7 35.76 271.76 16.5 288.12 C12.8 289.42 10.74 289.18 7 288 C-3.7 278.64 -7.72 261.67 -11.88 248.5 C-12.43 246.77 -12.98 245.05 -13.53 243.32 C-18.96 226.35 -24.18 209.31 -29.42 192.27 C-34.38 176.15 -39.46 160.06 -44.62 144 C-45.15 142.37 -45.15 142.37 -45.68 140.71 C-48.83 130.92 -51.99 121.12 -55.15 111.33 C-56.9 105.91 -58.65 100.49 -60.39 95.07 C-61.04 93.06 -61.68 91.04 -62.34 89.03 C-76.92 44.03 -76.92 44.03 -67.82 23.3 C-60.21 9.55 -46.9 -0.06 -31.96 -4.53 C-31.32 -4.68 -30.67 -4.84 -30 -5 C-29.22 -5.19 -28.44 -5.38 -27.63 -5.57 C-17.98 -7.14 -8.38 -4.83 0 0 Z " fill="#3C3CFF" transform="translate(228,34)"/>
<path d="M0 0 C12.01 12.58 18 28.12 17.79 45.59 C17.07 62.51 10.15 76.08 -1.69 87.94 C-2.33 88.59 -2.96 89.24 -3.62 89.91 C-15.75 101.4 -31.5 104.92 -47.69 104.94 C-64.64 103.81 -78.7 95.86 -90.3 83.79 C-101.45 70.49 -106.18 54.27 -104.92 37.03 C-103.24 21.66 -96.45 9.72 -85.69 -1.06 C-85.05 -1.71 -84.41 -2.36 -83.75 -3.03 C-59.88 -25.67 -22.71 -21.22 0 0 Z " fill="#3C3CFF" transform="translate(283.6875,358.0625)"/>
</g>
<g class="f f10">
<path d="M0 0 C25.39 22.99 29.25 62.77 33.94 94.75 C34.1 95.89 34.27 97.02 34.44 98.19 C39.42 134.01 39.81 173.04 33.94 208.75 C33.76 209.83 33.58 210.91 33.4 212.02 C23.73 268.66 23.73 268.66 4.88 283.5 C0.92 285.19 -0.98 285.14 -5.06 283.75 C-9.62 279.62 -12.52 274.56 -15.01 269.01 C-15.35 268.28 -15.69 267.54 -16.03 266.78 C-19.86 258.26 -22.91 249.48 -25.88 240.63 C-26.18 239.72 -26.49 238.8 -26.81 237.86 C-43.91 187.17 -58.87 135.54 -71.25 83.5 C-71.44 82.73 -71.62 81.95 -71.81 81.15 C-77.02 59.15 -82.8 33.51 -70.38 12.94 C-61.06 0.26 -47.72 -5.61 -32.75 -9 C-20.47 -9.83 -9.71 -7.81 0 0 Z " fill="#3C3CFF" transform="translate(240.0625,38.24609375)"/>
<path d="M0 0 C0.94 0.41 1.87 0.82 2.84 1.25 C18.69 9.08 28.51 22.31 34.09 38.77 C38.52 54.46 36.38 70.88 28.72 85.16 C19.95 99.66 7.47 109.2 -8.73 114.14 C-21.26 117.08 -36.28 116.22 -48 111 C-48.94 110.59 -49.87 110.18 -50.84 109.75 C-66.69 101.92 -76.51 88.69 -82.09 72.23 C-86.52 56.54 -84.38 40.12 -76.72 25.84 C-67.95 11.34 -55.47 1.8 -39.27 -3.14 C-26.74 -6.08 -11.72 -5.22 0 0 Z " fill="#3C3CFF" transform="translate(264,346)"/>
</g>
<g class="f f11">
<path d="M0 0 C24.15 19.91 25.88 54.28 28.75 83.21 C29.15 87.58 29.49 91.94 29.81 96.31 C29.9 97.39 29.9 97.39 29.99 98.48 C34.33 153.26 37.06 236.56 1.23 281.87 C-1.66 284.81 -3.46 286.22 -7.62 286.75 C-11.87 286.23 -13.09 285.18 -16.19 282.31 C-55.13 229.9 -84.66 98.82 -75.86 33.88 C-74.44 25.76 -71.98 18.09 -67.19 11.31 C-66.76 10.69 -66.33 10.07 -65.89 9.43 C-51.79 -8.91 -18.55 -12.78 0 0 Z " fill="#3C3CFF" transform="translate(248.1875,36.6875)"/>
<path d="M0 0 C12.9 10.14 21.29 23.03 23.72 39.43 C25.39 54.72 21.04 69.41 11.93 81.82 C2.61 92.74 -9.58 100.87 -24 103 C-42.32 104.11 -56.9 100.93 -71.19 88.75 C-83.14 77.52 -89.59 63.06 -90.31 46.69 C-89.83 31.48 -84.05 17.17 -73.44 6.25 C-53.28 -12.33 -22.82 -16.88 0 0 Z " fill="#3C3CFF" transform="translate(273,355)"/>
</g>
<g class="f f12">
<path d="M0 0 C17.35 15.54 19.46 40.45 20.73 62.24 C21.9 84.26 22.1 106.22 20.98 128.24 C20.93 129.09 20.89 129.94 20.85 130.81 C14.45 255.11 14.45 255.11 -16.27 283.24 C-19.52 284.86 -21.68 284.71 -25.27 284.24 C-44.28 273.28 -51.81 230.15 -56.94 211.16 C-97.52 59.05 -97.52 59.05 -72.27 11.24 C-65.47 0.12 -55.69 -5.53 -43.27 -8.76 C-28.07 -12.08 -12.35 -9.57 0 0 Z " fill="#3C3CFF" transform="translate(262.2734375,38.76171875)"/>
<path d="M0 0 C10 10.31 14.73 23.16 15.1 37.29 C14.84 52.54 9.71 64.65 -0.81 75.69 C-12.06 86.39 -25.71 91.28 -41.21 90.98 C-56.49 89.89 -68.39 83.25 -78.9 72.35 C-89.25 59.91 -92.24 45.81 -91.21 29.98 C-89.03 14.77 -80.66 2.39 -68.52 -6.84 C-46.19 -21.58 -19.3 -17.66 0 0 Z " fill="#3C3CFF" transform="translate(278.2109375,364.0234375)"/>
</g>
<g class="f f13">
<path d="M0 0 C13.27 10.53 18.91 25.08 21.22 41.6 C21.67 46.06 21.6 50.53 21.61 55.01 C21.61 56.1 21.61 57.18 21.62 58.3 C21.63 61.83 21.63 65.35 21.62 68.88 C21.62 70.08 21.62 71.28 21.62 72.52 C21.59 90.35 21.38 108.02 19.44 125.75 C19.36 126.48 19.28 127.22 19.19 127.97 C4.5 261.25 4.5 261.25 -24.56 287.75 C-27.76 289.01 -29.21 288.86 -32.5 287.81 C-56.03 271.97 -61.17 224.1 -66.25 198.12 C-93.8 54.88 -93.8 54.88 -66.81 11 C-60.21 1.69 -51.9 -3.87 -40.88 -6.5 C-27.26 -8.81 -11.79 -7.82 0 0 Z " fill="#3C3CFF" transform="translate(269.5625,35.25)"/>
<path d="M0 0 C10.61 8.22 19.14 18.59 22 32 C22.87 42.9 23.27 54.16 18 64 C17.58 64.84 17.15 65.69 16.71 66.56 C10 78.84 -0.56 87.33 -13.89 91.46 C-27.63 95 -41.04 93.18 -53.52 86.57 C-65.07 79.24 -73.7 68.31 -77.55 55.13 C-79.86 44.28 -79.25 30.79 -74 21 C-73.36 19.73 -73.36 19.73 -72.71 18.44 C-66 6.16 -55.44 -2.33 -42.11 -6.46 C-27.54 -10.21 -12.72 -8.07 0 0 Z " fill="#3C3CFF" transform="translate(268,359)"/>
</g>
<g class="f f14">
<path d="M0 0 C16.64 17.26 17.27 41.92 16.96 64.41 C16.94 66.54 16.92 68.67 16.91 70.81 C16.76 86.94 16.17 102.97 14.58 119.03 C14.46 120.31 14.33 121.6 14.21 122.92 C1.17 255.48 1.17 255.48 -30.42 284.03 C-33.42 285.16 -33.42 285.16 -36.42 285.03 C-46.81 280.27 -51.43 266.88 -55.25 256.85 C-75.19 202.46 -82.32 140.77 -83.42 83.03 C-83.44 81.94 -83.46 80.84 -83.48 79.72 C-84.51 19.64 -84.51 19.64 -65.87 0.07 C-47.54 -15.17 -18.4 -14.98 0 0 Z " fill="#3C3CFF" transform="translate(275.41796875,38.96875)"/>
<path d="M0 0 C6.69 5.09 11.9 10.66 16 18 C16.58 18.99 16.58 18.99 17.18 20 C22.69 30.6 23.32 44.69 20 56 C14.61 69.9 6.29 80.12 -7 87 C-20.7 92.75 -34.81 92.37 -48.55 87 C-58.78 82.41 -66.56 74.73 -72 65 C-72.58 64.01 -72.58 64.01 -73.18 63 C-78.69 52.4 -79.32 38.31 -76 27 C-70.61 13.1 -62.29 2.88 -49 -4 C-32.82 -10.79 -14.86 -9.4 0 0 Z " fill="#3C3CFF" transform="translate(268,360)"/>
</g>
<g class="f f15">
<path d="M0 0 C0.61 0.42 1.23 0.84 1.86 1.27 C13.81 10.44 17.99 25.66 20.12 39.9 C21.2 48.57 21.31 57.15 21.25 65.88 C21.25 66.7 21.24 67.52 21.24 68.36 C20.97 129.58 19.37 238.71 -24.27 285.53 C-26.84 287.72 -28.65 288.22 -32 288 C-40.97 284.64 -45.32 273.04 -49 265 C-50.66 260.8 -52.11 256.55 -53.5 252.25 C-53.89 251.07 -54.27 249.89 -54.67 248.68 C-68.43 205.84 -75.18 159.84 -78 115 C-78.06 114.05 -78.06 114.05 -78.13 113.08 C-78.92 100.65 -79.19 88.25 -79.19 75.79 C-79.19 72.8 -79.21 69.82 -79.22 66.83 C-79.29 44.56 -78.12 21.1 -62.38 3.75 C-46.14 -11.56 -18.11 -12.44 0 0 Z " fill="#3C3CFF" transform="translate(271,36)"/>
<path d="M0 0 C10.03 11.46 14.57 23.9 14.28 39.01 C13.35 52.34 6.79 64.95 -3 74 C-14.92 83.22 -28.49 87.23 -43.44 85.38 C-57.1 82.91 -67.81 76.78 -76.31 65.75 C-84.48 53.88 -86.99 42.18 -86 28 C-83.27 13.95 -75.72 1.31 -63.81 -6.75 C-43.19 -19.14 -17.41 -17.2 0 0 Z " fill="#3C3CFF" transform="translate(276,366)"/>
</g>
<g class="f f16">
<path d="M0 0 C0.95 -0.02 1.89 -0.04 2.87 -0.06 C14.85 -0.13 25.54 3.62 34.5 11.69 C47.21 25.24 50.52 45.65 50.54 63.53 C50.55 64.41 50.55 65.29 50.56 66.19 C50.57 69.04 50.57 71.9 50.56 74.75 C50.56 75.73 50.56 76.72 50.56 77.73 C50.43 138.39 48.93 243.62 7.1 292.7 C4.19 295.31 2.29 295.96 -1.62 296.25 C-9.78 293.14 -13.94 283.67 -17.45 276.28 C-43.51 217.99 -49.82 145 -49.81 81.82 C-49.81 78.99 -49.83 76.15 -49.85 73.32 C-49.92 51.66 -48.73 28.95 -33.6 11.98 C-24.09 2.73 -12.79 0.07 0 0 Z " fill="#3C3CFF" transform="translate(240.625,27.75)"/>
<path d="M0 0 C10.83 8.06 18.96 19.45 21 33 C22.09 48.22 20.73 61.66 11 74 C10.23 75.03 10.23 75.03 9.45 76.08 C1.5 86.02 -10.53 92.01 -23 94 C-38.96 95.04 -52.37 91.62 -64.75 81.25 C-74.23 72.33 -80.66 60.95 -81.24 47.81 C-81.56 33.85 -79.89 22.27 -71 11 C-70.49 10.31 -69.97 9.63 -69.45 8.92 C-52.64 -12.11 -21.64 -14.35 0 0 Z " fill="#3C3CFF" transform="translate(270,359)"/>
</g>
<g class="f f17">
<path d="M0 0 C13.06 10.46 17.45 26.41 19.59 42.35 C20.52 51.19 20.28 60.13 20.23 69.01 C20.23 70.05 20.22 71.09 20.22 72.16 C20.16 89.7 19.64 107.1 17.98 124.57 C17.92 125.24 17.85 125.91 17.79 126.6 C5.51 255.38 5.51 255.38 -23.95 285.96 C-26.08 287.62 -27.35 288.35 -30.02 288.7 C-34.68 288.08 -37.18 285.11 -39.96 281.54 C-46.42 272.24 -50.46 261.51 -53.96 250.82 C-54.17 250.19 -54.37 249.56 -54.59 248.9 C-67.69 208.84 -74.14 166.45 -78.02 124.57 C-78.14 123.33 -78.25 122.09 -78.37 120.81 C-79.93 103.55 -80.22 86.33 -80.27 69.01 C-80.27 68 -80.28 66.99 -80.29 65.94 C-80.37 44.28 -79.73 20.28 -64.07 3.49 C-47.32 -12.08 -18.53 -13.08 0 0 Z " fill="#3C3CFF" transform="translate(270.01953125,35.42578125)"/>
<path d="M0 0 C11.5 8.71 19.17 21.54 21.43 35.84 C22.43 52.46 18.81 66.81 7.74 79.65 C-2.47 90.23 -14.24 95.78 -28.96 96.31 C-44.62 96.49 -57.64 92.42 -69.32 81.59 C-80.37 69.72 -85.06 55.66 -84.78 39.69 C-83.96 24.74 -76.44 11.83 -65.57 1.84 C-46.67 -13.25 -19.76 -13.55 0 0 Z " fill="#3C3CFF" transform="translate(271.5703125,358.16015625)"/>
</g>
<g class="f f18">
<path d="M0 0 C12.87 9.81 18.22 25.99 20.35 41.53 C20.82 46.51 20.75 51.52 20.77 56.51 C20.77 57.76 20.78 59.01 20.79 60.29 C20.8 64.34 20.81 68.39 20.81 72.44 C20.81 73.13 20.81 73.82 20.81 74.53 C20.82 96.01 20.4 117.3 17.82 138.65 C17.55 140.85 17.3 143.04 17.04 145.24 C3.62 260.07 3.62 260.07 -23.44 287.75 C-26.68 289.37 -28.84 289.22 -32.44 288.75 C-48.64 279.41 -54.98 245.9 -59.45 229.55 C-73.33 176.94 -79.5 121.95 -79.69 67.62 C-79.69 66.84 -79.7 66.06 -79.7 65.25 C-79.81 44.06 -78.55 20.72 -63.27 4.44 C-46.77 -11.04 -18.81 -12.14 0 0 Z " fill="#3C3CFF" transform="translate(268.4375,34.25)"/>
<path d="M0 0 C10.28 8.38 17.41 21.32 19.59 34.34 C21.19 50.78 17.21 65.87 6.9 79.03 C-4.07 90.91 -18.42 96.36 -34.22 97.65 C-48.1 97.14 -62.54 91.97 -72.67 82.29 C-84.01 69.6 -89.33 55.5 -88.76 38.56 C-87.95 25.81 -81.82 12.1 -72.41 3.34 C-50.66 -15.02 -23.36 -16.09 0 0 Z " fill="#3C3CFF" transform="translate(274.41015625,358.66015625)"/>
</g>
<g class="f f19">
<path d="M0 0 C13.27 13.84 16.03 34.3 16.11 52.75 C16.12 53.78 16.13 54.82 16.13 55.88 C16.15 59.26 16.16 62.63 16.16 66 C16.16 67.16 16.16 68.32 16.16 69.51 C16.11 129.46 15 231.8 -25.46 280.44 C-28.44 283.34 -29.23 283.87 -33.28 284.5 C-37.86 283.9 -39.27 282.85 -42.27 279.48 C-71.58 239.52 -76.46 174.38 -81.4 126.31 C-81.48 125.53 -81.57 124.74 -81.65 123.93 C-83.54 105.31 -84.29 86.76 -84.33 68.05 C-84.34 64.94 -84.37 61.83 -84.4 58.72 C-84.51 37.5 -83.1 15.49 -68.09 -1 C-49.45 -17.88 -17.92 -17.15 0 0 Z " fill="#3C3CFF" transform="translate(273.08984375,39)"/>
<path d="M0 0 C6.32 4.81 11.75 10.28 16 17 C16.45 17.71 16.9 18.43 17.37 19.16 C24.55 31.88 25.47 47.18 21.81 61.12 C17.09 75.09 7.94 86.79 -5 94 C-18.46 100.05 -33 102.68 -47.36 98.03 C-60.19 93.03 -70.56 85.78 -78 74 C-78.45 73.29 -78.9 72.57 -79.37 71.84 C-86.55 59.12 -87.47 43.82 -83.81 29.88 C-79.09 15.91 -69.94 4.21 -57 -3 C-37.51 -11.76 -18.42 -11.31 0 0 Z " fill="#3C3CFF" transform="translate(271,356)"/>
</g>
<g class="f f20">
<path d="M0 0 C12.6 11.84 17.41 28.68 18.11 45.62 C18.16 48.64 18.19 51.67 18.2 54.7 C18.21 55.82 18.22 56.95 18.22 58.12 C18.24 61.79 18.25 65.46 18.25 69.12 C18.25 70.38 18.25 71.64 18.25 72.93 C18.23 94.43 17.45 115.65 15 137 C14.91 137.76 14.83 138.53 14.74 139.32 C1.2 256.57 1.2 256.57 -26 285 C-29.25 286.62 -31.4 286.47 -35 286 C-46.39 279.2 -51.67 260.57 -55.5 248.69 C-55.84 247.64 -55.84 247.64 -56.2 246.56 C-74.64 190.04 -82.11 128.42 -82.24 69.16 C-82.25 66.43 -82.28 63.71 -82.31 60.98 C-82.44 39 -80.21 17.16 -64.75 0.25 C-48.42 -15.32 -16.35 -15.26 0 0 Z " fill="#3C3CFF" transform="translate(271,37)"/>
<path d="M0 0 C10.83 9.08 18.66 21.21 20.1 35.52 C20.97 52.73 17.33 66.47 6.25 79.94 C-3.61 90.53 -16.5 96.45 -30.88 97.52 C-47.4 97.79 -61.06 92.57 -73.12 81.31 C-84.99 68.81 -88.79 54.88 -88.44 38.09 C-87.76 23.73 -80.5 11 -70.12 1.31 C-49.18 -15.39 -21.48 -16.22 0 0 Z " fill="#3C3CFF" transform="translate(274.125,358.6875)"/>
</g>
<g class="f f21">
<path d="M0 0 C12.85 10.12 18.13 25.58 20.12 41.38 C26.97 109.16 22.21 225.65 -19.52 282.74 C-22.54 286.39 -24.56 288.11 -29.25 289.06 C-34.6 288.05 -36.75 285.75 -39.88 281.38 C-73.84 223.54 -78.61 140.93 -79.88 75.38 C-79.9 74.51 -79.92 73.64 -79.94 72.74 C-80.5 49.93 -80.23 21.57 -63.55 3.89 C-46.75 -11.37 -18.68 -12.47 0 0 Z " fill="#3C3CFF" transform="translate(268.875,34.625)"/>
<path d="M0 0 C10.98 8.88 16.97 21.04 19.75 34.69 C19.83 35.78 19.92 36.87 20 38 C20.05 38.64 20.1 39.27 20.16 39.93 C20.8 54.51 15.56 68.37 6 79.25 C-3.93 89.92 -17 95.83 -31.52 96.4 C-46.91 96.66 -60.93 91.93 -72.31 81.25 C-81.12 71.73 -87.02 60.04 -88 47 C-88.05 46.36 -88.1 45.73 -88.16 45.07 C-88.8 30.49 -83.56 16.63 -74 5.75 C-54.16 -15.55 -23.18 -16.25 0 0 Z " fill="#3C3CFF" transform="translate(274,359)"/>
</g>
<g class="f f22">
<path d="M0 0 C0.71 0.28 1.43 0.56 2.16 0.84 C12.26 5.36 19.57 13.66 23.75 23.83 C29.93 40.43 30.34 56.95 30.25 74.44 C30.25 75.48 30.24 76.52 30.24 77.59 C30.17 95.13 29.73 112.54 28 130 C27.92 130.76 27.85 131.53 27.77 132.32 C14.8 261.97 14.8 261.97 -13.96 291.45 C-16.7 293.53 -18.57 294.32 -22 293.86 C-31.03 289.99 -35.25 278.43 -39 270 C-40.85 265.37 -42.46 260.68 -44 255.94 C-44.21 255.3 -44.42 254.66 -44.64 254 C-57.41 214.94 -63.67 173.67 -67.69 132.88 C-67.81 131.67 -67.93 130.46 -68.05 129.22 C-69.64 112.24 -70.19 95.3 -70.19 78.26 C-70.19 75.17 -70.21 72.09 -70.22 69.01 C-70.29 47.97 -69.07 25.3 -54.12 8.95 C-40.05 -4.31 -17.75 -6.95 0 0 Z " fill="#3C3CFF" transform="translate(260,30)"/>
<path d="M0 0 C10 10.31 14.73 23.16 15.1 37.29 C14.84 52.54 9.71 64.65 -0.81 75.69 C-11.68 86.03 -25.16 91.3 -40.21 90.98 C-55.63 89.79 -67.68 84.03 -78.46 72.85 C-89.08 60.22 -92.27 46.16 -91.21 29.98 C-89.03 14.77 -80.66 2.39 -68.52 -6.84 C-46.16 -21.57 -19.3 -17.66 0 0 Z " fill="#3C3CFF" transform="translate(278.2109375,364.0234375)"/>
</g>
<g class="f f23">
<path d="M0 0 C14.43 11.46 19.25 27.04 21.44 44.75 C22.1 53.69 21.97 62.66 21.88 71.62 C21.87 72.85 21.86 74.08 21.85 75.35 C21.5 134.38 20.4 239.13 -21.06 286.25 C-23.43 288.26 -25.41 289.32 -28.5 289.75 C-32.07 289.34 -33.97 287.94 -36.5 285.44 C-79.82 230.53 -81.67 116.79 -77.81 43 C-75.32 26.2 -70.16 11.02 -56.52 0.12 C-40.65 -10.46 -15.93 -10.57 0 0 Z " fill="#3C3CFF" transform="translate(268.5625,34.25)"/>
<path d="M0 0 C11.49 7.92 20.02 20.01 22.63 33.81 C24.74 47.82 22.84 61.29 14.99 73.32 C13.29 75.58 11.51 77.7 9.63 79.81 C9.1 80.44 8.56 81.07 8.01 81.71 C-0.4 90.93 -13.04 96 -25.3 97.2 C-39.44 97.82 -53.03 93.67 -64.03 84.62 C-75.62 73.72 -81.5 60.87 -82.37 45.11 C-82.38 31.24 -77.55 19.11 -68.37 8.81 C-67.84 8.19 -67.3 7.56 -66.75 6.91 C-49.41 -12.09 -21.02 -12.24 0 0 Z " fill="#3C3CFF" transform="translate(269.37109375,357.1875)"/>
</g>
<g class="f f24">
<path d="M0 0 C10.82 8.64 16.27 21.9 18.57 35.3 C18.83 36.73 18.83 36.73 19.09 38.19 C19.87 43.73 19.76 49.3 19.78 54.88 C19.78 56.11 19.79 57.34 19.8 58.6 C19.82 62.59 19.82 66.57 19.82 70.55 C19.82 71.23 19.83 71.91 19.83 72.61 C19.83 93.6 19.41 114.39 16.83 135.24 C16.56 137.41 16.31 139.57 16.05 141.73 C1.73 263.08 1.73 263.08 -25.43 286.3 C-28.33 288.1 -29.47 288.46 -32.8 287.93 C-51.44 276.39 -57.4 242.79 -62.21 223.12 C-73.09 176.71 -79.51 128.99 -80.43 81.3 C-80.45 80.23 -80.47 79.15 -80.49 78.04 C-81.48 21.83 -81.48 21.83 -63.99 3.3 C-62.83 2.27 -61.64 1.27 -60.43 0.3 C-59.88 -0.15 -59.33 -0.61 -58.77 -1.08 C-42.38 -13.05 -16.02 -11.19 0 0 Z " fill="#3C3CFF" transform="translate(270.42578125,35.6953125)"/>
<path d="M0 0 C10.18 8.69 18.3 20.23 19.52 33.95 C20.03 51.68 17.08 65.61 4.78 79.15 C-6.34 89.58 -20.42 94.72 -35.62 94.24 C-51.73 92.75 -64.28 85.88 -74.7 73.55 C-84.12 60.92 -85.79 47.24 -84.66 31.96 C-82.49 19.42 -75.65 7.88 -65.66 -0.04 C-45.23 -14.01 -20.26 -15.53 0 0 Z " fill="#3C3CFF" transform="translate(272.66015625,360.0390625)"/>
</g>
<g class="f f25">
<path d="M0 0 C11.65 10.85 16.6 27.72 17.55 43.28 C17.84 51.52 17.8 59.76 17.75 68 C17.75 69.29 17.74 70.58 17.74 71.9 C17.65 93.2 16.85 114.23 14.38 135.38 C14.29 136.12 14.21 136.86 14.12 137.63 C0.03 260.73 0.03 260.73 -27.62 284.38 C-30.53 286.17 -31.67 286.53 -35 286 C-54.99 273.63 -60.27 238.77 -65.28 217.6 C-102.19 58.63 -102.19 58.63 -72.25 9.25 C-64.69 -1.48 -55.55 -7.6 -42.56 -10.25 C-27.04 -11.73 -12.31 -10.16 0 0 Z " fill="#3C3CFF" transform="translate(272.625,37.625)"/>
<path d="M0 0 C11.09 8.48 18.99 19.23 22 33 C23.45 50.9 20.87 65.16 9.12 79.25 C0.06 88.9 -12.85 95.34 -26.13 96.2 C-42.69 96.43 -55.6 91.89 -67.71 80.42 C-79.59 67.87 -82.52 54.98 -82.27 38.29 C-81.79 24.76 -74.91 12.95 -65.16 3.78 C-46.35 -11.73 -20.35 -13.66 0 0 Z " fill="#3C3CFF" transform="translate(270,358)"/>
</g>
<g class="f f26">
<path d="M0 0 C12.79 10.4 17.78 26.25 19.57 42.16 C20.32 51.16 20.1 60.24 20.07 69.26 C20.07 70.43 20.07 71.61 20.06 72.81 C19.9 136.27 12.93 206.9 -11.8 265.82 C-12.16 266.67 -12.51 267.52 -12.87 268.39 C-15.32 274 -18.4 278.63 -22.24 283.39 C-23.17 284.62 -23.17 284.62 -24.12 285.89 C-26.72 287.73 -28.91 288.28 -32.11 288.05 C-38.33 286.12 -41.52 279.84 -44.46 274.44 C-69.44 225.91 -75.63 163.1 -79.24 109.39 C-79.3 108.59 -79.36 107.78 -79.42 106.96 C-80.25 95.04 -80.36 83.11 -80.42 71.17 C-80.43 69.47 -80.44 67.76 -80.45 66.06 C-80.61 44.66 -79.53 21.62 -64.87 4.64 C-63.57 3.52 -63.57 3.52 -62.24 2.39 C-61.68 1.9 -61.12 1.4 -60.54 0.9 C-44.03 -12.62 -17.09 -12.29 0 0 Z " fill="#3C3CFF" transform="translate(270.2421875,35.61328125)"/>
<path d="M0 0 C11.66 8.21 19.69 20.07 22.52 34.18 C24.88 50.3 20.98 64.57 11.55 77.9 C3.18 88.18 -9.69 95.39 -22.91 96.78 C-39.23 97.64 -52.5 94 -65.48 83.8 C-76.26 74.04 -81.6 60.54 -83.01 46.36 C-83.64 32.3 -78.26 18.97 -69.48 8.18 C-51.31 -11.09 -22.08 -14.34 0 0 Z " fill="#3C3CFF" transform="translate(269.79296875,357.4453125)"/>
</g>
<g class="f f27">
<path d="M0 0 C13.06 10.46 17.45 26.41 19.59 42.35 C20.52 51.19 20.28 60.13 20.23 69.01 C20.23 70.05 20.22 71.09 20.22 72.16 C20.16 89.7 19.64 107.1 17.98 124.57 C17.92 125.24 17.85 125.91 17.79 126.6 C5.51 255.38 5.51 255.38 -23.95 285.96 C-26.08 287.62 -27.35 288.35 -30.02 288.7 C-34.68 288.08 -37.18 285.11 -39.96 281.54 C-46.49 272.14 -50.5 261.32 -54.02 250.51 C-54.23 249.87 -54.44 249.23 -54.66 248.57 C-68.85 205.18 -76.08 158.1 -79.02 112.57 C-79.06 111.95 -79.1 111.33 -79.14 110.68 C-79.96 98.06 -80.21 85.47 -80.2 72.83 C-80.21 69.75 -80.23 66.67 -80.24 63.58 C-80.31 42.62 -79.17 19.67 -64.07 3.49 C-47.32 -12.08 -18.53 -13.08 0 0 Z " fill="#3C3CFF" transform="translate(270.01953125,35.42578125)"/>
<path d="M0 0 C10.03 9.13 16.39 21.95 17.21 35.46 C17.65 52.24 13.02 65.46 1.42 77.71 C-9.54 88.08 -22.05 92.6 -37 93 C-52.81 92.22 -65.25 86.27 -76.25 74.88 C-86.87 62.24 -90.05 48.19 -89 32 C-86.96 17.73 -79.55 6.12 -68.55 -3.04 C-47.17 -18.81 -19.95 -16.75 0 0 Z " fill="#3C3CFF" transform="translate(276,362)"/>
</g>
<g class="f f28">
<path d="M0 0 C0.71 0.28 1.43 0.56 2.16 0.84 C13.43 5.88 20.29 15.12 24.69 26.38 C29.73 41.8 30.49 57.52 30.31 73.62 C30.3 75.52 30.29 77.41 30.28 79.3 C29.74 143.88 24.11 221.95 -6 280.12 C-6.31 280.73 -6.62 281.33 -6.93 281.96 C-9.38 286.47 -12.17 289.64 -16 293 C-20.79 294.16 -20.79 294.16 -24 293 C-52.45 272.25 -57.03 210.28 -62.04 178.54 C-67.13 145.66 -70.18 112.72 -70.24 79.43 C-70.25 76.01 -70.28 72.58 -70.31 69.15 C-70.41 47.98 -69.31 25.09 -53.93 8.81 C-49.08 4.22 -44.33 1.12 -38 -1 C-37.04 -1.34 -37.04 -1.34 -36.07 -1.68 C-24.85 -4.87 -10.78 -4.22 0 0 Z " fill="#3C3CFF" transform="translate(260,30)"/>
<path d="M0 0 C12.28 9.11 19.83 20.99 22.75 36.04 C24.41 50.79 21.25 64.71 12.75 77.04 C1.92 90.21 -11.43 96.08 -27.93 98.42 C-41.68 99.14 -55.62 93.39 -66 84.75 C-76.69 74.72 -83.11 61.45 -83.72 46.73 C-83.91 31.72 -78.99 17.8 -68.62 6.79 C-49.58 -11.07 -22.17 -14.16 0 0 Z " fill="#3C3CFF" transform="translate(270.25,356.9609375)"/>
</g>
<g class="f f29">
<path d="M0 0 C1.25 0.01 1.25 0.01 2.53 0.01 C8.94 0.13 14.69 0.93 20.69 3.31 C21.4 3.59 22.11 3.87 22.84 4.16 C34.74 9.47 40.71 19.11 45.44 30.81 C50.86 45.63 50.9 60.73 50.88 76.31 C50.87 77.22 50.87 78.12 50.87 79.05 C50.5 248.39 50.5 248.39 7.66 293.69 C4.69 296.31 4.69 296.31 0.81 297.25 C-2.9 296.9 -4.74 295.44 -7.31 292.81 C-40.72 250.6 -44.18 175.67 -48.31 123.31 C-48.41 122.16 -48.5 121.01 -48.6 119.82 C-49.48 107.79 -49.57 95.76 -49.61 83.71 C-49.62 81.28 -49.64 78.86 -49.67 76.44 C-49.94 54.01 -49.56 29.35 -33.56 11.69 C-24.11 3.28 -12.39 -0.09 0 0 Z " fill="#3C3CFF" transform="translate(239.3125,26.6875)"/>
<path d="M0 0 C14.22 -0.5 27.26 3.58 38.23 12.76 C49.43 23.47 56.08 35.56 56.66 51.24 C56.84 67.6 51.78 80.23 40.75 92.39 C32.5 100.29 20.68 106.37 9.18 107.21 C8.25 107.28 7.32 107.34 6.37 107.41 C-7.85 107.91 -20.9 103.83 -31.87 94.66 C-43.06 83.94 -49.71 71.86 -50.29 56.18 C-50.47 39.81 -45.41 27.18 -34.38 15.02 C-25.03 6.07 -12.8 0.94 0 0 Z " fill="#3C3CFF" transform="translate(236.81640625,347.79296875)"/>
</g>
<g class="f f30">
<path d="M0 0 C0.71 0.28 1.43 0.56 2.16 0.84 C14.06 6.16 20.03 15.79 24.75 27.5 C30.24 42.5 30.21 57.79 30.19 73.56 C30.19 74.49 30.19 75.42 30.19 76.37 C30.07 141.88 24.53 221.13 -6 280.12 C-6.31 280.73 -6.62 281.33 -6.93 281.96 C-9.38 286.47 -12.17 289.64 -16 293 C-20.79 294.16 -20.79 294.16 -24 293 C-52.44 272.25 -57.05 210.25 -62.04 178.52 C-67.08 145.81 -70.18 113.12 -70.24 80.01 C-70.25 76.51 -70.28 73.01 -70.31 69.5 C-70.41 48.05 -69.26 25.55 -54.04 8.85 C-40.35 -4.42 -17.46 -6.83 0 0 Z " fill="#3C3CFF" transform="translate(260,30)"/>
<path d="M0 0 C0.67 0.6 1.34 1.19 2.02 1.81 C2.65 2.35 3.28 2.9 3.92 3.46 C13.21 12.08 18.58 23.78 19.41 36.41 C19.99 52.22 16.31 65.06 5.92 77.28 C-3.96 87.74 -16.83 94.17 -31.27 94.93 C-45.9 95.32 -59.06 90.57 -69.98 80.81 C-70.6 80.26 -71.23 79.72 -71.88 79.16 C-81.17 70.54 -86.53 58.83 -87.36 46.21 C-87.95 30.39 -84.27 17.56 -73.88 5.34 C-54.38 -15.3 -22.14 -18.58 0 0 Z " fill="#3C3CFF" transform="translate(273.9765625,360.19140625)"/>
</g>
<g class="f f31">
<path d="M0 0 C0.71 0.28 1.43 0.56 2.16 0.84 C12.27 5.36 19.53 13.65 23.75 23.82 C29.89 40.14 30.35 56.73 30.25 73.94 C30.25 74.9 30.24 75.87 30.24 76.86 C30.18 94.31 29.56 111.62 28 129 C27.94 129.68 27.88 130.37 27.82 131.07 C24.03 173.31 17.22 215.89 3.94 256.25 C3.55 257.43 3.16 258.62 2.76 259.83 C-1.16 271.28 -6.06 285.44 -16 293 C-18.26 293.97 -19.56 294.18 -22 293.86 C-30.98 290.01 -35.48 278.5 -39 270 C-41.6 263.42 -43.84 256.73 -46 250 C-46.25 249.23 -46.5 248.46 -46.76 247.67 C-63.92 194.21 -70.14 135.18 -70.24 79.27 C-70.25 76 -70.28 72.74 -70.31 69.48 C-70.42 47.61 -69.05 25.08 -53.35 8.23 C-39.53 -4.58 -17.17 -6.72 0 0 Z " fill="#3C3CFF" transform="translate(260,30)"/>
<path d="M0 0 C10.86 9.4 18.87 21.3 20.46 35.91 C21.37 51.89 17.55 65.73 7.05 78.02 C-3.97 89.77 -16.71 94.9 -32.57 96.2 C-48.5 95.65 -61.85 89.29 -72.76 77.89 C-82.91 66.65 -86.41 53 -86.07 38.22 C-85.31 23.71 -78 11.74 -67.76 1.89 C-48.25 -14.39 -20.44 -15.64 0 0 Z " fill="#3C3CFF" transform="translate(272.7578125,359.109375)"/>
</g>
<g class="f f32">
<path d="M0 0 C0.71 0.28 1.43 0.56 2.16 0.84 C12.26 5.36 19.57 13.66 23.75 23.83 C29.93 40.43 30.34 56.95 30.25 74.44 C30.25 75.48 30.24 76.52 30.24 77.59 C30.01 137.9 28.35 243.78 -13.97 291.21 C-16.48 293.42 -18.52 293.89 -21.86 293.68 C-27.63 291.84 -30.92 285.92 -33.74 280.91 C-37.84 272.77 -41.18 264.62 -44 255.94 C-44.21 255.3 -44.42 254.66 -44.64 254 C-57.41 214.94 -63.67 173.67 -67.69 132.88 C-67.81 131.67 -67.93 130.46 -68.05 129.22 C-69.64 112.24 -70.19 95.3 -70.19 78.26 C-70.19 75.17 -70.21 72.09 -70.22 69.01 C-70.29 47.97 -69.07 25.3 -54.12 8.95 C-40.05 -4.31 -17.75 -6.95 0 0 Z " fill="#3C3CFF" transform="translate(260,30)"/>
<path d="M0 0 C10.03 9.13 16.39 21.95 17.21 35.46 C17.65 52.24 13.02 65.46 1.42 77.71 C-9.54 88.08 -22.05 92.6 -37 93 C-52.81 92.22 -65.25 86.27 -76.25 74.88 C-86.87 62.24 -90.05 48.19 -89 32 C-86.96 17.73 -79.55 6.12 -68.55 -3.04 C-47.17 -18.81 -19.95 -16.75 0 0 Z " fill="#3C3CFF" transform="translate(276,362)"/>
</g>
<g class="f f33">
<path d="M0 0 C10.31 8.39 15.07 19.61 17.76 32.39 C18.02 33.63 18.02 33.63 18.3 34.9 C20.38 46.11 20.06 57.41 20.01 68.76 C20 69.85 20 70.94 20 72.06 C19.94 89.91 19.48 107.61 17.76 125.39 C17.69 126.04 17.63 126.69 17.57 127.36 C4.57 260 4.57 260 -26.24 287.39 C-29.7 288.14 -31.01 288.42 -34.24 287.39 C-45.12 279.28 -50.13 263.02 -54.18 250.64 C-54.39 250 -54.6 249.37 -54.81 248.71 C-67.91 208.67 -74.44 166.25 -78.24 124.39 C-78.36 123.1 -78.48 121.82 -78.6 120.49 C-79.99 104.35 -80.45 88.23 -80.54 72.04 C-80.55 70.1 -80.56 68.16 -80.58 66.22 C-80.78 44.25 -79.61 20.57 -64.24 3.39 C-47.92 -12.63 -18.14 -13.05 0 0 Z " fill="#3C3CFF" transform="translate(270.2421875,35.61328125)"/>
<path d="M0 0 C10.66 8.38 17.2 21.72 19 35 C20.08 51.06 15.93 65.34 5.5 77.75 C-0.23 83.73 -6.59 87.48 -14 91 C-14.8 91.38 -15.59 91.76 -16.41 92.16 C-27.22 96.28 -42.66 95.59 -53.26 91.33 C-69.36 83.52 -79.3 73.77 -85.27 56.61 C-89.36 41.93 -86.94 27.24 -79.84 13.95 C-73.28 3.43 -64.96 -2.79 -54 -8 C-53.2 -8.38 -52.41 -8.76 -51.59 -9.16 C-34.16 -15.81 -14.65 -10.03 0 0 Z " fill="#3C3CFF" transform="translate(274,360)"/>
</g>
<g class="f f34">
<path d="M0 0 C10.31 8.39 15.07 19.61 17.76 32.39 C18.02 33.62 18.02 33.62 18.3 34.88 C20.42 46.27 20.06 57.78 20.01 69.32 C20 70.44 20 71.55 20 72.7 C19.94 90.34 19.52 107.82 17.76 125.39 C17.63 126.69 17.5 128 17.37 129.34 C4.16 260.43 4.16 260.43 -26.24 287.39 C-29.7 288.14 -31.01 288.42 -34.24 287.39 C-45.12 279.28 -50.13 263.02 -54.18 250.64 C-54.39 250 -54.6 249.37 -54.81 248.71 C-68.02 208.33 -74.49 165.61 -78.24 123.39 C-78.42 121.43 -78.42 121.43 -78.6 119.43 C-79.96 103.45 -80.44 87.5 -80.54 71.47 C-80.55 69.58 -80.56 67.68 -80.58 65.79 C-80.78 43.97 -79.5 20.44 -64.24 3.39 C-47.92 -12.63 -18.14 -13.05 0 0 Z " fill="#3C3CFF" transform="translate(270.2421875,35.61328125)"/>
<path d="M0 0 C12.65 8.13 20.75 18.68 24.81 33.25 C27.86 48.57 25 63.01 16.81 76.25 C8.5 87.57 -3.45 95.23 -17.19 98.25 C-35.33 99.78 -49.67 96.29 -63.88 84.56 C-73.78 75.36 -79.48 62.68 -80.39 49.24 C-80.63 33.26 -75.84 19.18 -64.67 7.5 C-46.61 -8.89 -21.21 -11.85 0 0 Z " fill="#3C3CFF" transform="translate(267.1875,355.75)"/>
</g>
<g class="f f35">
<path d="M0 0 C10.31 8.39 15.07 19.61 17.76 32.39 C18.02 33.62 18.02 33.62 18.3 34.88 C20.42 46.27 20.06 57.78 20.01 69.32 C20 70.44 20 71.55 20 72.7 C19.94 90.34 19.52 107.82 17.76 125.39 C17.63 126.69 17.5 128 17.37 129.34 C4.17 260.36 4.17 260.36 -26.24 287.39 C-29.7 288.14 -31.01 288.42 -34.24 287.39 C-45.12 279.28 -50.13 263.02 -54.18 250.64 C-54.39 250 -54.6 249.37 -54.81 248.71 C-68.02 208.33 -74.49 165.61 -78.24 123.39 C-78.42 121.43 -78.42 121.43 -78.6 119.43 C-79.96 103.45 -80.44 87.5 -80.54 71.47 C-80.55 69.58 -80.56 67.68 -80.58 65.79 C-80.78 43.97 -79.5 20.44 -64.24 3.39 C-47.92 -12.63 -18.14 -13.05 0 0 Z " fill="#3C3CFF" transform="translate(270.2421875,35.61328125)"/>
<path d="M0 0 C12.65 8.13 20.75 18.68 24.81 33.25 C27.86 48.57 25 63.01 16.81 76.25 C8.5 87.57 -3.45 95.23 -17.19 98.25 C-35.33 99.78 -49.67 96.29 -63.88 84.56 C-73.78 75.36 -79.48 62.68 -80.39 49.24 C-80.63 33.26 -75.84 19.18 -64.67 7.5 C-46.61 -8.89 -21.21 -11.85 0 0 Z " fill="#3C3CFF" transform="translate(267.1875,355.75)"/>
</g>
<g class="f f36">
<path d="M0 0 C13.34 10.69 17.53 26.67 19.7 42.89 C20.62 51.66 20.37 60.52 20.29 69.32 C20.29 70.4 20.28 71.48 20.28 72.59 C20.19 89.99 19.68 107.25 17.98 124.57 C17.92 125.23 17.85 125.89 17.79 126.57 C5.37 255.52 5.37 255.52 -23.95 285.96 C-26.08 287.62 -27.35 288.35 -30.02 288.7 C-34.68 288.08 -37.18 285.11 -39.96 281.54 C-46.42 272.24 -50.46 261.51 -53.96 250.82 C-54.17 250.19 -54.37 249.56 -54.59 248.9 C-67.69 208.86 -74.21 166.44 -78.02 124.57 C-78.14 123.29 -78.25 122.02 -78.37 120.7 C-79.87 103.38 -80.24 86.08 -80.33 68.7 C-80.34 67.73 -80.35 66.76 -80.36 65.76 C-80.55 43.98 -79.31 20.59 -64.02 3.57 C-47.4 -12.16 -18.42 -13.01 0 0 Z " fill="#3C3CFF" transform="translate(270.01953125,35.42578125)"/>
<path d="M0 0 C1.33 0.6 1.33 0.6 2.68 1.22 C17.04 8.39 26.1 19.42 31.27 34.49 C35.54 49.23 32.89 63.64 25.86 77.01 C17.94 89.78 6.43 97.43 -7.86 101.53 C-17.72 103.68 -30.84 103.26 -40 99 C-41.33 98.4 -41.33 98.4 -42.68 97.78 C-57.04 90.61 -66.1 79.58 -71.27 64.51 C-75.54 49.77 -72.89 35.36 -65.86 21.99 C-57.94 9.22 -46.43 1.57 -32.14 -2.53 C-22.28 -4.68 -9.16 -4.26 0 0 Z " fill="#3C3CFF" transform="translate(260,352)"/>
</g>
<g class="f f37">
<path d="M0 0 C13.06 10.46 17.45 26.41 19.59 42.35 C20.52 51.19 20.28 60.13 20.23 69.01 C20.23 70.05 20.22 71.09 20.22 72.16 C20.16 89.7 19.64 107.1 17.98 124.57 C17.92 125.24 17.85 125.91 17.79 126.6 C5.51 255.38 5.51 255.38 -23.95 285.96 C-26.08 287.62 -27.35 288.35 -30.02 288.7 C-34.68 288.08 -37.18 285.11 -39.96 281.54 C-46.49 272.14 -50.5 261.32 -54.02 250.51 C-54.23 249.87 -54.44 249.23 -54.66 248.57 C-68.85 205.18 -76.08 158.1 -79.02 112.57 C-79.06 111.95 -79.1 111.33 -79.14 110.68 C-79.96 98.06 -80.21 85.47 -80.2 72.83 C-80.21 69.75 -80.23 66.67 -80.24 63.58 C-80.31 42.62 -79.17 19.67 -64.07 3.49 C-47.32 -12.08 -18.53 -13.08 0 0 Z " fill="#3C3CFF" transform="translate(270.01953125,35.42578125)"/>
<path d="M0 0 C10.03 9.13 16.39 21.95 17.21 35.46 C17.65 52.24 13.02 65.46 1.42 77.71 C-9.77 88.31 -22.7 92.89 -38 93 C-53.22 92.14 -66.3 85.73 -76.65 74.59 C-87.03 62.35 -90.21 47.78 -89 32 C-86.93 17.73 -79.56 6.13 -68.55 -3.04 C-47.16 -18.82 -19.94 -16.74 0 0 Z " fill="#3C3CFF" transform="translate(276,362)"/>
</g>
<g class="f f38">
<path d="M0 0 C12.9 11.99 17.25 30.31 18.05 47.37 C18.24 54.04 18.22 60.71 18.19 67.38 C18.18 68.42 18.18 69.46 18.18 70.53 C17.94 130.84 16.28 236.72 -26.04 284.15 C-28.54 286.36 -30.58 286.83 -33.92 286.62 C-39.7 284.78 -42.98 278.86 -45.8 273.84 C-49.9 265.7 -53.24 257.56 -56.06 248.88 C-56.27 248.24 -56.48 247.6 -56.7 246.94 C-70.89 203.54 -78.12 156.47 -81.06 110.94 C-81.1 110.31 -81.15 109.69 -81.19 109.05 C-82 96.43 -82.25 83.84 -82.25 71.19 C-82.25 68.11 -82.27 65.03 -82.29 61.95 C-82.35 40.91 -81.14 18.24 -66.19 1.89 C-48.82 -14.46 -18.45 -14.78 0 0 Z " fill="#3C3CFF" transform="translate(272.0625,37.0625)"/>
<path d="M0 0 C10.03 9.13 16.39 21.95 17.21 35.46 C17.65 52.24 13.02 65.46 1.42 77.71 C-9.77 88.31 -22.7 92.89 -38 93 C-53.22 92.14 -66.3 85.73 -76.65 74.59 C-87.03 62.35 -90.21 47.78 -89 32 C-86.93 17.73 -79.56 6.13 -68.55 -3.04 C-47.16 -18.82 -19.94 -16.74 0 0 Z " fill="#3C3CFF" transform="translate(276,362)"/>
</g>
<g class="f f39">
<path d="M0 0 C12.9 11.99 17.25 30.31 18.05 47.37 C18.24 54.04 18.22 60.71 18.19 67.38 C18.18 68.42 18.18 69.46 18.18 70.53 C17.94 130.84 16.28 236.72 -26.04 284.15 C-28.54 286.36 -30.58 286.83 -33.92 286.62 C-39.7 284.78 -42.98 278.86 -45.8 273.84 C-49.9 265.7 -53.24 257.56 -56.06 248.88 C-56.27 248.24 -56.48 247.6 -56.7 246.94 C-70.89 203.54 -78.12 156.47 -81.06 110.94 C-81.1 110.31 -81.15 109.69 -81.19 109.05 C-82 96.43 -82.25 83.84 -82.25 71.19 C-82.25 68.11 -82.27 65.03 -82.29 61.95 C-82.35 40.91 -81.14 18.24 -66.19 1.89 C-48.82 -14.46 -18.45 -14.78 0 0 Z " fill="#3C3CFF" transform="translate(272.0625,37.0625)"/>
<path d="M0 0 C10 10.31 14.73 23.16 15.1 37.29 C14.84 52.54 9.71 64.65 -0.81 75.69 C-11.68 86.03 -25.16 91.3 -40.21 90.98 C-55.63 89.79 -67.68 84.03 -78.46 72.85 C-89.08 60.22 -92.27 46.16 -91.21 29.98 C-89.03 14.77 -80.66 2.39 -68.52 -6.84 C-46.16 -21.57 -19.3 -17.66 0 0 Z " fill="#3C3CFF" transform="translate(278.2109375,364.0234375)"/>
</g>
<g class="f f40">
<path d="M0 0 C12.9 11.99 17.25 30.31 18.05 47.37 C18.24 54.04 18.22 60.71 18.19 67.38 C18.18 68.42 18.18 69.46 18.18 70.53 C17.94 130.84 16.28 236.72 -26.04 284.15 C-28.54 286.36 -30.58 286.83 -33.92 286.62 C-39.7 284.78 -42.98 278.86 -45.8 273.84 C-49.9 265.7 -53.24 257.56 -56.06 248.88 C-56.27 248.24 -56.48 247.6 -56.7 246.94 C-70.89 203.54 -78.12 156.47 -81.06 110.94 C-81.1 110.31 -81.15 109.69 -81.19 109.05 C-82 96.43 -82.25 83.84 -82.25 71.19 C-82.25 68.11 -82.27 65.03 -82.29 61.95 C-82.35 40.91 -81.14 18.24 -66.19 1.89 C-48.82 -14.46 -18.45 -14.78 0 0 Z " fill="#3C3CFF" transform="translate(272.0625,37.0625)"/>
<path d="M0 0 C9.56 8.98 16.15 21.72 16.98 34.87 C17.42 51.77 12.86 65.33 1.2 77.76 C-9.37 87.93 -22.06 93.01 -36.71 93.16 C-52.3 92.45 -65.7 86.72 -76.48 75.28 C-87.14 62.32 -90.65 47.58 -89.25 31.12 C-86.36 16.27 -78.5 4.21 -66.32 -4.75 C-45.18 -18.6 -19.17 -15.98 0 0 Z " fill="#3C3CFF" transform="translate(276.25390625,361.87890625)"/>
</g>
<g class="f f41">
<path d="M0 0 C0.71 0.28 1.43 0.56 2.16 0.84 C12.26 5.36 19.57 13.66 23.75 23.83 C29.93 40.43 30.34 56.95 30.25 74.44 C30.25 75.48 30.24 76.52 30.24 77.59 C30.01 137.9 28.35 243.78 -13.97 291.21 C-16.48 293.42 -18.52 293.89 -21.86 293.68 C-27.63 291.84 -30.92 285.92 -33.74 280.91 C-37.84 272.77 -41.18 264.62 -44 255.94 C-44.21 255.3 -44.42 254.66 -44.64 254 C-58.83 210.6 -66.06 163.53 -69 118 C-69.04 117.38 -69.08 116.75 -69.13 116.11 C-69.94 103.49 -70.19 90.9 -70.19 78.26 C-70.19 75.17 -70.21 72.09 -70.22 69.01 C-70.29 47.97 -69.07 25.3 -54.12 8.95 C-40.05 -4.31 -17.75 -6.95 0 0 Z " fill="#3C3CFF" transform="translate(260,30)"/>
<path d="M0 0 C12.28 9.11 19.83 20.99 22.75 36.04 C24.41 50.79 21.25 64.71 12.75 77.04 C1.92 90.21 -11.43 96.08 -27.93 98.42 C-41.68 99.14 -55.62 93.39 -66 84.75 C-76.69 74.72 -83.11 61.45 -83.72 46.73 C-83.91 31.72 -78.99 17.8 -68.62 6.79 C-49.58 -11.07 -22.17 -14.16 0 0 Z " fill="#3C3CFF" transform="translate(270.25,356.9609375)"/>
</g>
<g class="f f42">
<path d="M0 0 C13.1 11.79 17.59 29 19 46 C19.14 49.36 19.16 52.71 19.17 56.07 C19.17 57.02 19.18 57.96 19.18 58.94 C19.19 62 19.19 65.06 19.19 68.12 C19.19 69.18 19.19 70.23 19.19 71.31 C19.16 88.96 18.67 106.43 17 124 C16.94 124.67 16.87 125.34 16.81 126.03 C4.53 254.8 4.53 254.8 -24.93 285.38 C-27.06 287.05 -28.33 287.78 -31 288.12 C-35.66 287.51 -38.16 284.53 -40.94 280.96 C-47.47 271.56 -51.48 260.75 -55 249.94 C-55.21 249.3 -55.42 248.66 -55.64 248 C-68.41 208.94 -74.67 167.67 -78.69 126.88 C-78.81 125.67 -78.93 124.46 -79.05 123.22 C-80.63 106.34 -81.21 89.48 -81.24 72.53 C-81.25 69.5 -81.28 66.48 -81.31 63.45 C-81.43 41.21 -79.78 19.25 -64.2 2 C-48.11 -13.52 -17.27 -13.3 0 0 Z " fill="#3C3CFF" transform="translate(271,36)"/>
<path d="M0 0 C9.74 9.08 16.9 22.2 17.49 35.56 C17.89 52.98 13.78 65.98 2.25 79.38 C-11.17 90.86 -25.25 95.57 -42.75 94.38 C-55.92 92.56 -68.81 85.98 -77.03 75.46 C-87.32 61.48 -90.02 48.48 -88.75 31.38 C-86.24 16.84 -77.65 4.7 -65.75 -3.7 C-44.64 -17.26 -19.85 -15.17 0 0 Z " fill="#3C3CFF" transform="translate(275.75,360.625)"/>
</g>
<g class="f f43">
<path d="M0 0 C13.51 12.6 19.15 28.84 19.98 47.15 C20.03 49.86 20.06 52.56 20.07 55.27 C20.08 56.29 20.08 57.3 20.09 58.34 C20.11 61.64 20.12 64.94 20.12 68.24 C20.12 69.38 20.12 70.51 20.12 71.68 C20.06 136.6 14.38 215.59 -15.7 274.3 C-16.03 274.98 -16.37 275.65 -16.72 276.34 C-19.32 281.11 -22.61 284.7 -27.13 287.74 C-30.13 288.49 -30.13 288.49 -33.13 287.74 C-38.17 284.31 -41.67 280.15 -44.45 274.74 C-44.82 274.03 -45.19 273.31 -45.57 272.58 C-74.97 212.79 -80.25 134.41 -80.51 68.8 C-80.52 67.72 -80.52 66.65 -80.53 65.53 C-80.66 43.18 -79.43 19.71 -63.38 2.43 C-47.69 -12.43 -16.82 -14.03 0 0 Z " fill="#3C3CFF" transform="translate(270.1328125,35.2578125)"/>
<path d="M0 0 C11.65 9.8 18.51 23.09 19.89 38.19 C20.58 53.88 15.96 67.4 5.77 79.44 C-4.1 89.51 -17.32 95.84 -31.49 96.12 C-47.71 96.19 -61.49 91.18 -73.38 79.79 C-84.51 67.07 -88.41 52.53 -87.81 35.81 C-86.31 22.66 -78.78 9.52 -68.92 0.88 C-48.15 -15.08 -21.18 -15.37 0 0 Z " fill="#3C3CFF" transform="translate(273.921875,359.12109375)"/>
</g>
<g class="f f44">
<path d="M0 0 C0.94 -0.02 1.89 -0.04 2.86 -0.06 C14.77 -0.13 25.41 3.62 34.38 11.56 C47.71 25.69 50.44 45.92 50.52 64.51 C50.52 65.59 50.53 66.68 50.54 67.79 C50.55 71.32 50.56 74.85 50.56 78.38 C50.56 79.58 50.56 80.79 50.56 82.04 C50.55 103.25 49.67 124.17 47.31 145.25 C47.19 146.4 47.19 146.4 47.06 147.58 C42.04 192.67 35.65 243.02 14.75 283.81 C14.41 284.49 14.07 285.16 13.72 285.85 C11.12 290.62 7.83 294.21 3.31 297.25 C0.31 298 0.31 298 -2.69 297.25 C-7.72 293.82 -11.22 289.66 -14 284.25 C-14.37 283.53 -14.74 282.82 -15.12 282.08 C-35.54 240.56 -41.6 190.78 -46.69 145.25 C-46.77 144.5 -46.86 143.75 -46.94 142.97 C-49.31 121.64 -49.98 100.39 -50.06 78.94 C-50.07 77.2 -50.07 77.2 -50.09 75.44 C-50.21 52.59 -49.26 28.9 -33.12 11 C-23.77 2.1 -12.34 0.07 0 0 Z " fill="#3C3CFF" transform="translate(239.6875,25.75)"/>
<path d="M0 0 C13.09 8.95 21.04 20.83 24.84 36.2 C27.11 50.69 24.45 64.63 16.25 76.81 C6.92 88.8 -3.74 96.53 -18.75 99.81 C-35.18 101.21 -49.4 99.1 -62.75 88.81 C-73.42 79.74 -80.56 67.76 -82.75 53.81 C-83.76 37.18 -80.52 23.37 -69.44 10.56 C-51.18 -8.61 -23.27 -13.8 0 0 Z " fill="#3C3CFF" transform="translate(268.75,355.1875)"/>
</g>
</svg>
