<?xml version="1.0" encoding="UTF-8"?>
<!-- Generator: https://ezgif.com - animated SVG -->
<svg xmlns="http://www.w3.org/2000/svg" width="1107" height="1107" viewBox="0 0 1107 1107">
<style>
.f{visibility:hidden}
.f0{animation:f0 1s step-end infinite}
.f1{animation:f1 1s step-end infinite}
@keyframes f0{0%{visibility:hidden}0.0000%{visibility:visible}50.0000%{visibility:hidden}100%{visibility:hidden}}
@keyframes f1{0%{visibility:hidden}50.0000%{visibility:visible}100.0000%{visibility:hidden}100%{visibility:hidden}}
</style>
<g class="f f0">
<path d="M0 0 C365.31 0 730.62 0 1107 0 C1107 365.31 1107 730.62 1107 1107 C741.69 1107 376.38 1107 0 1107 C0 741.69 0 376.38 0 0 Z " fill="#F1F2F4" transform="translate(0,0)"/>
<path d="M0 0 C1.38 -0.01 1.38 -0.01 2.79 -0.02 C5.87 -0.04 8.95 -0.03 12.04 -0.02 C14.25 -0.03 16.46 -0.03 18.67 -0.04 C24.67 -0.07 30.67 -0.06 36.67 -0.06 C41.68 -0.05 46.69 -0.06 51.7 -0.07 C64.18 -0.08 76.67 -0.08 89.15 -0.06 C100 -0.04 110.84 -0.06 121.69 -0.09 C132.82 -0.12 143.96 -0.13 155.1 -0.12 C161.35 -0.11 167.6 -0.12 173.85 -0.14 C179.73 -0.15 185.61 -0.15 191.48 -0.12 C193.64 -0.12 195.8 -0.12 197.96 -0.14 C200.9 -0.15 203.84 -0.14 206.78 -0.11 C208.07 -0.13 208.07 -0.13 209.39 -0.15 C215.17 -0.06 215.17 -0.06 218.23 2.9 C218.73 3.76 219.24 4.62 219.76 5.51 C220.29 6.35 220.81 7.19 221.36 8.06 C221.87 8.95 222.38 9.85 222.91 10.78 C223.5 11.8 224.08 12.82 224.69 13.88 C225.31 14.98 225.93 16.07 226.58 17.2 C227.58 18.95 228.58 20.69 229.57 22.44 C230.61 24.25 231.65 26.06 232.68 27.88 C235.35 32.55 238.04 37.21 240.72 41.87 C241.99 44.08 243.26 46.29 244.52 48.49 C247.18 53.12 249.85 57.71 252.74 62.2 C253.39 63.22 253.39 63.22 254.05 64.26 C255.16 65.97 256.29 67.67 257.42 69.37 C260.17 75.8 257.25 82.72 255.03 89 C254.61 90.2 254.61 90.2 254.19 91.42 C253.59 93.14 252.99 94.86 252.39 96.57 C251.1 100.26 249.83 103.96 248.55 107.65 C247.9 109.55 247.24 111.45 246.58 113.34 C240.31 131.46 234.31 149.67 228.37 167.9 C214.89 209.28 201.16 250.58 187.41 291.87 C183.34 304.08 179.28 316.29 175.23 328.5 C172.33 337.21 169.43 345.92 166.53 354.63 C164.81 359.79 163.1 364.95 161.38 370.11 C159.79 374.92 158.19 379.72 156.58 384.53 C156 386.28 155.41 388.04 154.83 389.8 C154.04 392.2 153.24 394.6 152.43 396.99 C152.09 398.04 152.09 398.04 151.74 399.1 C149.89 404.6 148.45 408.8 143.3 411.79 C138.04 414.17 132.91 414.07 127.22 414.03 C126.07 414.04 124.93 414.04 123.75 414.05 C119.92 414.07 116.09 414.06 112.26 414.05 C109.51 414.05 106.77 414.06 104.02 414.07 C97.33 414.1 90.65 414.1 83.97 414.09 C78.53 414.08 73.1 414.08 67.67 414.09 C66.89 414.09 66.12 414.09 65.32 414.09 C63.75 414.09 62.18 414.1 60.6 414.1 C45.87 414.11 31.13 414.11 16.4 414.09 C2.92 414.07 -10.56 414.09 -24.04 414.12 C-37.88 414.15 -51.73 414.16 -65.57 414.15 C-67.14 414.15 -68.71 414.15 -70.27 414.14 C-71.43 414.14 -71.43 414.14 -72.61 414.14 C-78.03 414.14 -83.46 414.15 -88.89 414.17 C-95.5 414.18 -102.11 414.18 -108.73 414.16 C-112.1 414.15 -115.47 414.15 -118.84 414.16 C-122.5 414.18 -126.16 414.17 -129.82 414.14 C-130.88 414.15 -131.95 414.17 -133.04 414.18 C-139.76 414.09 -143.24 413.1 -148.24 408.51 C-151.49 402.95 -152.2 397.48 -150.69 391.26 C-149.91 388.79 -149.06 386.36 -148.17 383.92 C-147.85 383.02 -147.53 382.12 -147.2 381.19 C-146.18 378.31 -145.15 375.45 -144.11 372.58 C-143.44 370.69 -142.77 368.8 -142.1 366.9 C-140.77 363.18 -139.45 359.47 -138.11 355.75 C-133.31 342.36 -128.64 328.92 -124.05 315.45 C-123.45 313.7 -122.85 311.95 -122.25 310.19 C-118.7 299.77 -115.16 289.34 -111.63 278.9 C-104.1 256.66 -96.55 234.43 -88.78 212.27 C-83.43 197.03 -78.22 181.75 -73.05 166.45 C-68.11 151.86 -63.15 137.28 -57.99 122.76 C-53.78 110.94 -49.66 99.08 -45.61 87.2 C-45.33 86.37 -45.05 85.54 -44.75 84.69 C-41.38 74.82 -38.04 64.94 -34.74 55.05 C-33.12 50.21 -31.5 45.37 -29.87 40.53 C-29.08 38.16 -28.29 35.79 -27.51 33.43 C-26.4 30.1 -25.29 26.77 -24.17 23.45 C-23.85 22.46 -23.52 21.47 -23.19 20.45 C-18.96 7.99 -14.16 -0.14 0 0 Z " fill="#CEE9FE" transform="translate(631.2364807128906,542.4853363037109)"/>
<path d="M0 0 C6.05 5.02 10.86 10.4 11.78 18.42 C11.9 24.35 11.48 29.64 9.41 35.2 C10.24 35.24 11.06 35.29 11.91 35.33 C16.9 36.57 20.79 39.58 24.41 43.2 C24.43 44.62 24.38 46.04 24.29 47.46 C24.24 48.31 24.2 49.17 24.15 50.04 C24.09 50.94 24.03 51.84 23.98 52.77 C23.92 53.67 23.87 54.57 23.82 55.5 C23.69 57.73 23.55 59.97 23.41 62.2 C24.1 62.41 24.79 62.61 25.5 62.82 C26.4 63.09 27.3 63.36 28.23 63.64 C29.12 63.91 30.01 64.17 30.93 64.45 C32.77 65.01 34.59 65.6 36.41 66.2 C36.6 65.54 36.79 64.88 36.98 64.2 C39.85 58.2 44.91 52.92 50.41 49.2 C57.81 46.75 66.93 47 73.91 50.39 C75.44 51.29 76.94 52.22 78.41 53.2 C80.05 54.29 80.05 54.29 81.73 55.39 C86.84 60.74 89.68 66.43 90.04 73.89 C89.75 81.4 87.07 88.25 84.41 95.2 C83.75 95.2 83.09 95.2 82.41 95.2 C82.26 95.88 82.1 96.56 81.93 97.26 C80.43 103.26 78.45 108.44 75.55 113.9 C74.05 116.94 73.2 119.91 72.41 123.2 C71.75 123.2 71.09 123.2 70.41 123.2 C70.26 123.88 70.1 124.56 69.93 125.26 C68.42 131.29 66.47 136.55 63.5 142.01 C62.47 144.08 61.88 145.94 61.41 148.2 C60.75 148.2 60.09 148.2 59.41 148.2 C59.21 148.76 59 149.32 58.79 149.89 C55.27 155.81 48.89 159.34 42.41 161.2 C34.04 162.42 27.35 161.09 20.41 156.2 C14.38 151.08 10.96 144 10.07 136.18 C9.88 129.82 10.75 124.97 13.41 119.2 C8.3 117.43 4.76 116.6 -0.59 118.2 C-4.42 120.66 -7.99 123.41 -11.59 126.2 C-15.38 128.73 -17.07 128.57 -21.59 128.2 C-24.65 127.36 -27.62 126.33 -30.59 125.2 C-30.69 125.86 -30.79 126.52 -30.9 127.2 C-31.58 130.16 -32.54 132.89 -33.64 135.71 C-34.36 137.6 -35.03 139.5 -35.68 141.41 C-38.05 148.32 -40.74 154.78 -44.11 161.26 C-48.28 169.57 -51.65 178.38 -54.59 187.2 C-55.25 187.2 -55.91 187.2 -56.59 187.2 C-56.7 187.75 -56.81 188.29 -56.92 188.86 C-58.1 194.46 -59.67 199.81 -61.59 205.2 C-60.55 205.39 -59.52 205.57 -58.46 205.77 C-53.74 207.08 -51.33 210.31 -48.59 214.2 C-46.52 218.34 -47 223.3 -48.34 227.63 C-49 229.26 -49.69 230.88 -50.41 232.48 C-54.65 242.28 -57.81 252.6 -61.23 262.71 C-63.14 268.27 -65.17 273.67 -67.63 279.02 C-69.39 283.03 -70.78 287.18 -72.21 291.33 C-72.51 292.18 -72.81 293.04 -73.12 293.92 C-74.76 298.65 -76.21 303.39 -77.59 308.2 C-78.2 309.86 -78.85 311.51 -79.52 313.14 C-83.53 322.85 -86.87 332.78 -90.25 342.72 C-90.9 344.64 -91.56 346.55 -92.21 348.46 C-92.6 349.58 -92.98 350.71 -93.38 351.87 C-94.22 354.19 -95.14 356.49 -96.11 358.76 C-97.43 361.84 -98.54 364.88 -99.56 368.07 C-99.9 369.12 -100.24 370.17 -100.6 371.25 C-101.3 373.45 -102.01 375.64 -102.71 377.84 C-103.05 378.88 -103.39 379.93 -103.75 381 C-104.05 381.95 -104.36 382.9 -104.67 383.88 C-105.59 386.2 -105.59 386.2 -107.59 388.2 C-108.47 390.74 -109.27 393.25 -110.02 395.83 C-111.47 400.69 -113.01 405.46 -114.82 410.19 C-116.14 413.65 -117.36 417.15 -118.59 420.64 C-118.85 421.38 -119.11 422.12 -119.38 422.88 C-121.17 427.97 -122.91 433.07 -124.59 438.2 C-125.25 438.2 -125.91 438.2 -126.59 438.2 C-126.79 439.15 -126.79 439.15 -127 440.12 C-130.1 453.59 -134.87 466.77 -140.45 479.4 C-142.02 483.27 -143.29 487.23 -144.59 491.2 C-145.89 495.18 -147.21 499.16 -148.52 503.14 C-149.03 504.67 -149.03 504.67 -149.54 506.23 C-151.41 511.89 -153.44 517.44 -155.7 522.96 C-156.91 526.02 -157.89 529.14 -158.9 532.27 C-162.84 543.3 -169.14 549.98 -179.59 555.2 C-189.44 555.91 -197.5 555.37 -206.59 551.2 C-208.86 550.24 -211.13 549.29 -213.4 548.33 C-215.05 547.61 -216.7 546.89 -218.35 546.17 C-221.26 544.91 -224.18 543.66 -227.09 542.41 C-228.32 541.89 -229.55 541.36 -230.78 540.84 C-231.72 540.43 -231.72 540.43 -232.68 540.02 C-233.62 539.62 -233.62 539.62 -234.59 539.2 C-235.21 538.94 -235.82 538.67 -236.46 538.4 C-240.24 536.78 -244.02 535.15 -247.8 533.53 C-249.08 532.98 -250.35 532.43 -251.63 531.88 C-279.7 519.86 -279.7 519.86 -286.59 507.2 C-289.4 498.76 -287.97 489.6 -284.75 481.51 C-283.59 479.2 -283.59 479.2 -282.14 477.46 C-280.61 475.23 -279.97 473.54 -279.18 470.98 C-277.68 466.24 -275.56 462.1 -273.15 457.77 C-270.21 452.38 -267.61 447.09 -265.48 441.33 C-264.53 439.08 -263.37 437.18 -262.02 435.14 C-260.3 432.52 -259.16 430.21 -258.27 427.2 C-256.7 422.02 -254.24 417.32 -251.78 412.51 C-248.77 406.61 -245.97 400.63 -243.23 394.61 C-241.59 391.2 -241.59 391.2 -239.7 388.02 C-237.34 383.99 -235.68 379.71 -233.92 375.4 C-231.72 370.13 -229.21 365.02 -226.71 359.89 C-225.65 357.69 -224.59 355.5 -223.52 353.3 C-223.02 352.25 -222.51 351.2 -221.99 350.12 C-220.2 346.39 -218.45 342.65 -216.71 338.89 C-209.35 323.04 -209.35 323.04 -206.04 317.72 C-204 314.19 -202.85 310.48 -201.55 306.63 C-200.59 304.2 -200.59 304.2 -198.59 302.2 C-197.88 300.55 -197.23 298.88 -196.59 297.2 C-193.24 289.28 -189.35 281.64 -185.45 273.98 C-183.44 269.99 -181.57 265.96 -179.78 261.88 C-169.13 237.99 -169.13 237.99 -164.03 229.66 C-162.66 227.32 -161.7 225.11 -160.77 222.58 C-159.3 218.77 -157.59 215.26 -155.59 211.7 C-153.18 207.42 -151.27 203.14 -149.52 198.55 C-146.63 191.28 -142.99 182.88 -136.59 178.2 C-130.03 177.19 -123.87 178.31 -117.59 180.2 C-117.39 179.5 -117.2 178.81 -117 178.09 C-116.74 177.18 -116.48 176.27 -116.21 175.33 C-115.96 174.42 -115.7 173.52 -115.44 172.59 C-114.59 170.2 -114.59 170.2 -112.59 168.2 C-111.59 165.71 -110.67 163.23 -109.77 160.7 C-108.09 156.07 -106.4 151.57 -104.09 147.2 C-101.49 142.29 -99.65 137.17 -97.75 131.96 C-96.47 128.46 -95.13 125.07 -93.4 121.77 C-91.63 118.29 -90.47 114.95 -89.31 111.25 C-88.4 108.67 -87.07 106.49 -85.59 104.2 C-85.26 103.21 -84.93 102.22 -84.59 101.2 C-85.31 101.14 -86.03 101.08 -86.77 101.02 C-90.69 99.88 -92.11 98.46 -94.59 95.2 C-95.1 91.91 -94.88 88.71 -94.65 85.39 C-94.1 77 -95.05 71.55 -100.44 64.93 C-101.32 64.1 -101.32 64.1 -102.21 63.27 C-102.8 62.7 -103.39 62.13 -104 61.55 C-105.56 60.12 -105.56 60.12 -107.59 59.2 C-107.59 58.54 -107.59 57.88 -107.59 57.2 C-110.58 56.19 -113.58 55.19 -116.59 54.2 C-117.55 53.88 -118.52 53.55 -119.52 53.22 C-126.84 50.84 -134.09 49.23 -141.66 47.91 C-143.64 47.56 -145.61 47.2 -147.55 46.69 C-156.01 44.48 -164.68 44.85 -173.37 44.81 C-174.62 44.79 -175.88 44.77 -177.17 44.74 C-178.87 44.73 -178.87 44.73 -180.61 44.72 C-184.21 44.1 -185.35 43.02 -187.59 40.2 C-189.24 36.9 -189.32 33.75 -188.59 30.2 C-182.19 19.87 -166.35 11.91 -155.59 7.2 C-154.59 6.76 -153.6 6.32 -152.58 5.87 C-137.2 -0.5 -120.93 -2.98 -104.36 -2.98 C-102.29 -2.98 -100.22 -3 -98.14 -3.02 C-87.96 -3.07 -79.15 -1.76 -69.46 1.33 C-67.79 1.86 -67.79 1.86 -66.08 2.4 C-65.26 2.66 -64.43 2.93 -63.59 3.2 C-63.59 3.86 -63.59 4.52 -63.59 5.2 C-57.62 7.04 -51.66 8.74 -45.59 10.2 C-45.25 9.62 -44.91 9.04 -44.55 8.45 C-40.27 1.54 -35.81 -3.08 -28.21 -6.17 C-17.51 -8.02 -9.05 -6.29 0 0 Z " fill="#0571A9" transform="translate(443.5859375,195.796875)"/>
<path d="M0 0 C4.59 0.63 8.7 1.81 13.06 3.38 C14.25 3.8 15.44 4.22 16.66 4.65 C20 6 20 6 22.52 7.52 C25.44 9.27 28.33 10.24 31.56 11.31 C37.39 13.33 42.71 15.8 48.16 18.64 C51.7 20.34 55.26 21.45 59.04 22.46 C61 23 61 23 63 24 C62.43 28.3 61.37 31.85 59.62 35.81 C56.98 41.99 54.86 48.16 52.92 54.59 C50.66 62.03 48.19 69.29 45.23 76.49 C42.6 82.92 40.29 89.45 38 96 C35.66 102.68 33.28 109.33 30.67 115.91 C26.21 127.2 22.21 138.65 18.25 150.12 C17.26 152.99 16.27 155.85 15.27 158.72 C14.66 160.48 14.05 162.24 13.45 164 C11.03 170.99 8.43 177.91 5.75 184.81 C-0.17 200.2 -5.67 215.71 -11.06 231.29 C-15.03 242.73 -19.01 254.18 -23.33 265.49 C-26.59 274.02 -29.59 282.6 -32.38 291.29 C-33.87 295.89 -35.53 300.35 -37.43 304.79 C-39.25 309.06 -40.84 313.34 -42.28 317.75 C-42.83 319.44 -42.83 319.44 -43.39 321.15 C-44.14 323.46 -44.88 325.77 -45.61 328.08 C-46.16 329.74 -46.16 329.74 -46.72 331.44 C-47.04 332.44 -47.36 333.44 -47.69 334.46 C-49.3 337.58 -50.89 338.48 -54 340 C-54.66 340.33 -55.32 340.66 -56 341 C-60.52 341.33 -63.62 340.63 -67.75 338.81 C-68.8 338.36 -69.84 337.9 -70.92 337.43 C-73.67 336.15 -76.37 334.82 -79.06 333.44 C-83.35 331.24 -87.71 329.55 -92.26 327.99 C-94.89 327.04 -97.44 325.98 -100 324.87 C-102.26 323.89 -104.52 322.94 -106.79 321.98 C-123.1 315.09 -123.1 315.09 -131.06 311.25 C-132.13 310.74 -133.19 310.23 -134.29 309.7 C-137.4 307.75 -139.11 306.17 -141 303 C-141.73 297.53 -140.52 294.36 -137.75 289.69 C-135.13 285.08 -132.94 280.61 -131.08 275.66 C-129.94 272.85 -128.63 270.19 -127.25 267.49 C-124.04 261.13 -121.07 254.67 -118.12 248.19 C-114.79 240.89 -111.43 233.66 -107.56 226.62 C-104.75 221.51 -102.44 216.39 -100.28 210.97 C-98.85 207.65 -97.18 204.54 -95.44 201.38 C-92.91 196.79 -90.76 192.26 -88.91 187.37 C-87.43 183.51 -85.71 179.76 -84 176 C-83.34 176 -82.68 176 -82 176 C-81.91 175.16 -81.82 174.32 -81.72 173.46 C-80.89 169.49 -79.32 166.24 -77.44 162.69 C-76.71 161.27 -75.99 159.86 -75.26 158.45 C-74.89 157.72 -74.52 156.99 -74.13 156.24 C-72.27 152.55 -70.5 148.81 -68.75 145.06 C-68.41 144.34 -68.07 143.62 -67.72 142.88 C-66.05 139.3 -64.43 135.7 -62.88 132.06 C-61.52 128.93 -59.88 126.14 -58.06 123.25 C-55.09 118.45 -53.21 113.52 -51.29 108.23 C-49.66 104.15 -47.58 100.44 -45.41 96.62 C-43.63 93.31 -42.33 89.9 -41 86.4 C-39.67 83.2 -37.96 80.29 -36.22 77.29 C-34.92 74.85 -33.92 72.4 -32.94 69.81 C-31.4 65.79 -29.41 62.57 -27 59 C-26.18 57.05 -25.48 55.08 -24.78 53.08 C-23.14 48.71 -20.99 44.57 -18.5 40.62 C-17.16 38.28 -16.22 36.09 -15.26 33.57 C-12.91 27.64 -10.17 21.92 -7.38 16.19 C-6.4 14.18 -5.43 12.18 -4.46 10.17 C-4.04 9.29 -3.61 8.42 -3.17 7.52 C-2.02 5.04 -0.99 2.54 0 0 Z " fill="#58A9E6" transform="translate(314,393)"/>
<path d="M0 0 C1.38 -0.01 1.38 -0.01 2.79 -0.02 C5.87 -0.04 8.95 -0.03 12.04 -0.02 C14.25 -0.03 16.46 -0.03 18.67 -0.04 C24.67 -0.07 30.67 -0.06 36.67 -0.06 C41.68 -0.05 46.69 -0.06 51.7 -0.07 C64.18 -0.08 76.67 -0.08 89.15 -0.06 C100 -0.04 110.84 -0.06 121.69 -0.09 C132.82 -0.12 143.96 -0.13 155.1 -0.12 C161.35 -0.11 167.6 -0.12 173.85 -0.14 C179.73 -0.15 185.61 -0.15 191.48 -0.12 C193.64 -0.12 195.8 -0.12 197.96 -0.14 C200.9 -0.15 203.84 -0.14 206.78 -0.11 C208.07 -0.13 208.07 -0.13 209.39 -0.15 C215.17 -0.06 215.17 -0.06 218.23 2.9 C218.73 3.76 219.24 4.62 219.76 5.51 C220.29 6.35 220.81 7.19 221.36 8.06 C221.87 8.95 222.38 9.85 222.91 10.78 C223.5 11.8 224.08 12.82 224.69 13.88 C225.31 14.98 225.93 16.07 226.58 17.2 C227.58 18.95 228.58 20.69 229.57 22.44 C230.61 24.25 231.65 26.06 232.68 27.88 C235.35 32.55 238.04 37.21 240.72 41.87 C241.99 44.08 243.26 46.29 244.52 48.49 C247.18 53.12 249.85 57.71 252.74 62.2 C253.39 63.22 253.39 63.22 254.05 64.26 C255.16 65.97 256.29 67.67 257.42 69.37 C260.17 75.8 257.25 82.72 255.03 89 C254.61 90.2 254.61 90.2 254.19 91.42 C253.59 93.14 252.99 94.86 252.39 96.57 C251.1 100.26 249.83 103.96 248.55 107.65 C247.9 109.55 247.24 111.45 246.58 113.34 C240.31 131.46 234.31 149.67 228.37 167.9 C214.89 209.28 201.16 250.58 187.41 291.87 C183.34 304.08 179.28 316.29 175.23 328.5 C172.33 337.21 169.43 345.92 166.53 354.63 C164.81 359.79 163.1 364.95 161.38 370.11 C159.79 374.92 158.19 379.72 156.58 384.53 C156 386.28 155.41 388.04 154.83 389.8 C154.04 392.2 153.24 394.6 152.43 396.99 C152.09 398.04 152.09 398.04 151.74 399.1 C149.89 404.6 148.45 408.8 143.3 411.79 C138.04 414.17 132.91 414.07 127.22 414.03 C126.07 414.04 124.93 414.04 123.75 414.05 C119.92 414.07 116.09 414.06 112.26 414.05 C109.51 414.05 106.77 414.06 104.02 414.07 C97.33 414.1 90.65 414.1 83.97 414.09 C78.53 414.08 73.1 414.08 67.67 414.09 C66.89 414.09 66.12 414.09 65.32 414.09 C63.75 414.09 62.18 414.1 60.6 414.1 C45.87 414.11 31.13 414.11 16.4 414.09 C2.92 414.07 -10.56 414.09 -24.04 414.12 C-37.88 414.15 -51.73 414.16 -65.57 414.15 C-67.14 414.15 -68.71 414.15 -70.27 414.14 C-71.43 414.14 -71.43 414.14 -72.61 414.14 C-78.03 414.14 -83.46 414.15 -88.89 414.17 C-95.5 414.18 -102.11 414.18 -108.73 414.16 C-112.1 414.15 -115.47 414.15 -118.84 414.16 C-122.5 414.18 -126.16 414.17 -129.82 414.14 C-130.88 414.15 -131.95 414.17 -133.04 414.18 C-139.76 414.09 -143.24 413.1 -148.24 408.51 C-151.49 402.95 -152.2 397.48 -150.69 391.26 C-149.91 388.79 -149.06 386.36 -148.17 383.92 C-147.85 383.02 -147.53 382.12 -147.2 381.19 C-146.18 378.31 -145.15 375.45 -144.11 372.58 C-143.44 370.69 -142.77 368.8 -142.1 366.9 C-140.77 363.18 -139.45 359.47 -138.11 355.75 C-133.31 342.36 -128.64 328.92 -124.05 315.45 C-123.45 313.7 -122.85 311.95 -122.25 310.19 C-118.7 299.77 -115.16 289.34 -111.63 278.9 C-104.1 256.66 -96.55 234.43 -88.78 212.27 C-83.43 197.03 -78.22 181.75 -73.05 166.45 C-68.11 151.86 -63.15 137.28 -57.99 122.76 C-53.78 110.94 -49.66 99.08 -45.61 87.2 C-45.33 86.37 -45.05 85.54 -44.75 84.69 C-41.38 74.82 -38.04 64.94 -34.74 55.05 C-33.12 50.21 -31.5 45.37 -29.87 40.53 C-29.08 38.16 -28.29 35.79 -27.51 33.43 C-26.4 30.1 -25.29 26.77 -24.17 23.45 C-23.85 22.46 -23.52 21.47 -23.19 20.45 C-18.96 7.99 -14.16 -0.14 0 0 Z M-3.24 17.51 C-5.78 23.87 -8.21 30.14 -10.38 36.6 C-10.67 37.45 -10.95 38.29 -11.25 39.16 C-11.86 40.98 -12.48 42.79 -13.09 44.61 C-14.76 49.55 -16.43 54.48 -18.11 59.42 C-18.46 60.43 -18.8 61.45 -19.16 62.49 C-22.56 72.5 -26.05 82.48 -29.55 92.45 C-35.61 109.74 -41.52 127.08 -47.39 144.43 C-52.72 160.18 -58.14 175.9 -63.64 191.6 C-69.34 207.84 -74.88 224.13 -80.39 240.43 C-85.41 255.26 -90.49 270.06 -95.67 284.83 C-102.39 303.98 -108.93 323.2 -115.43 342.42 C-116.22 344.76 -117.01 347.1 -117.8 349.44 C-118.19 350.57 -118.57 351.7 -118.96 352.87 C-121.25 359.62 -123.56 366.38 -125.89 373.12 C-126.16 373.89 -126.42 374.67 -126.7 375.47 C-127.89 378.92 -129.09 382.36 -130.29 385.81 C-130.69 386.96 -131.09 388.11 -131.5 389.29 C-131.84 390.26 -132.18 391.24 -132.53 392.24 C-133.34 394.44 -133.34 394.44 -133.24 396.51 C-44.8 396.51 43.64 396.51 134.76 396.51 C139.38 382.32 144 368.13 148.76 353.51 C151.82 344.27 154.88 335.02 157.97 325.79 C158.79 323.33 159.61 320.87 160.43 318.41 C162.16 313.22 163.89 308.03 165.62 302.85 C168.12 295.33 170.63 287.82 173.14 280.3 C177.22 268.06 181.3 255.83 185.38 243.59 C189.32 231.79 193.25 219.98 197.19 208.18 C197.44 207.45 197.68 206.71 197.93 205.96 C199.15 202.29 200.38 198.61 201.6 194.94 C203.99 187.78 206.38 180.61 208.77 173.45 C209 172.76 209.23 172.06 209.47 171.35 C215.62 152.92 221.76 134.49 227.91 116.06 C228.59 114.03 229.27 112 229.94 109.97 C231.49 105.33 233.04 100.7 234.6 96.07 C234.89 95.23 235.17 94.39 235.46 93.52 C235.99 91.96 236.52 90.4 237.05 88.84 C238.32 85.26 238.32 85.26 238.76 81.51 C237.55 81.51 236.34 81.5 235.1 81.49 C230.59 81.45 226.08 81.38 221.58 81.31 C219.63 81.28 217.68 81.26 215.73 81.24 C212.93 81.22 210.12 81.18 207.32 81.12 C206.45 81.12 205.59 81.12 204.69 81.12 C199.25 80.99 196.05 80.17 191.76 76.51 C191.37 75.82 190.97 75.12 190.56 74.41 C188.82 72.18 188.82 72.18 185.51 72.02 C184.14 71.99 182.77 72 181.4 72.02 C180.64 72.01 179.89 72.01 179.11 72 C176.57 71.99 174.03 72 171.49 72.02 C169.67 72.01 167.85 72.01 166.03 72 C162.11 71.99 158.2 71.99 154.28 72 C148.08 72.01 141.89 72 135.7 71.98 C123.67 71.95 111.65 71.95 99.62 71.95 C84.31 71.95 69 71.94 53.69 71.9 C47.53 71.89 41.37 71.89 35.21 71.9 C31.39 71.91 27.56 71.9 23.73 71.89 C21.95 71.88 20.17 71.89 18.4 71.9 C15.97 71.91 13.55 71.9 11.13 71.89 C10.42 71.89 9.71 71.9 8.98 71.91 C6.13 71.88 4.21 71.82 1.83 70.18 C0.15 67.56 0.39 65.54 0.76 62.51 C1.83 60.85 1.83 60.85 3.76 59.51 C6.31 59.21 8.6 59.1 11.15 59.12 C11.91 59.11 12.66 59.1 13.44 59.1 C15.99 59.08 18.54 59.08 21.09 59.08 C22.91 59.07 24.73 59.06 26.56 59.05 C31.51 59.02 36.47 59.01 41.42 59.01 C46.6 59 51.78 58.97 56.96 58.95 C66.76 58.9 76.57 58.88 86.38 58.85 C97.54 58.83 108.7 58.78 119.86 58.74 C142.83 58.64 165.8 58.57 188.76 58.51 C195.22 45.6 198.43 31.29 202.76 17.51 C134.78 17.51 66.8 17.51 -3.24 17.51 Z " fill="#2897D0" transform="translate(631.2364807128906,542.4853363037109)"/>
<path d="M0 0 C1.1 -0 2.19 -0 3.32 -0 C23.04 0.13 23.04 0.13 31.94 4.5 C33.22 5.1 34.5 5.7 35.79 6.3 C36.77 6.76 36.77 6.76 37.77 7.23 C41.74 9.03 45.81 10.6 49.88 12.19 C69.98 20.08 69.98 20.08 77.12 23.84 C81.16 25.82 85.29 27.56 89.44 29.31 C90.23 29.65 91.02 29.99 91.84 30.33 C96.55 32.31 101.27 34.04 106.14 35.57 C107.88 36.19 107.88 36.19 108.88 37.19 C109.01 39.19 109.11 41.19 109.19 43.19 C109.85 51.77 109.85 51.77 113.88 59.19 C119.63 63.48 125.87 65.87 132.88 67.19 C132.28 70.89 131.23 73.8 129.5 77.12 C129.06 77.99 128.61 78.85 128.15 79.74 C127.73 80.55 127.31 81.35 126.88 82.19 C126.27 83.39 125.66 84.6 125.06 85.81 C124.67 86.6 124.28 87.38 123.88 88.19 C122.46 87.9 121.04 87.61 119.62 87.31 C118.84 87.15 118.05 86.99 117.23 86.82 C114.88 86.19 114.88 86.19 112.83 85.15 C109.21 83.37 105.8 83.5 101.88 84.19 C97.7 85.89 93.81 87.99 89.88 90.19 C88.55 90.86 87.21 91.53 85.88 92.19 C85.88 92.85 85.88 93.51 85.88 94.19 C81.91 93.2 77.96 92.21 73.88 91.19 C73.88 90.53 73.88 89.87 73.88 89.19 C72.87 89.02 72.87 89.02 71.84 88.86 C68.23 88.04 64.83 86.81 61.38 85.5 C60.67 85.23 59.97 84.97 59.24 84.7 C53.73 82.59 48.4 80.18 43.07 77.64 C37.77 75.23 32.33 73.21 26.88 71.19 C26.78 69.91 26.68 68.63 26.58 67.31 C26.43 65.6 26.28 63.9 26.12 62.19 C26.06 61.35 26 60.51 25.94 59.64 C24.93 48.77 19.77 41.57 11.88 34.19 C8.35 31.56 4.71 29.33 0.88 27.19 C0.24 26.81 -0.39 26.43 -1.04 26.05 C-14.32 18.68 -31.52 15.42 -46.39 13.71 C-47.74 13.45 -47.74 13.45 -49.12 13.19 C-49.45 12.53 -49.79 11.87 -50.12 11.19 C-47.63 10.05 -45.13 8.93 -42.62 7.81 C-41.93 7.5 -41.23 7.18 -40.52 6.85 C-35.77 4.74 -31.2 3.31 -26.12 2.19 C-25.23 1.98 -24.34 1.77 -23.41 1.55 C-15.61 0.11 -7.92 0.01 0 0 Z " fill="#58A9E5" transform="translate(340.125,210.8125)"/>
<path d="M0 0 C1.11 0.69 1.11 0.69 2.23 1.39 C9.43 6.32 14.87 13.08 16.53 21.76 C18.06 32.26 17.48 42.14 12 51.38 C11.34 52.24 10.68 53.11 10 54 C9.46 54.78 8.93 55.57 8.38 56.38 C7.92 56.91 7.47 57.45 7 58 C6.34 58 5.68 58 5 58 C5 58.66 5 59.32 5 60 C-4.7 67.66 -14.98 69.14 -27 68 C-37.69 65.98 -45.3 59.12 -51.5 50.44 C-56.88 41.59 -57.51 31.01 -55.35 20.97 C-53.22 14.48 -49.85 8.84 -45 4 C-44.34 4 -43.68 4 -43 4 C-43 3.34 -43 2.68 -43 2 C-29.33 -6.26 -14.15 -8.88 0 0 Z " fill="#0370A8" transform="translate(252,647)"/>
<path d="M0 0 C1.29 -0.01 1.29 -0.01 2.61 -0.02 C5.5 -0.03 8.39 -0.02 11.29 -0.01 C13.36 -0.02 15.43 -0.02 17.5 -0.03 C23.13 -0.05 28.76 -0.04 34.39 -0.03 C40.28 -0.02 46.16 -0.03 52.05 -0.03 C61.94 -0.04 71.83 -0.03 81.72 -0.01 C93.16 0.01 104.59 0 116.03 -0.02 C125.84 -0.04 135.66 -0.04 145.47 -0.03 C151.33 -0.02 157.2 -0.02 163.06 -0.04 C168.57 -0.05 174.09 -0.04 179.6 -0.02 C181.62 -0.01 183.65 -0.01 185.67 -0.02 C188.44 -0.03 191.2 -0.02 193.96 0 C194.76 -0.01 195.56 -0.02 196.39 -0.03 C200.12 0.03 202.34 0.38 205.54 2.35 C207.54 4.51 207.54 4.51 208.17 7.51 C207.54 10.51 207.54 10.51 205.54 12.66 C201.66 15.05 198.38 15.06 193.96 15.02 C192.66 15.03 192.66 15.03 191.34 15.03 C188.45 15.05 185.56 15.04 182.67 15.03 C180.6 15.03 178.52 15.04 176.45 15.05 C170.82 15.07 165.19 15.06 159.56 15.05 C153.67 15.04 147.78 15.04 141.9 15.05 C132.01 15.06 122.12 15.05 112.24 15.03 C100.8 15.01 89.36 15.01 77.92 15.04 C68.11 15.05 58.3 15.06 48.48 15.05 C42.62 15.04 36.75 15.04 30.89 15.05 C25.38 15.06 19.87 15.06 14.35 15.03 C12.33 15.03 10.3 15.03 8.28 15.04 C5.52 15.05 2.76 15.04 0 15.02 C-0.81 15.02 -1.61 15.03 -2.44 15.04 C-6 14.99 -8.06 14.8 -10.96 12.66 C-13.01 9.71 -13.04 8.03 -12.46 4.51 C-9.15 -0.23 -5.35 -0.06 0 0 Z " fill="#1E749F" transform="translate(553.4577484130859,858.4920654296875)"/>
<path d="M0 0 C1.29 -0.01 1.29 -0.01 2.61 -0.02 C5.5 -0.03 8.39 -0.02 11.29 -0.01 C13.36 -0.02 15.43 -0.02 17.5 -0.03 C23.13 -0.05 28.76 -0.04 34.39 -0.03 C40.28 -0.02 46.16 -0.03 52.05 -0.03 C61.94 -0.04 71.83 -0.03 81.72 -0.01 C93.16 0.01 104.59 0 116.03 -0.02 C125.84 -0.04 135.66 -0.04 145.47 -0.03 C151.33 -0.02 157.2 -0.02 163.06 -0.04 C168.57 -0.05 174.09 -0.04 179.6 -0.02 C181.62 -0.01 183.65 -0.01 185.67 -0.02 C188.44 -0.03 191.2 -0.02 193.96 0 C194.76 -0.01 195.56 -0.02 196.39 -0.03 C200.12 0.03 202.34 0.38 205.54 2.35 C207.54 4.51 207.54 4.51 208.17 7.51 C207.54 10.51 207.54 10.51 205.54 12.66 C201.66 15.05 198.38 15.06 193.96 15.02 C192.66 15.03 192.66 15.03 191.34 15.03 C188.45 15.05 185.56 15.04 182.67 15.03 C180.6 15.03 178.52 15.04 176.45 15.05 C170.82 15.07 165.19 15.06 159.56 15.05 C153.67 15.04 147.78 15.04 141.9 15.05 C132.01 15.06 122.12 15.05 112.24 15.03 C100.8 15.01 89.36 15.01 77.92 15.04 C68.11 15.05 58.3 15.06 48.48 15.05 C42.62 15.04 36.75 15.04 30.89 15.05 C25.38 15.06 19.87 15.06 14.35 15.03 C12.33 15.03 10.3 15.03 8.28 15.04 C5.52 15.05 2.76 15.04 0 15.02 C-0.81 15.02 -1.61 15.03 -2.44 15.04 C-6 14.99 -8.06 14.8 -10.96 12.66 C-13.01 9.71 -13.04 8.03 -12.46 4.51 C-9.15 -0.23 -5.35 -0.06 0 0 Z " fill="#1E749F" transform="translate(568.4577484130859,815.4920654296875)"/>
<path d="M0 0 C1.29 -0.01 1.29 -0.01 2.61 -0.02 C5.5 -0.03 8.39 -0.02 11.29 -0.01 C13.36 -0.02 15.43 -0.02 17.5 -0.03 C23.13 -0.05 28.76 -0.04 34.39 -0.03 C40.28 -0.02 46.16 -0.03 52.05 -0.03 C61.94 -0.04 71.83 -0.03 81.72 -0.01 C93.16 0.01 104.59 0 116.03 -0.02 C125.84 -0.04 135.66 -0.04 145.47 -0.03 C151.33 -0.02 157.2 -0.02 163.06 -0.04 C168.57 -0.05 174.09 -0.04 179.6 -0.02 C181.62 -0.01 183.65 -0.01 185.67 -0.02 C188.44 -0.03 191.2 -0.02 193.96 0 C194.76 -0.01 195.56 -0.02 196.39 -0.03 C200.12 0.03 202.34 0.38 205.54 2.35 C207.54 4.51 207.54 4.51 208.17 7.51 C207.54 10.51 207.54 10.51 205.54 12.66 C201.66 15.05 198.38 15.06 193.96 15.02 C192.66 15.03 192.66 15.03 191.34 15.03 C188.45 15.05 185.56 15.04 182.67 15.03 C180.6 15.03 178.52 15.04 176.45 15.05 C170.82 15.07 165.19 15.06 159.56 15.05 C153.67 15.04 147.78 15.04 141.9 15.05 C132.01 15.06 122.12 15.05 112.24 15.03 C100.8 15.01 89.36 15.01 77.92 15.04 C68.11 15.05 58.3 15.06 48.48 15.05 C42.62 15.04 36.75 15.04 30.89 15.05 C25.38 15.06 19.87 15.06 14.35 15.03 C12.33 15.03 10.3 15.03 8.28 15.04 C5.52 15.05 2.76 15.04 0 15.02 C-0.81 15.02 -1.61 15.03 -2.44 15.04 C-6 14.99 -8.06 14.8 -10.96 12.66 C-13.01 9.71 -13.04 8.03 -12.46 4.51 C-9.15 -0.23 -5.35 -0.06 0 0 Z " fill="#1E749F" transform="translate(583.4577484130859,772.4920654296875)"/>
<path d="M0 0 C1.29 -0.01 1.29 -0.01 2.61 -0.02 C5.5 -0.03 8.39 -0.02 11.29 -0.01 C13.36 -0.02 15.43 -0.02 17.5 -0.03 C23.13 -0.05 28.76 -0.04 34.39 -0.03 C40.28 -0.02 46.16 -0.03 52.05 -0.03 C61.94 -0.04 71.83 -0.03 81.72 -0.01 C93.16 0.01 104.59 0 116.03 -0.02 C125.84 -0.04 135.66 -0.04 145.47 -0.03 C151.33 -0.02 157.2 -0.02 163.06 -0.04 C168.57 -0.05 174.09 -0.04 179.6 -0.02 C181.62 -0.01 183.65 -0.01 185.67 -0.02 C188.44 -0.03 191.2 -0.02 193.96 0 C194.76 -0.01 195.56 -0.02 196.39 -0.03 C200.12 0.03 202.34 0.38 205.54 2.35 C207.54 4.51 207.54 4.51 208.17 7.51 C207.54 10.51 207.54 10.51 205.54 12.66 C201.66 15.05 198.38 15.06 193.96 15.02 C192.66 15.03 192.66 15.03 191.34 15.03 C188.45 15.05 185.56 15.04 182.67 15.03 C180.6 15.03 178.52 15.04 176.45 15.05 C170.82 15.07 165.19 15.06 159.56 15.05 C153.67 15.04 147.78 15.04 141.9 15.05 C132.01 15.06 122.12 15.05 112.24 15.03 C100.8 15.01 89.36 15.01 77.92 15.04 C68.11 15.05 58.3 15.06 48.48 15.05 C42.62 15.04 36.75 15.04 30.89 15.05 C25.38 15.06 19.87 15.06 14.35 15.03 C12.33 15.03 10.3 15.03 8.28 15.04 C5.52 15.05 2.76 15.04 0 15.02 C-0.81 15.02 -1.61 15.03 -2.44 15.04 C-6 14.99 -8.06 14.8 -10.96 12.66 C-13.01 9.71 -13.04 8.03 -12.46 4.51 C-9.15 -0.23 -5.35 -0.06 0 0 Z " fill="#1E749F" transform="translate(598.4577484130859,729.4920654296875)"/>
<path d="M0 0 C1.29 -0.01 1.29 -0.01 2.61 -0.02 C5.5 -0.03 8.39 -0.02 11.29 -0.01 C13.36 -0.02 15.43 -0.02 17.5 -0.03 C23.13 -0.05 28.76 -0.04 34.39 -0.03 C40.28 -0.02 46.16 -0.03 52.05 -0.03 C61.94 -0.04 71.83 -0.03 81.72 -0.01 C93.16 0.01 104.59 0 116.03 -0.02 C125.84 -0.04 135.66 -0.04 145.47 -0.03 C151.33 -0.02 157.2 -0.02 163.06 -0.04 C168.57 -0.05 174.09 -0.04 179.6 -0.02 C181.62 -0.01 183.65 -0.01 185.67 -0.02 C188.44 -0.03 191.2 -0.02 193.96 0 C194.76 -0.01 195.56 -0.02 196.39 -0.03 C200.12 0.03 202.34 0.38 205.54 2.35 C207.54 4.51 207.54 4.51 208.17 7.51 C207.54 10.51 207.54 10.51 205.54 12.66 C201.66 15.05 198.38 15.06 193.96 15.02 C192.66 15.03 192.66 15.03 191.34 15.03 C188.45 15.05 185.56 15.04 182.67 15.03 C180.6 15.03 178.52 15.04 176.45 15.05 C170.82 15.07 165.19 15.06 159.56 15.05 C153.67 15.04 147.78 15.04 141.9 15.05 C132.01 15.06 122.12 15.05 112.24 15.03 C100.8 15.01 89.36 15.01 77.92 15.04 C68.11 15.05 58.3 15.06 48.48 15.05 C42.62 15.04 36.75 15.04 30.89 15.05 C25.38 15.06 19.87 15.06 14.35 15.03 C12.33 15.03 10.3 15.03 8.28 15.04 C5.52 15.05 2.76 15.04 0 15.02 C-0.81 15.02 -1.61 15.03 -2.44 15.04 C-6 14.99 -8.06 14.8 -10.96 12.66 C-13.01 9.71 -13.04 8.03 -12.46 4.51 C-9.15 -0.23 -5.35 -0.06 0 0 Z " fill="#1E749F" transform="translate(613.4577484130859,686.4920654296875)"/>
<path d="M0 0 C1.29 -0.01 1.29 -0.01 2.61 -0.02 C5.5 -0.03 8.39 -0.02 11.29 -0.01 C13.36 -0.02 15.43 -0.02 17.5 -0.03 C23.13 -0.05 28.76 -0.04 34.39 -0.03 C40.28 -0.02 46.16 -0.03 52.05 -0.03 C61.94 -0.04 71.83 -0.03 81.72 -0.01 C93.16 0.01 104.59 0 116.03 -0.02 C125.84 -0.04 135.66 -0.04 145.47 -0.03 C151.33 -0.02 157.2 -0.02 163.06 -0.04 C168.57 -0.05 174.09 -0.04 179.6 -0.02 C181.62 -0.01 183.65 -0.01 185.67 -0.02 C188.44 -0.03 191.2 -0.02 193.96 0 C194.76 -0.01 195.56 -0.02 196.39 -0.03 C200.12 0.03 202.34 0.38 205.54 2.35 C207.54 4.51 207.54 4.51 208.17 7.51 C207.54 10.51 207.54 10.51 205.54 12.66 C201.66 15.05 198.38 15.06 193.96 15.02 C192.66 15.03 192.66 15.03 191.34 15.03 C188.45 15.05 185.56 15.04 182.67 15.03 C180.6 15.03 178.52 15.04 176.45 15.05 C170.82 15.07 165.19 15.06 159.56 15.05 C153.67 15.04 147.78 15.04 141.9 15.05 C132.01 15.06 122.12 15.05 112.24 15.03 C100.8 15.01 89.36 15.01 77.92 15.04 C68.11 15.05 58.3 15.06 48.48 15.05 C42.62 15.04 36.75 15.04 30.89 15.05 C25.38 15.06 19.87 15.06 14.35 15.03 C12.33 15.03 10.3 15.03 8.28 15.04 C5.52 15.05 2.76 15.04 0 15.02 C-0.81 15.02 -1.61 15.03 -2.44 15.04 C-6 14.99 -8.06 14.8 -10.96 12.66 C-13.01 9.71 -13.04 8.03 -12.46 4.51 C-9.15 -0.23 -5.35 -0.06 0 0 Z " fill="#1E749F" transform="translate(628.4577484130859,643.4920654296875)"/>
<path d="M0 0 C1.14 -0.01 1.14 -0.01 2.3 -0.01 C4.84 -0.02 7.39 0.01 9.93 0.03 C11.76 0.03 13.58 0.03 15.4 0.03 C20.35 0.02 25.31 0.05 30.26 0.08 C35.43 0.1 40.61 0.1 45.78 0.11 C55.58 0.12 65.38 0.15 75.18 0.19 C86.34 0.24 97.49 0.26 108.65 0.28 C131.6 0.32 154.55 0.39 177.5 0.48 C177.33 1.03 177.17 1.58 177 2.15 C176.44 4.75 176.4 7.08 176.43 9.73 C176.44 10.62 176.45 11.52 176.46 12.43 C176.47 13.11 176.48 13.79 176.5 14.48 C152.57 14.57 128.65 14.64 104.73 14.69 C93.62 14.71 82.52 14.74 71.41 14.78 C61.73 14.82 52.05 14.85 42.37 14.86 C37.25 14.86 32.12 14.87 26.99 14.9 C22.17 14.93 17.35 14.94 12.53 14.93 C10.75 14.93 8.98 14.94 7.21 14.96 C4.79 14.98 2.38 14.97 -0.04 14.96 C-0.74 14.97 -1.45 14.99 -2.17 15 C-5.52 14.96 -7.24 14.68 -9.94 12.64 C-11.5 10.48 -11.5 10.48 -12 7.48 C-10.85 0.56 -6.19 -0.1 0 0 Z " fill="#1E749F" transform="translate(642.5043334960938,600.5189819335938)"/>
<path d="M0 0 C5.01 3.02 9.4 7.8 12 13 C12.7 19.23 11.03 22.52 7.69 27.5 C7.02 28.54 7.02 28.54 6.33 29.59 C2.34 35.68 -1.95 41.54 -6.32 47.36 C-8.15 49.8 -9.86 52.27 -11.52 54.83 C-12.12 55.74 -12.12 55.74 -12.73 56.67 C-13.81 58.33 -14.87 60.01 -15.93 61.68 C-18 64 -18 64 -20.55 64.51 C-24.62 63.66 -26.66 61.33 -29 58 C-30.19 54.56 -30.19 54.56 -30 51 C-28.8 49.09 -27.44 47.38 -26.04 45.61 C-24.75 43.98 -24.75 43.98 -25.25 41.56 C-27.85 37.76 -30.87 34.37 -34 31 C-36.72 31.5 -39.02 32.01 -41.56 33.12 C-44.39 34.14 -45.29 34.27 -48 33 C-51.4 30.31 -52.82 28.62 -54.06 24.44 C-54 21 -54 21 -52.32 18.93 C-49.86 16.89 -47.78 15.83 -44.81 14.67 C-43.79 14.26 -42.77 13.86 -41.72 13.45 C-40.64 13.03 -39.55 12.62 -38.44 12.19 C-37.33 11.75 -36.21 11.32 -35.07 10.87 C-31.72 9.57 -28.36 8.29 -25 7 C-23.11 6.26 -21.22 5.53 -19.34 4.79 C-17.66 4.15 -15.99 3.51 -14.31 2.88 C-13.55 2.58 -12.8 2.29 -12.02 1.98 C-7.91 0.45 -4.45 -0.61 0 0 Z " fill="#030303" transform="translate(1003,519)"/>
<path d="M0 0 C1.13 0.93 2.25 1.87 3.38 2.81 C4 3.33 4.63 3.86 5.27 4.39 C7.48 6.45 8.83 8.3 9.56 11.25 C8.17 18.08 0.36 22.24 -5 26 C-4.41 26.03 -3.81 26.05 -3.2 26.08 C-0.47 26.19 2.27 26.32 5 26.44 C5.93 26.48 6.87 26.52 7.83 26.56 C23.28 27.26 23.28 27.26 26.56 30.62 C28.32 34.75 28.34 36.74 27 41 C24.85 43.8 23.23 44.83 19.71 45.31 C12.07 45.5 4.53 44.23 -3 43 C-3.05 43.76 -3.1 44.53 -3.15 45.32 C-3.59 51.62 -4.14 57.91 -4.88 64.19 C-5.02 65.44 -5.16 66.69 -5.3 67.98 C-6 71 -6 71 -9 73 C-12.8 73.5 -14.49 73.33 -17.75 71.25 C-21.16 67.84 -21.95 66.27 -22.14 61.38 C-22.1 57.02 -21.39 52.94 -20.5 48.69 C-19.38 43.39 -19.38 43.39 -19 38 C-23.62 41.63 -28.24 45.26 -33 49 C-37.11 46.94 -39.68 44.92 -42 41 C-42.88 37.62 -42.88 37.62 -42 34 C-39.38 30.86 -36.23 28.49 -33 26 C-31.89 25.12 -30.78 24.24 -29.67 23.36 C-27.29 21.48 -24.9 19.61 -22.5 17.74 C-19.33 15.27 -16.22 12.74 -13.12 10.19 C-8.84 6.66 -4.48 3.27 0 0 Z " fill="#050505" transform="translate(1029,551)"/>
<path d="M0 0 C2.5 0.57 4.37 1.19 6.69 2.38 C10.03 4.01 13.31 5.15 16.85 6.25 C19.01 7 20.98 7.93 23 9 C21.72 13.89 20.09 18.19 17.88 22.75 C13.91 31.02 10.38 39.46 6.87 47.93 C6.12 49.71 5.35 51.48 4.58 53.25 C1.7 59.92 -0.76 66.78 -3.33 73.57 C-3.76 74.69 -4.18 75.82 -4.62 76.97 C-5.01 77.99 -5.39 79 -5.79 80.04 C-7.05 83.12 -8.48 86.05 -10 89 C-13.93 88.36 -17.29 87.15 -20.94 85.56 C-24.91 83.84 -28.87 82.32 -33 81 C-32.58 76.64 -31.37 73.75 -29.11 70.04 C-27.33 66.77 -26.23 63.28 -25 59.77 C-23.81 56.47 -22.39 53.3 -20.93 50.11 C-20.05 48.12 -19.29 46.11 -18.56 44.06 C-17.42 40.92 -16.02 37.98 -14.5 35 C-12.69 31.45 -11.15 27.94 -9.81 24.19 C-8.42 20.43 -6.83 16.75 -5.27 13.05 C-3.47 8.72 -1.73 4.36 0 0 Z " fill="#57A8E4" transform="translate(375,304)"/>
<path d="M0 0 C4.23 0.43 5.72 1.41 8.69 4.38 C10.33 7.67 10.2 10.82 9.69 14.38 C8.26 18.49 6.47 22.41 4.69 26.38 C4.17 27.72 3.67 29.08 3.19 30.44 C2.07 33.5 0.76 36.42 -0.62 39.38 C-3.12 44.75 -5.18 50.23 -7.17 55.8 C-8.55 59.61 -10.14 62.96 -12.31 66.38 C-12.99 67.72 -13.66 69.08 -14.31 70.44 C-14.98 71.75 -15.64 73.06 -16.31 74.38 C-16.93 75.61 -16.93 75.61 -17.56 76.88 C-19.99 78.96 -22.2 78.86 -25.31 78.7 C-28.22 78.23 -30.05 77.24 -32.31 75.38 C-34.24 72.32 -34.51 70.31 -34.06 66.75 C-33.93 65.59 -33.93 65.59 -33.8 64.4 C-33.31 62.38 -33.31 62.38 -31.31 60.38 C-30.63 58.05 -29.96 55.71 -29.31 53.38 C-28.38 51.01 -27.36 48.7 -26.31 46.38 C-25.65 46.38 -24.99 46.38 -24.31 46.38 C-24.15 45.52 -24.15 45.52 -23.98 44.65 C-22.94 39.56 -21.48 35.13 -19.31 30.38 C-18.58 28.57 -17.85 26.75 -17.12 24.94 C-16.78 24.07 -16.44 23.21 -16.08 22.32 C-15.7 21.36 -15.7 21.36 -15.31 20.38 C-14.65 20.38 -13.99 20.38 -13.31 20.38 C-13.11 19.08 -12.9 17.78 -12.69 16.44 C-11.28 10.01 -7.09 0.8 0 0 Z " fill="#57A8E4" transform="translate(505.3125,260.625)"/>
<path d="M0 0 C2.39 1.91 2.39 1.91 4.69 4.62 C5.54 5.63 6.4 6.63 7.28 7.66 C8.19 8.77 9.1 9.88 10 11 C10.47 11.58 10.93 12.15 11.41 12.75 C13.79 15.71 16.12 18.68 18.43 21.69 C20.01 23.75 21.63 25.73 23.32 27.71 C23.98 28.49 24.64 29.26 25.31 30.06 C25.89 30.71 26.46 31.36 27.05 32.04 C28 34 28 34 27.27 36.63 C25.77 39.42 24.86 40.61 22 42 C18.62 42.19 18.62 42.19 15 41 C12.64 38.55 10.79 35.88 9 33 C5.3 34.29 2.89 35.74 0.06 38.44 C-4.43 42.57 -9.13 46.32 -13.95 50.05 C-17.7 52.96 -21.37 55.94 -25 59 C-29.43 57.65 -31.55 55.94 -34 52 C-34.89 48.62 -34.89 48.62 -35 45 C-33.18 42.52 -33.18 42.52 -30.44 40.25 C-28.93 38.98 -28.93 38.98 -27.39 37.69 C-26.26 36.79 -25.13 35.89 -24 35 C-23.41 34.52 -22.81 34.05 -22.2 33.56 C-19.24 31.19 -16.26 28.85 -13.26 26.54 C-10.11 24.11 -7.05 21.57 -4 19 C-5.54 15.5 -7.69 12.74 -10.07 9.78 C-11 8 -11 8 -10.75 5.92 C-8.66 0.57 -5.48 -0.69 0 0 Z " fill="#040404" transform="translate(966,472)"/>
<path d="M0 0 C5.67 3.07 9.45 5.87 11.88 12.03 C13.41 17.21 12.99 21.37 10.77 26.17 C7.9 31.33 3.95 35.67 -1.54 37.98 C-7.76 38.76 -13.12 38.32 -18.54 34.98 C-24.56 28.45 -26 23.13 -25.97 14.3 C-25.35 9.45 -23.24 6.16 -19.54 2.98 C-18.88 2.98 -18.22 2.98 -17.54 2.98 C-17.54 2.32 -17.54 1.66 -17.54 0.98 C-12.09 -1.92 -5.73 -2.29 0 0 Z " fill="#EAEEF2" transform="translate(239.54296875,660.015625)"/>
<path d="M0 0 C3.89 3.41 5.98 7.25 8.38 11.75 C13.22 20.69 18.33 29.46 23.53 38.2 C24.11 39.19 24.69 40.17 25.29 41.19 C25.81 42.07 26.33 42.95 26.87 43.86 C28 46 28 46 28 48 C22.18 48.02 16.36 48.04 10.54 48.05 C8.56 48.06 6.57 48.07 4.59 48.08 C1.75 48.09 -1.09 48.09 -3.93 48.1 C-5.27 48.11 -5.27 48.11 -6.64 48.11 C-8.76 48.11 -10.88 48.06 -13 48 C-13.33 47.67 -13.66 47.34 -14 47 C-13.85 37.78 -10.82 29.55 -7.85 20.92 C-6.99 18.42 -6.15 15.91 -5.3 13.4 C-4.77 11.8 -4.23 10.21 -3.69 8.62 C-3.43 7.87 -3.18 7.12 -2.92 6.35 C-1.12 1.12 -1.12 1.12 0 0 Z " fill="#CAE7FD" transform="translate(845,564)"/>
<path d="M0 0 C4.03 0.92 6.66 3.47 9.32 6.53 C10.93 9.75 10.38 12.97 10.32 16.53 C4.7 16.01 0.43 14.47 -4.61 11.97 C-5.3 11.64 -5.98 11.31 -6.69 10.97 C-8.35 10.17 -10.02 9.35 -11.68 8.53 C-10.2 1.76 -6.74 -0.27 0 0 Z " fill="#56A7E2" transform="translate(426.67578125,206.46875)"/>
<path d="M0 0 C-1.62 3.53 -3.69 6.59 -5.94 9.75 C-6.63 10.73 -7.32 11.72 -8.03 12.73 C-8.68 13.48 -9.33 14.23 -10 15 C-10.99 15 -11.98 15 -13 15 C-15.75 12.19 -15.75 12.19 -18 9 C-17.67 8.01 -17.34 7.02 -17 6 C-14.52 4.8 -12.14 3.77 -9.56 2.81 C-8.52 2.4 -8.52 2.4 -7.46 1.99 C-2.32 0 -2.32 0 0 0 Z " fill="#E2E3E5" transform="translate(999,535)"/>
<path d="M0 0 C0.66 0.33 1.32 0.66 2 1 C-4.43 8.47 -4.43 8.47 -7.88 11.69 C-10.18 14.2 -10.71 15.64 -11 19 C-11.33 19 -11.66 19 -12 19 C-12.84 12.18 -12.84 12.18 -10.62 9.05 C-8.82 7.25 -6.97 5.61 -5 4 C-4.03 3.2 -3.06 2.39 -2.06 1.56 C-1.38 1.05 -0.7 0.53 0 0 Z " fill="#2985B4" transform="translate(267,215)"/>
<path d="M0 0 C1 2 1 2 0.5 4.05 C0.22 4.87 -0.07 5.69 -0.36 6.54 C-0.67 7.43 -0.98 8.32 -1.3 9.24 C-1.64 10.17 -1.97 11.1 -2.31 12.06 C-2.79 13.47 -2.79 13.47 -3.29 14.9 C-5.75 21.87 -5.75 21.87 -8 23 C-7.24 18.92 -6.23 14.94 -5.12 10.94 C-4.8 9.73 -4.47 8.52 -4.13 7.28 C-3.09 4.27 -2.07 2.37 0 0 Z " fill="#4393BD" transform="translate(385,446)"/>
<path d="M0 0 C0.66 0.33 1.32 0.66 2 1 C0.57 2.65 -0.87 4.3 -2.31 5.94 C-3.11 6.85 -3.91 7.77 -4.74 8.71 C-7 11 -7 11 -10 12 C-8.44 8.17 -5.97 5.83 -3 3 C-2.4 2.4 -1.8 1.8 -1.19 1.19 C-0.8 0.8 -0.4 0.4 0 0 Z " fill="#338AB7" transform="translate(410,192)"/>
<path d="M0 0 C2.4 2.4 2.3 3.08 2.31 6.38 C2.33 7.15 2.35 7.92 2.36 8.71 C2 11 2 11 -1 15 C-0.67 10.05 -0.34 5.1 0 0 Z " fill="#4393BD" transform="translate(394,410)"/>
<path d="M0 0 C1 2.7 1.04 3.88 0.19 6.69 C-1 9 -1 9 -3 10 C-2.39 6.44 -1.42 3.32 0 0 Z " fill="#4F99C0" transform="translate(228,532)"/>
</g>
<g class="f f1">
<path d="M0 0 C365.31 0 730.62 0 1107 0 C1107 365.31 1107 730.62 1107 1107 C741.69 1107 376.38 1107 0 1107 C0 741.69 0 376.38 0 0 Z " fill="#F1F2F4" transform="translate(0,0)"/>
<path d="M0 0 C7.62 2.27 14 5.34 20.39 10.08 C21.7 10.89 23.01 11.68 24.33 12.46 C34.31 18.69 47.01 27.91 51.39 39.08 C52.38 39.41 53.37 39.74 54.39 40.08 C61.56 48.67 67.08 58.82 71.39 69.08 C71.72 69.74 72.05 70.4 72.39 71.08 C73.43 71.08 73.43 71.08 74.49 71.08 C91.33 71.1 108.16 71.14 124.99 71.21 C133.13 71.25 141.27 71.27 149.41 71.28 C156.51 71.28 163.6 71.3 170.7 71.34 C174.46 71.36 178.21 71.38 181.97 71.37 C186.16 71.36 190.35 71.39 194.55 71.42 C195.8 71.41 197.04 71.41 198.33 71.4 C199.47 71.41 200.61 71.43 201.79 71.44 C203.28 71.45 203.28 71.45 204.79 71.45 C209.19 72.52 210.7 75.97 212.99 79.62 C213.5 80.52 214.01 81.42 214.54 82.34 C215.42 83.88 215.42 83.88 216.32 85.45 C216.94 86.54 217.56 87.64 218.21 88.77 C219.21 90.51 220.21 92.26 221.21 94 C222.24 95.82 223.28 97.63 224.32 99.45 C227.62 105.23 230.94 111 234.27 116.77 C234.89 117.85 235.51 118.94 236.16 120.06 C238.82 124.69 241.5 129.3 244.34 133.84 C244.76 134.53 245.19 135.21 245.64 135.93 C246.73 137.67 247.84 139.4 248.95 141.13 C251.03 145.39 250.87 148.56 249.45 153.07 C248.99 154.2 248.53 155.33 248.05 156.5 C244.93 164.44 242.18 172.48 239.49 180.57 C239.27 181.24 239.04 181.91 238.81 182.6 C237.4 186.82 236 191.04 234.6 195.27 C233.69 198 232.78 200.73 231.88 203.45 C226.81 218.64 221.81 233.85 216.87 249.07 C208.85 273.78 200.68 298.43 192.48 323.07 C191.75 325.27 191.02 327.46 190.29 329.66 C186.87 339.92 183.46 350.18 180.04 360.45 C176.12 372.21 172.21 383.97 168.3 395.74 C165.25 404.92 162.19 414.1 159.13 423.28 C157.32 428.74 155.5 434.19 153.69 439.64 C152 444.74 150.31 449.83 148.61 454.92 C147.98 456.78 147.37 458.65 146.75 460.51 C145.91 463.06 145.06 465.6 144.2 468.14 C143.84 469.25 143.84 469.25 143.47 470.38 C141.37 476.6 139.65 481.17 133.55 484.33 C129.13 485.87 124.56 485.63 119.93 485.6 C118.78 485.6 117.63 485.61 116.45 485.62 C112.61 485.64 108.76 485.63 104.92 485.62 C102.16 485.62 99.4 485.63 96.64 485.64 C89.93 485.66 83.22 485.66 76.51 485.65 C71.05 485.65 65.6 485.65 60.14 485.66 C59.36 485.66 58.59 485.66 57.79 485.66 C56.21 485.66 54.63 485.66 53.05 485.66 C38.26 485.68 23.46 485.67 8.67 485.66 C-4.87 485.64 -18.4 485.66 -31.93 485.68 C-45.83 485.71 -59.73 485.72 -73.63 485.72 C-75.21 485.71 -76.78 485.71 -78.35 485.71 C-79.12 485.71 -79.9 485.71 -80.7 485.71 C-86.14 485.71 -91.59 485.72 -97.04 485.73 C-103.68 485.75 -110.32 485.75 -116.96 485.73 C-120.35 485.72 -123.74 485.72 -127.12 485.73 C-130.8 485.75 -134.47 485.73 -138.14 485.71 C-139.21 485.72 -140.28 485.73 -141.38 485.75 C-148.11 485.66 -151.6 484.68 -156.61 480.08 C-159.79 474.64 -160.55 469.19 -159.14 463.08 C-158.48 460.94 -157.73 458.85 -156.96 456.76 C-156.67 455.96 -156.39 455.16 -156.1 454.34 C-155.48 452.6 -154.85 450.87 -154.23 449.13 C-152.49 444.34 -150.79 439.53 -149.08 434.73 C-148.72 433.71 -148.36 432.69 -147.98 431.64 C-144.12 420.78 -140.43 409.87 -136.74 398.95 C-130.64 380.86 -124.45 362.81 -118.13 344.79 C-113.03 330.25 -108.05 315.68 -103.11 301.08 C-97.49 284.49 -91.79 267.93 -86 251.4 C-79.09 231.67 -72.33 211.88 -65.61 192.08 C-66.52 192.15 -67.44 192.21 -68.39 192.28 C-81 193.18 -81 193.18 -93.61 194.08 C-93.55 194.94 -93.49 195.8 -93.43 196.68 C-92.97 208.22 -92.97 208.22 -96.93 212.73 C-100.17 215.35 -103.7 216.73 -107.61 218.08 C-108.31 218.36 -109.02 218.63 -109.74 218.92 C-116.33 221.24 -123.08 221.79 -130.01 222.35 C-130.8 222.42 -131.59 222.48 -132.41 222.55 C-133.12 222.61 -133.83 222.66 -134.57 222.72 C-136.65 222.99 -136.65 222.99 -138.49 224.06 C-141.22 225.38 -143.69 225.64 -146.71 226.01 C-147.91 226.17 -149.11 226.32 -150.35 226.48 C-152.27 226.71 -152.27 226.71 -154.23 226.96 C-164.86 228.33 -175.22 230.13 -185.64 232.62 C-195.85 234.99 -206.23 236.55 -216.6 237.99 C-220.31 238.52 -223.93 239.12 -227.55 240.07 C-232.3 241.33 -237.12 241.97 -241.98 242.64 C-243.76 242.89 -245.54 243.14 -247.32 243.4 C-248.09 243.51 -248.87 243.61 -249.67 243.72 C-251.68 244 -251.68 244 -253.61 245.08 C-255.43 245.41 -257.27 245.69 -259.11 245.96 C-266.84 247.11 -274.55 248.38 -282.27 249.69 C-283.84 249.95 -285.41 250.22 -286.99 250.48 C-289.3 250.86 -291.61 251.25 -293.92 251.64 C-294.62 251.76 -295.32 251.87 -296.04 251.99 C-299.8 252.64 -303.08 253.64 -306.61 255.08 C-308.48 255.45 -310.36 255.75 -312.25 256.01 C-313.34 256.17 -314.43 256.32 -315.55 256.48 C-317.8 256.79 -320.04 257.1 -322.29 257.41 C-328.3 258.27 -334.05 259.41 -339.9 261.05 C-348.04 263.31 -356.18 264.52 -364.54 265.64 C-374.95 267.07 -385.26 268.69 -395.57 270.69 C-401.25 271.79 -406.93 272.84 -412.62 273.87 C-414.08 274.14 -415.53 274.41 -416.98 274.68 C-442.45 279.5 -442.45 279.5 -451.61 274.08 C-458.56 269.26 -463.27 262.81 -465.14 254.48 C-465.53 252.33 -465.89 250.18 -466.23 248.02 C-466.43 246.84 -466.63 245.66 -466.83 244.45 C-468.88 231.65 -470.1 218.75 -471.26 205.85 C-471.95 198.26 -472.71 190.82 -474.2 183.34 C-476.17 172.41 -474.9 162.45 -468.67 153.21 C-461.64 145.97 -454.23 143.79 -444.47 142.95 C-443.63 142.87 -442.78 142.78 -441.92 142.7 C-439.25 142.44 -436.58 142.2 -433.92 141.96 C-431.24 141.7 -428.56 141.45 -425.89 141.19 C-424.23 141.03 -422.57 140.88 -420.91 140.73 C-417.93 140.45 -415.01 140.16 -412.07 139.57 C-408.55 138.87 -405.01 138.69 -401.43 138.47 C-399.74 138.36 -398.05 138.24 -396.36 138.13 C-395.47 138.07 -394.57 138.01 -393.65 137.95 C-376.02 136.8 -358.4 135.47 -340.79 134.02 C-339.79 133.94 -338.79 133.86 -337.76 133.77 C-331.04 133.22 -324.32 132.66 -317.61 132.08 C-316.58 132 -315.56 131.91 -314.51 131.82 C-311.45 131.56 -308.4 131.29 -305.34 131.02 C-304.41 130.94 -303.47 130.86 -302.51 130.78 C-301.22 130.67 -301.22 130.67 -299.9 130.55 C-299.14 130.48 -298.38 130.42 -297.6 130.35 C-295.4 130.12 -295.4 130.12 -292.61 129.08 C-291.09 128.92 -289.58 128.8 -288.06 128.71 C-287.14 128.65 -286.23 128.6 -285.28 128.54 C-284.29 128.48 -283.3 128.42 -282.28 128.36 C-280.74 128.27 -280.74 128.27 -279.18 128.17 C-275.9 127.97 -272.63 127.78 -269.36 127.58 C-266.1 127.39 -262.83 127.19 -259.57 126.99 C-257.55 126.87 -255.52 126.75 -253.49 126.63 C-248.47 126.32 -243.58 125.81 -238.61 125.08 C-236.21 124.92 -233.82 124.79 -231.42 124.69 C-230 124.62 -228.59 124.55 -227.17 124.49 C-226.43 124.45 -225.69 124.42 -224.92 124.38 C-209.98 123.66 -195.15 122.43 -180.27 120.82 C-167.83 119.47 -155.4 118.41 -142.9 117.68 C-137.41 117.36 -132.04 116.92 -126.61 116.08 C-114.33 114.91 -114.33 114.91 -108.92 118.83 C-104.9 122.24 -103.44 125.63 -102.98 130.83 C-102.87 132.03 -102.87 132.03 -102.75 133.25 C-102.7 133.86 -102.66 134.46 -102.61 135.08 C-101.53 134.91 -100.46 134.74 -99.36 134.56 C-60.15 128.32 -60.15 128.32 -42.61 127.08 C-42.46 126.49 -42.31 125.9 -42.16 125.28 C-40.02 117.06 -37.3 109.07 -34.47 101.06 C-33.66 98.76 -32.87 96.46 -32.08 94.16 C-31.56 92.68 -31.04 91.2 -30.52 89.72 C-30.28 89.04 -30.05 88.36 -29.81 87.66 C-27.86 82.19 -25.35 77.77 -21.16 73.72 C-15.75 71.23 -10.61 71.66 -4.73 71.83 C-3.57 71.85 -2.4 71.87 -1.2 71.89 C1.67 71.93 4.53 72 7.39 72.08 C5.96 62.6 3.69 54.07 0.39 45.08 C0.05 44.13 -0.3 43.18 -0.66 42.2 C-6.86 25.54 -6.86 25.54 -16.61 11.08 C-17.18 4.08 -17.18 4.08 -15.17 0.58 C-10.07 -2.4 -5.45 -1.39 0 0 Z " fill="#0871A7" transform="translate(641.60546875,470.91796875)"/>
<path d="M0 0 C8.65 -0.14 17.3 -0.25 25.95 -0.31 C29.96 -0.34 33.98 -0.38 38 -0.45 C41.87 -0.52 45.75 -0.55 49.63 -0.57 C51.11 -0.58 52.59 -0.6 54.06 -0.63 C65.72 -0.88 65.72 -0.88 68.91 1.31 C70.2 2.91 70.2 2.91 72 6 C74.77 7.76 76.96 8.26 80.22 8.32 C81.04 8.34 81.86 8.36 82.7 8.38 C83.58 8.39 84.46 8.4 85.36 8.41 C86.26 8.43 87.17 8.45 88.1 8.47 C90.98 8.53 93.87 8.58 96.75 8.62 C98.71 8.66 100.66 8.7 102.62 8.74 C107.41 8.84 112.21 8.92 117 9 C107.2 40.71 96.69 72.17 86.18 103.64 C83.67 111.15 81.17 118.65 78.66 126.15 C74.2 139.53 69.74 152.91 65.27 166.29 C64.87 167.48 64.87 167.48 64.47 168.69 C64.2 169.49 63.94 170.28 63.66 171.1 C59.87 182.45 56.08 193.8 52.3 205.15 C52.03 205.95 51.76 206.75 51.48 207.58 C47.02 220.96 42.55 234.34 38.09 247.72 C35.34 255.95 32.6 264.17 29.85 272.39 C27.98 278 26.11 283.6 24.24 289.21 C23.16 292.45 22.08 295.68 21 298.91 C19.83 302.41 18.66 305.91 17.49 309.41 C17.15 310.44 16.81 311.46 16.45 312.52 C16.14 313.45 15.83 314.39 15.51 315.35 C15.24 316.16 14.97 316.96 14.69 317.8 C14.05 319.84 13.52 321.92 13 324 C-75.44 324 -163.88 324 -255 324 C-251.62 311.62 -251.62 311.62 -250.25 307.57 C-249.93 306.65 -249.62 305.72 -249.3 304.77 C-248.8 303.32 -248.8 303.32 -248.3 301.84 C-247.94 300.8 -247.59 299.76 -247.22 298.68 C-246.07 295.29 -244.91 291.89 -243.75 288.5 C-242.93 286.11 -242.12 283.71 -241.3 281.32 C-236.16 266.23 -230.94 251.17 -225.66 236.13 C-220.17 220.45 -214.82 204.73 -209.5 189 C-203.6 171.56 -197.64 154.14 -191.54 136.77 C-185.32 119.02 -179.27 101.22 -173.25 83.41 C-169.88 73.43 -166.49 63.45 -163.03 53.5 C-162.59 52.22 -162.59 52.22 -162.14 50.92 C-160.12 45.12 -160.12 45.12 -159 44 C-155.97 43.33 -152.88 42.91 -149.81 42.44 C-148.96 42.3 -148.11 42.16 -147.23 42.02 C-142.79 41.32 -138.51 40.72 -134 41 C-133.67 41.33 -133.34 41.66 -133 42 C-131.15 42.23 -129.3 42.41 -127.44 42.56 C-126.43 42.65 -125.41 42.73 -124.37 42.82 C-123.59 42.88 -122.81 42.94 -122 43 C-121.8 43.9 -121.8 43.9 -121.59 44.83 C-120.41 49.2 -119.72 51.46 -116 54.25 C-114.68 54.87 -113.35 55.45 -112 56 C-110.08 56.85 -108.16 57.7 -106.25 58.56 C-104.87 59.15 -104.87 59.15 -103.45 59.75 C-99.49 61.77 -99.49 61.77 -98 64 C-97.53 66.66 -97.29 69.32 -97 72 C-97.95 72.01 -97.95 72.01 -98.92 72.02 C-105.49 72.08 -112.06 72.17 -118.62 72.26 C-121.08 72.3 -123.53 72.32 -125.98 72.35 C-129.51 72.38 -133.03 72.43 -136.55 72.49 C-137.65 72.49 -138.75 72.5 -139.88 72.51 C-140.91 72.53 -141.93 72.55 -142.98 72.57 C-143.88 72.58 -144.78 72.59 -145.7 72.6 C-148.46 73.08 -149.36 73.76 -151 76 C-151.51 80.05 -151.51 80.05 -149.88 83.66 C-147.14 85.62 -144.92 85.44 -141.58 85.51 C-139.7 85.56 -139.7 85.56 -137.78 85.62 C-136.47 85.64 -135.16 85.66 -133.81 85.69 C-132.48 85.72 -131.14 85.76 -129.81 85.79 C-126.54 85.87 -123.27 85.94 -120 86 C-120.66 86.99 -121.32 87.98 -122 89 C-123.07 92.96 -123.17 96.79 -123.19 100.88 C-123.2 102.05 -123.22 103.22 -123.23 104.43 C-122.99 108.2 -122.09 111.39 -121 115 C-122.26 115.01 -123.51 115.03 -124.81 115.04 C-129.47 115.1 -134.12 115.18 -138.78 115.26 C-140.8 115.3 -142.81 115.32 -144.83 115.35 C-147.73 115.38 -150.62 115.43 -153.52 115.49 C-154.42 115.49 -155.33 115.5 -156.26 115.51 C-157.1 115.53 -157.94 115.55 -158.8 115.57 C-159.91 115.58 -159.91 115.58 -161.04 115.6 C-163.56 116.11 -164.46 116.97 -166 119 C-166.37 121.99 -166.58 124.03 -165 126.66 C-161.8 128.8 -158.37 128.41 -154.66 128.38 C-153.79 128.39 -152.93 128.39 -152.05 128.4 C-149.15 128.41 -146.25 128.4 -143.35 128.39 C-141.28 128.39 -139.21 128.4 -137.14 128.4 C-131.5 128.42 -125.86 128.41 -120.22 128.4 C-114.33 128.4 -108.43 128.4 -102.54 128.41 C-92.64 128.41 -82.74 128.41 -72.84 128.39 C-61.39 128.37 -49.94 128.38 -38.49 128.4 C-28.67 128.41 -18.84 128.41 -9.02 128.4 C-3.15 128.4 2.72 128.4 8.59 128.41 C14.11 128.42 19.63 128.41 25.15 128.39 C27.18 128.39 29.21 128.39 31.24 128.4 C34 128.41 36.76 128.4 39.53 128.38 C40.74 128.39 40.74 128.39 41.98 128.4 C45.23 128.37 47.6 128.21 50.5 126.66 C52.28 124.99 52.28 124.99 52.5 122 C52.29 118.98 52.29 118.98 50.36 117.34 C47.31 115.61 45.17 115.6 41.67 115.57 C40.39 115.55 39.11 115.53 37.79 115.51 C36.4 115.5 35 115.49 33.61 115.49 C32.18 115.47 30.75 115.45 29.32 115.43 C25.57 115.39 21.81 115.36 18.06 115.33 C14.22 115.3 10.39 115.25 6.55 115.21 C-0.96 115.12 -8.48 115.06 -16 115 C-15.52 114.25 -15.04 113.5 -14.54 112.73 C-13.91 111.75 -13.28 110.76 -12.62 109.75 C-12 108.78 -11.37 107.8 -10.73 106.8 C-10.16 105.87 -9.59 104.95 -9 104 C-8.6 103.37 -8.2 102.74 -7.78 102.09 C-6.61 98.96 -6.81 96.07 -6.88 92.75 C-6.89 91.49 -6.91 90.22 -6.93 88.92 C-6.95 87.96 -6.98 86.99 -7 86 C-5.7 85.99 -5.7 85.99 -4.37 85.98 C3.81 85.92 11.99 85.85 20.17 85.76 C24.38 85.72 28.58 85.68 32.79 85.65 C36.85 85.63 40.91 85.59 44.97 85.54 C46.52 85.52 48.06 85.51 49.61 85.5 C51.78 85.49 53.95 85.46 56.12 85.43 C57.35 85.42 58.59 85.41 59.86 85.4 C63.23 84.97 64.66 84.43 67 82 C67.67 79 67.67 79 67 76 C64.58 73.42 63.13 73.01 59.58 72.63 C58.2 72.62 56.82 72.63 55.44 72.65 C54.68 72.64 53.92 72.64 53.14 72.64 C51.5 72.64 49.86 72.64 48.22 72.65 C45.62 72.66 43.02 72.66 40.41 72.65 C33.01 72.61 25.61 72.62 18.21 72.64 C13.68 72.65 9.15 72.64 4.62 72.61 C2.9 72.6 1.18 72.61 -0.54 72.62 C-16.87 72.75 -16.87 72.75 -23.26 68.14 C-26.38 66.1 -29.38 66.29 -33.06 66.19 C-36.5 66.09 -36.5 66.09 -40 66 C-40.33 61.38 -40.66 56.76 -41 52 C-33.37 46.91 -33.37 46.91 -29.06 45.81 C-28.05 45.54 -27.04 45.28 -26 45 C-25.67 44.34 -25.34 43.68 -25 43 C-23.72 42.99 -22.44 42.99 -21.12 42.98 C-9.05 42.93 3.02 42.85 15.08 42.76 C21.28 42.72 27.49 42.68 33.69 42.65 C39.68 42.63 45.66 42.59 51.65 42.54 C53.93 42.52 56.22 42.51 58.5 42.5 C61.7 42.49 64.89 42.46 68.09 42.43 C69.51 42.43 69.51 42.43 70.97 42.44 C75.97 42.38 75.97 42.38 80.59 40.66 C82.27 38.97 82.27 38.97 82.5 36 C82.27 33.03 82.27 33.03 80.59 31.34 C76.54 29.24 72.58 29.56 68.09 29.57 C66.58 29.55 66.58 29.55 65.04 29.54 C61.72 29.51 58.4 29.5 55.08 29.49 C52.77 29.47 50.47 29.45 48.17 29.43 C42.1 29.39 36.04 29.36 29.98 29.33 C23.79 29.3 17.6 29.25 11.42 29.21 C-0.72 29.12 -12.86 29.06 -25 29 C-24.67 28.01 -24.34 27.02 -24 26 C-20.4 24.48 -17.95 24 -14 24 C-14 23.34 -14 22.68 -14 22 C-9.53 18 -9.53 18 -7 18 C-5.48 15.06 -4.17 12.07 -2.94 9 C-2.6 8.15 -2.25 7.31 -1.9 6.44 C-1.11 4.3 -0.53 2.22 0 0 Z " fill="#CEE9FE" transform="translate(755,615)"/>
<path d="M0 0 C0.98 0.01 1.97 0.01 2.98 0.02 C9.97 0.09 9.97 0.09 11.12 1.25 C11.7 4.34 12.16 7.45 12.62 10.56 C12.85 13.16 12.85 13.16 14.12 14.25 C14.39 15.88 14.59 17.51 14.77 19.15 C14.89 20.18 15.01 21.2 15.13 22.26 C15.25 23.37 15.37 24.48 15.5 25.62 C16.51 34.48 17.65 43.28 19.21 52.06 C20.03 56.86 20.24 61.38 20.12 66.25 C18.86 66.4 17.6 66.54 16.3 66.7 C4.26 68.18 -7.48 70.35 -19.32 72.98 C-29.94 75.32 -40.61 77.12 -51.34 78.83 C-54.76 79.4 -58.16 80.03 -61.56 80.69 C-70.55 82.41 -79.57 83.93 -88.59 85.45 C-96.35 86.77 -104.01 88.22 -111.62 90.25 C-116.56 91.49 -121.57 92.16 -126.6 92.91 C-131.55 93.65 -136.49 94.42 -141.44 95.19 C-142.48 95.35 -143.52 95.5 -144.59 95.67 C-150.86 96.65 -156.93 97.98 -163.07 99.57 C-167.04 100.53 -171.02 101.1 -175.06 101.62 C-184.1 102.89 -193.01 104.6 -201.95 106.45 C-206.97 107.49 -211.99 108.46 -217.06 109.28 C-221.32 109.97 -225.51 110.8 -229.72 111.77 C-233.56 112.63 -237.44 113.31 -241.31 114 C-242.23 114.17 -243.14 114.33 -244.09 114.5 C-250.17 115.6 -256.26 116.67 -262.34 117.74 C-263.08 117.87 -263.82 118 -264.58 118.13 C-268.25 118.78 -271.91 119.42 -275.58 120.06 C-276.97 120.3 -278.36 120.54 -279.75 120.79 C-280.42 120.9 -281.1 121.02 -281.79 121.14 C-285.22 121.75 -288.63 122.39 -292.04 123.1 C-292.71 123.24 -293.38 123.38 -294.07 123.52 C-295.91 123.91 -297.75 124.3 -299.59 124.7 C-304.01 125.44 -307.48 125.93 -311.56 123.94 C-317.71 116.8 -317.61 105.3 -318.44 96.31 C-319.17 88.57 -320.04 80.94 -321.38 73.28 C-322.28 67.77 -322.88 62.23 -323.5 56.69 C-323.63 55.55 -323.77 54.4 -323.91 53.23 C-326.04 34.15 -326.04 34.15 -323 29.19 C-314.85 24.13 -303.99 24.71 -294.69 24.19 C-292.05 24.03 -289.41 23.87 -286.77 23.71 C-285.61 23.65 -284.46 23.58 -283.26 23.52 C-279.77 23.24 -276.34 22.75 -272.88 22.25 C-271.42 22.15 -269.97 22.08 -268.51 22.04 C-267.33 22 -267.33 22 -266.12 21.96 C-265.28 21.93 -264.43 21.9 -263.56 21.88 C-255.73 21.56 -248.02 20.86 -240.25 19.88 C-225.94 18.07 -211.58 17.17 -197.2 16.25 C-195.82 16.16 -195.82 16.16 -194.42 16.07 C-192.69 15.96 -190.95 15.85 -189.22 15.74 C-188.44 15.69 -187.66 15.64 -186.86 15.59 C-186.19 15.55 -185.51 15.51 -184.81 15.46 C-182.76 15.24 -180.87 14.76 -178.88 14.25 C-177.02 14.08 -175.16 13.96 -173.29 13.86 C-172.16 13.79 -171.02 13.72 -169.85 13.66 C-168.6 13.58 -167.35 13.51 -166.06 13.44 C-157.63 12.93 -149.21 12.34 -140.82 11.41 C-140.13 11.33 -139.44 11.25 -138.73 11.17 C-137.28 11.01 -135.83 10.85 -134.38 10.69 C-120.18 9.11 -105.98 7.93 -91.73 6.98 C-90.93 6.93 -90.12 6.88 -89.29 6.82 C-81.06 6.28 -72.84 5.75 -64.61 5.24 C-60.72 4.99 -56.83 4.75 -52.94 4.5 C-52.19 4.45 -51.44 4.4 -50.66 4.35 C-40.43 3.68 -30.3 2.66 -20.15 1.22 C-13.41 0.27 -6.82 -0.16 0 0 Z " fill="#58A9E6" transform="translate(509.875,605.75)"/>
<path d="M0 0 C3.62 0.44 3.62 0.44 5.66 2.64 C7.51 5.27 9.18 7.9 10.77 10.7 C11.36 11.72 11.94 12.75 12.55 13.8 C13.17 14.9 13.8 16 14.44 17.12 C15.44 18.87 16.44 20.62 17.44 22.36 C18.47 24.17 19.51 25.99 20.55 27.8 C23.85 33.58 27.18 39.35 30.5 45.12 C31.12 46.21 31.74 47.29 32.39 48.41 C35.05 53.05 37.73 57.66 40.57 62.19 C41 62.88 41.42 63.57 41.87 64.28 C42.96 66.02 44.07 67.75 45.18 69.48 C47.26 73.75 47.11 76.92 45.68 81.42 C45.22 82.56 44.76 83.69 44.28 84.86 C41.16 92.79 38.41 100.84 35.72 108.93 C35.5 109.59 35.27 110.26 35.04 110.95 C33.63 115.18 32.23 119.4 30.83 123.62 C29.92 126.35 29.02 129.08 28.11 131.81 C23.04 147 18.04 162.2 13.1 177.43 C5.08 202.13 -3.09 226.78 -11.29 251.43 C-12.02 253.62 -12.75 255.82 -13.48 258.01 C-16.9 268.28 -20.31 278.54 -23.73 288.8 C-27.65 300.57 -31.56 312.33 -35.47 324.1 C-38.52 333.28 -41.58 342.46 -44.64 351.64 C-46.45 357.09 -48.27 362.54 -50.08 368 C-51.77 373.09 -53.46 378.18 -55.16 383.27 C-55.78 385.14 -56.4 387 -57.02 388.87 C-57.86 391.41 -58.71 393.95 -59.56 396.49 C-59.93 397.6 -59.93 397.6 -60.3 398.73 C-62.4 404.96 -64.12 409.53 -70.22 412.69 C-74.64 414.23 -79.2 413.99 -83.84 413.95 C-84.99 413.96 -86.13 413.97 -87.32 413.97 C-91.16 413.99 -95.01 413.98 -98.85 413.97 C-101.61 413.98 -104.37 413.99 -107.13 414 C-113.84 414.02 -120.55 414.02 -127.26 414.01 C-132.72 414 -138.17 414.01 -143.63 414.01 C-144.41 414.01 -145.18 414.01 -145.98 414.01 C-147.56 414.02 -149.14 414.02 -150.72 414.02 C-165.51 414.04 -180.31 414.03 -195.1 414.01 C-208.64 414 -222.17 414.01 -235.7 414.04 C-249.6 414.07 -263.5 414.08 -277.4 414.07 C-278.98 414.07 -280.55 414.07 -282.12 414.07 C-282.89 414.07 -283.67 414.07 -284.46 414.07 C-289.91 414.06 -295.36 414.07 -300.81 414.09 C-307.45 414.11 -314.09 414.11 -320.73 414.08 C-324.12 414.07 -327.5 414.07 -330.89 414.09 C-334.57 414.1 -338.24 414.09 -341.91 414.07 C-342.98 414.08 -344.05 414.09 -345.15 414.1 C-351.88 414.02 -355.37 413.03 -360.38 408.44 C-363.56 403 -364.32 397.55 -362.91 391.43 C-362.24 389.3 -361.5 387.21 -360.73 385.11 C-360.3 383.92 -360.3 383.92 -359.87 382.69 C-359.25 380.96 -358.62 379.22 -357.99 377.49 C-356.25 372.7 -354.56 367.89 -352.85 363.08 C-352.49 362.06 -352.13 361.04 -351.75 359.99 C-347.89 349.14 -344.2 338.22 -340.51 327.31 C-334.41 309.22 -328.22 291.16 -321.9 273.15 C-316.8 258.61 -311.82 244.03 -306.88 229.44 C-301.25 212.85 -295.56 196.29 -289.77 179.76 C-282.86 160.02 -276.1 140.24 -269.38 120.44 C-271.02 120.11 -272.67 119.78 -274.38 119.44 C-274.38 119.11 -274.38 118.78 -274.38 118.44 C-273.07 118.38 -271.77 118.32 -270.43 118.25 C-268.7 118.17 -266.98 118.08 -265.25 118 C-264.39 117.96 -263.54 117.92 -262.66 117.88 C-261.82 117.84 -260.98 117.8 -260.12 117.75 C-259.35 117.72 -258.59 117.68 -257.8 117.64 C-254.96 117.4 -252.18 116.94 -249.38 116.44 C-261.17 152.05 -273.19 187.58 -285.6 222.98 C-291.55 239.97 -297.34 257.01 -303.1 274.07 C-308.59 290.29 -314.15 306.49 -319.82 322.65 C-326.24 340.92 -332.45 359.26 -338.65 377.61 C-339.03 378.71 -339.4 379.82 -339.79 380.96 C-340.49 383.05 -341.2 385.14 -341.9 387.23 C-342.21 388.15 -342.53 389.08 -342.85 390.03 C-343.12 390.83 -343.39 391.64 -343.67 392.47 C-344.38 394.44 -344.38 394.44 -345.38 396.44 C-256.93 396.44 -168.5 396.44 -77.38 396.44 C-77.05 394.13 -76.71 391.82 -76.38 389.44 C-75.89 387.65 -75.36 385.88 -74.77 384.13 C-74.44 383.13 -74.1 382.12 -73.76 381.08 C-73.21 379.45 -73.21 379.45 -72.65 377.79 C-72.26 376.62 -71.87 375.45 -71.47 374.25 C-70.4 371.02 -69.31 367.79 -68.23 364.56 C-67.06 361.07 -65.9 357.57 -64.74 354.08 C-62.72 348.04 -60.7 341.99 -58.67 335.94 C-55.74 327.18 -52.81 318.41 -49.89 309.65 C-45.14 295.4 -40.38 281.15 -35.61 266.91 C-31 253.12 -26.39 239.33 -21.79 225.53 C-21.51 224.69 -21.22 223.84 -20.93 222.96 C-17.83 213.69 -14.74 204.42 -11.64 195.14 C-11.23 193.91 -11.23 193.91 -10.81 192.66 C-9.17 187.76 -9.17 187.76 -7.54 182.85 C-4.35 173.31 -1.17 163.77 2.02 154.23 C4.03 148.23 6.03 142.24 8.04 136.24 C9.19 132.79 10.34 129.34 11.5 125.89 C16.33 111.45 21.11 96.99 25.62 82.44 C25.04 82.43 24.46 82.43 23.86 82.42 C23.09 82.41 22.32 82.41 21.53 82.4 C20.78 82.39 20.02 82.39 19.23 82.38 C15.78 82.35 12.32 82.29 8.86 82.23 C6.97 82.2 5.07 82.18 3.17 82.17 C0.43 82.15 -2.3 82.1 -5.04 82.05 C-6.31 82.05 -6.31 82.05 -7.6 82.04 C-13.82 81.89 -17.51 80.24 -22.05 75.8 C-25.49 71.18 -25.95 68.17 -25.38 62.44 C-25.05 61.45 -24.71 60.46 -24.38 59.44 C-25.63 59.46 -25.63 59.46 -26.9 59.48 C-34.79 59.6 -42.67 59.67 -50.56 59.67 C-54.61 59.67 -58.66 59.69 -62.72 59.77 C-66.64 59.84 -70.55 59.86 -74.47 59.83 C-75.96 59.83 -77.45 59.85 -78.94 59.89 C-83.62 60.02 -87.88 59.92 -92.38 58.44 C-95.12 55.57 -96.83 52.86 -98.61 49.32 C-101.74 44.21 -106.76 42.8 -112.38 41.44 C-116.05 40.86 -119.66 40.52 -123.38 40.44 C-123.88 37.35 -124.38 34.27 -124.88 31.19 C-125.02 30.31 -125.16 29.44 -125.31 28.54 C-125.44 27.7 -125.58 26.85 -125.72 25.98 C-125.84 25.21 -125.97 24.43 -126.1 23.64 C-126.38 21.44 -126.38 21.44 -126.38 17.44 C-88.1 17.11 -49.82 16.78 -10.38 16.44 C-8.73 11.82 -7.08 7.2 -5.38 2.44 C-3.38 0.44 -3.38 0.44 0 0 Z " fill="#2897D0" transform="translate(845.375,542.5625)"/>
<path d="M0 0 C19.42 12.27 19.42 12.27 22 20 C22.99 20.33 23.98 20.66 25 21 C26.25 22.71 26.25 22.71 27.44 24.81 C28.78 27.17 29.95 28.95 31.92 30.83 C34.05 33.05 35.31 35.05 36.73 37.77 C37.2 38.68 37.68 39.59 38.16 40.52 C38.65 41.46 39.13 42.41 39.62 43.38 C40.36 44.77 40.36 44.77 41.11 46.2 C45.04 53.78 47.27 60.64 48.44 69.07 C48.56 69.95 48.69 70.82 48.82 71.73 C49.08 73.58 49.35 75.44 49.6 77.3 C49.99 80.07 50.39 82.84 50.79 85.61 C52.19 95.47 53.38 105.34 54.33 115.26 C54.95 121.71 55.88 128.06 57.03 134.43 C58.87 145.16 58.87 145.16 58 150 C55.92 152.3 55.92 152.3 53.19 153.88 C46.76 157.71 46.76 157.71 43 164 C42.72 166.65 42.72 166.65 42.81 169.44 C42.82 170.83 42.82 170.83 42.83 172.25 C42.93 174.96 42.93 174.96 43.51 177.41 C44 180 44 180 44 187 C33.11 187.99 33.11 187.99 22 189 C21.34 185.7 20.68 182.4 20 179 C18.26 172.49 16.06 168.09 10.37 164.31 C6.75 162.31 3.03 160.6 -0.78 158.98 C-3 158 -3 158 -4 157 C-4.34 154.8 -4.61 152.6 -4.87 150.39 C-4.95 149.71 -5.03 149.03 -5.11 148.33 C-5.28 146.88 -5.45 145.42 -5.61 143.96 C-6.91 132.65 -8.25 121.37 -10.14 110.14 C-10.91 105.37 -11.11 100.84 -11 96 C-10.34 96 -9.68 96 -9 96 C-9 95.34 -9 94.68 -9 94 C-6.52 93.5 -6.52 93.5 -4 93 C-4 92.34 -4 91.68 -4 91 C-0.54 88 -0.54 88 2 88 C2.25 87.44 2.5 86.89 2.75 86.31 C4 84 4 84 5.88 81.81 C12.08 73.6 13.2 64.92 13.19 54.81 C13.19 54.07 13.19 53.33 13.19 52.57 C13.14 42.04 13.14 42.04 10.04 32.15 C8.54 29.05 7.94 25.77 7.19 22.44 C5.74 16.29 3.83 10.79 0.95 5.14 C0 3 0 3 0 0 Z " fill="#57A9E5" transform="translate(654,497)"/>
<path d="M0 0 C4.78 3.9 7.04 8.52 9.69 13.94 C18.47 31.18 29.08 47.17 48 54 C55.39 55.44 61.58 53.47 68.47 50.78 C71 50 71 50 74 51 C75.17 52.78 75.17 52.78 76.19 54.94 C76.53 55.65 76.88 56.36 77.23 57.09 C78 59 78 59 78 61 C76.13 61.82 74.25 62.63 72.38 63.44 C71.33 63.89 70.29 64.34 69.21 64.81 C59.43 68.44 48.3 68.32 38.68 64.32 C23.95 57.09 11.39 44.79 4 30 C4.03 31.09 4.03 31.09 4.06 32.19 C5.12 74.36 5.12 74.36 -7.92 89.18 C-16.43 97.11 -24.55 97.71 -35.68 97.4 C-56.51 96.2 -76.13 84.94 -94 75 C-93.75 75.51 -93.51 76.01 -93.25 76.54 C-77.61 108.86 -77.61 108.86 -77.75 125.94 C-77.74 127.34 -77.74 127.34 -77.73 128.78 C-77.77 144 -83.25 155.76 -93.78 166.83 C-96.74 169.72 -99.78 172.4 -103 175 C-106.74 173.29 -108.66 171.43 -111 168 C-111 165 -111 165 -109.46 163.42 C-108.77 162.87 -108.08 162.32 -107.38 161.75 C-98.54 154.31 -92.15 145.67 -90.75 133.85 C-89.13 109.48 -99.66 87.88 -114.29 68.86 C-116.32 65.47 -116.83 62.93 -117 59 C-115.23 56.2 -113.97 54.48 -111 53 C-104.6 51.92 -100.58 55.43 -95.5 58.81 C-79.24 69.23 -62.59 77.65 -44 83 C-43.01 83.32 -43.01 83.32 -42 83.64 C-38.74 84.23 -35.48 84.18 -32.19 84.19 C-31.5 84.2 -30.81 84.21 -30.11 84.22 C-25.45 84.24 -21.36 83.82 -17 82 C-15.57 79.7 -15.57 79.7 -15 77 C-14.67 76.23 -14.34 75.47 -14 74.68 C-13.67 73.9 -13.34 73.12 -13 72.31 C-12.67 71.55 -12.34 70.78 -12 69.99 C-9.37 62.14 -8.64 54.42 -8.69 46.19 C-8.69 45.2 -8.69 44.22 -8.69 43.2 C-8.8 34.48 -9.9 26.05 -11.34 17.47 C-12.94 7.45 -12.94 7.45 -10.12 3.12 C-6.82 -0.18 -4.64 -0.55 0 0 Z " fill="#0570A8" transform="translate(630,321)"/>
<path d="M0 0 C7.61 5.99 12.24 13.76 14.81 23.06 C15.95 34.89 13.61 44.1 6.25 53.38 C5.45 54.26 4.64 55.15 3.81 56.06 C3.15 56.06 2.49 56.06 1.81 56.06 C1.48 57.05 1.15 58.04 0.81 59.06 C-8.33 65.01 -17.11 68.94 -28.19 67.06 C-38.21 64.92 -47.58 59.24 -53.46 50.8 C-58.65 41.5 -60.42 32.69 -59.19 22.06 C-55.26 9.69 -49.66 2.26 -38.19 -3.94 C-25.17 -9.69 -11.55 -7.92 0 0 Z " fill="#0470A8" transform="translate(254.1875,647.9375)"/>
<path d="M0 0 C38.61 0 77.22 0 117 0 C105 37 105 37 103 41 C94.14 41.28 85.29 41.49 76.43 41.62 C72.31 41.68 68.2 41.77 64.08 41.91 C60.11 42.04 56.14 42.11 52.16 42.14 C50.65 42.16 49.14 42.2 47.62 42.27 C42.89 42.46 38.57 42.44 34 41 C31.23 38.14 29.53 35.45 27.76 31.9 C25.13 27.57 21.77 26.36 17.12 24.76 C12.43 23.62 7.82 23.1 3 23 C2.49 19.92 2 16.83 1.5 13.75 C1.36 12.88 1.21 12 1.07 11.11 C0.93 10.26 0.8 9.42 0.66 8.55 C0.53 7.77 0.4 7 0.28 6.2 C0 4 0 4 0 0 Z " fill="#CEE9FE" transform="translate(719,560)"/>
<path d="M0 0 C3.69 0.38 3.69 0.38 5.72 2.57 C7.57 5.2 9.24 7.84 10.83 10.64 C11.42 11.66 12.01 12.68 12.61 13.74 C13.23 14.84 13.86 15.93 14.5 17.06 C15.5 18.81 16.5 20.55 17.5 22.3 C18.54 24.11 19.57 25.92 20.61 27.74 C23.91 33.52 27.24 39.29 30.56 45.06 C31.18 46.15 31.81 47.23 32.45 48.35 C35.11 52.98 37.8 57.6 40.63 62.13 C41.06 62.82 41.49 63.51 41.93 64.22 C43.02 65.96 44.13 67.69 45.25 69.42 C46.87 72.75 47.22 74.72 46.69 78.38 C45.66 80.21 45.66 80.21 43.69 81.38 C41.13 81.7 38.75 81.89 36.19 81.94 C30.66 82.01 30.66 82.01 25.69 84.38 C25.69 83.72 25.69 83.06 25.69 82.38 C24.51 82.37 23.33 82.36 22.11 82.35 C17.72 82.31 13.32 82.24 8.93 82.17 C7.03 82.14 5.13 82.12 3.23 82.1 C0.49 82.08 -2.24 82.04 -4.98 81.98 C-6.24 81.98 -6.24 81.98 -7.53 81.98 C-13.76 81.83 -17.45 80.17 -21.99 75.73 C-22.39 75.2 -22.78 74.67 -23.19 74.12 C-23.6 73.6 -24.01 73.08 -24.43 72.55 C-26.91 66.45 -24.95 60.17 -22.86 54.28 C-22.61 53.53 -22.35 52.78 -22.09 52.01 C-21.28 49.63 -20.45 47.25 -19.62 44.88 C-18.82 42.54 -18.02 40.2 -17.22 37.85 C-16.69 36.31 -16.16 34.76 -15.63 33.22 C-13.42 26.77 -11.38 20.28 -9.4 13.76 C-5.15 0.58 -5.15 0.58 0 0 Z " fill="#2A98D0" transform="translate(845.3125,542.625)"/>
<path d="M0 0 C1.29 -0.01 1.29 -0.01 2.61 -0.02 C5.5 -0.03 8.39 -0.02 11.29 -0.01 C13.36 -0.02 15.43 -0.02 17.5 -0.03 C23.13 -0.05 28.76 -0.04 34.39 -0.03 C40.28 -0.02 46.16 -0.03 52.05 -0.03 C61.94 -0.04 71.83 -0.03 81.72 -0.01 C93.16 0.01 104.59 0 116.03 -0.02 C125.84 -0.04 135.66 -0.04 145.47 -0.03 C151.33 -0.02 157.2 -0.02 163.06 -0.04 C168.57 -0.05 174.09 -0.04 179.6 -0.02 C181.62 -0.01 183.65 -0.01 185.67 -0.02 C188.44 -0.03 191.2 -0.02 193.96 0 C194.76 -0.01 195.56 -0.02 196.39 -0.03 C200.12 0.03 202.34 0.38 205.54 2.35 C207.54 4.51 207.54 4.51 208.17 7.51 C207.54 10.51 207.54 10.51 205.54 12.66 C201.66 15.05 198.38 15.06 193.96 15.02 C192.66 15.03 192.66 15.03 191.34 15.03 C188.45 15.05 185.56 15.04 182.67 15.03 C180.6 15.03 178.52 15.04 176.45 15.05 C170.82 15.07 165.19 15.06 159.56 15.05 C153.67 15.04 147.78 15.04 141.9 15.05 C132.01 15.06 122.12 15.05 112.24 15.03 C100.8 15.01 89.36 15.01 77.92 15.04 C68.11 15.05 58.3 15.06 48.48 15.05 C42.62 15.04 36.75 15.04 30.89 15.05 C25.38 15.06 19.87 15.06 14.35 15.03 C12.33 15.03 10.3 15.03 8.28 15.04 C5.52 15.05 2.76 15.04 0 15.02 C-0.81 15.02 -1.61 15.03 -2.44 15.04 C-6 14.99 -8.06 14.8 -10.96 12.66 C-13.01 9.71 -13.04 8.03 -12.46 4.51 C-9.15 -0.23 -5.35 -0.06 0 0 Z " fill="#1E749F" transform="translate(555.4577484130859,858.4920654296875)"/>
<path d="M0 0 C1.29 -0.01 1.29 -0.01 2.61 -0.02 C5.5 -0.03 8.39 -0.02 11.29 -0.01 C13.36 -0.02 15.43 -0.02 17.5 -0.03 C23.13 -0.05 28.76 -0.04 34.39 -0.03 C40.28 -0.02 46.16 -0.03 52.05 -0.03 C61.94 -0.04 71.83 -0.03 81.72 -0.01 C93.16 0.01 104.59 0 116.03 -0.02 C125.84 -0.04 135.66 -0.04 145.47 -0.03 C151.33 -0.02 157.2 -0.02 163.06 -0.04 C168.57 -0.05 174.09 -0.04 179.6 -0.02 C181.62 -0.01 183.65 -0.01 185.67 -0.02 C188.44 -0.03 191.2 -0.02 193.96 0 C194.76 -0.01 195.56 -0.02 196.39 -0.03 C200.12 0.03 202.34 0.38 205.54 2.35 C207.54 4.51 207.54 4.51 208.17 7.51 C207.54 10.51 207.54 10.51 205.54 12.66 C201.66 15.05 198.38 15.06 193.96 15.02 C192.66 15.03 192.66 15.03 191.34 15.03 C188.45 15.05 185.56 15.04 182.67 15.03 C180.6 15.03 178.52 15.04 176.45 15.05 C170.82 15.07 165.19 15.06 159.56 15.05 C153.67 15.04 147.78 15.04 141.9 15.05 C132.01 15.06 122.12 15.05 112.24 15.03 C100.8 15.01 89.36 15.01 77.92 15.04 C68.11 15.05 58.3 15.06 48.48 15.05 C42.62 15.04 36.75 15.04 30.89 15.05 C25.38 15.06 19.87 15.06 14.35 15.03 C12.33 15.03 10.3 15.03 8.28 15.04 C5.52 15.05 2.76 15.04 0 15.02 C-0.81 15.02 -1.61 15.03 -2.44 15.04 C-6 14.99 -8.06 14.8 -10.96 12.66 C-13.01 9.71 -13.04 8.03 -12.46 4.51 C-9.15 -0.23 -5.35 -0.06 0 0 Z " fill="#1E749F" transform="translate(570.4577484130859,815.4920654296875)"/>
<path d="M0 0 C1.29 -0.01 1.29 -0.01 2.61 -0.02 C5.5 -0.03 8.39 -0.02 11.29 -0.01 C13.36 -0.02 15.43 -0.02 17.5 -0.03 C23.13 -0.05 28.76 -0.04 34.39 -0.03 C40.28 -0.02 46.16 -0.03 52.05 -0.03 C61.94 -0.04 71.83 -0.03 81.72 -0.01 C93.16 0.01 104.59 0 116.03 -0.02 C125.84 -0.04 135.66 -0.04 145.47 -0.03 C151.33 -0.02 157.2 -0.02 163.06 -0.04 C168.57 -0.05 174.09 -0.04 179.6 -0.02 C181.62 -0.01 183.65 -0.01 185.67 -0.02 C188.44 -0.03 191.2 -0.02 193.96 0 C194.76 -0.01 195.56 -0.02 196.39 -0.03 C200.12 0.03 202.34 0.38 205.54 2.35 C207.54 4.51 207.54 4.51 208.17 7.51 C207.54 10.51 207.54 10.51 205.54 12.66 C201.66 15.05 198.38 15.06 193.96 15.02 C192.66 15.03 192.66 15.03 191.34 15.03 C188.45 15.05 185.56 15.04 182.67 15.03 C180.6 15.03 178.52 15.04 176.45 15.05 C170.82 15.07 165.19 15.06 159.56 15.05 C153.67 15.04 147.78 15.04 141.9 15.05 C132.01 15.06 122.12 15.05 112.24 15.03 C100.8 15.01 89.36 15.01 77.92 15.04 C68.11 15.05 58.3 15.06 48.48 15.05 C42.62 15.04 36.75 15.04 30.89 15.05 C25.38 15.06 19.87 15.06 14.35 15.03 C12.33 15.03 10.3 15.03 8.28 15.04 C5.52 15.05 2.76 15.04 0 15.02 C-0.81 15.02 -1.61 15.03 -2.44 15.04 C-6 14.99 -8.06 14.8 -10.96 12.66 C-13.01 9.71 -13.04 8.03 -12.46 4.51 C-9.15 -0.23 -5.35 -0.06 0 0 Z " fill="#1E749F" transform="translate(585.4577484130859,772.4920654296875)"/>
<path d="M0 0 C2.14 0.23 2.14 0.23 4.81 0.75 C5.69 0.91 6.56 1.07 7.46 1.23 C10.24 2.07 11.89 3.01 14 5 C14.96 10.77 13 15.3 10.88 20.64 C9.88 22.89 9.88 22.89 10 25 C10.7 24.6 11.39 24.19 12.11 23.77 C15.27 21.95 18.45 20.16 21.62 18.38 C22.72 17.74 23.81 17.1 24.94 16.45 C26 15.85 27.07 15.26 28.16 14.65 C29.14 14.09 30.11 13.54 31.12 12.97 C34.83 11.72 36.5 12.37 40 14 C42.44 16.19 42.44 16.19 44 19 C44.06 22.56 44.06 22.56 43 26 C38.98 29.89 34.22 31.97 29.19 34.25 C28.4 34.61 27.61 34.98 26.8 35.35 C24.87 36.24 22.93 37.12 21 38 C22.36 42.32 23.79 46.56 25.57 50.73 C25.85 51.38 26.12 52.03 26.41 52.7 C26.96 54.01 27.53 55.3 28.11 56.59 C29.88 60.79 30.3 63.61 29 68 C26.69 69.88 25.02 70 22.06 70.31 C18.5 69.95 16.88 69.09 14 67 C12.59 64.76 12.59 64.76 11.5 62.12 C11.09 61.16 10.69 60.2 10.27 59.2 C8.47 54.67 6.71 50.12 5.02 45.55 C4.24 43.1 4.24 43.1 3 42 C0.69 47.94 -1.62 53.88 -4 60 C-15.03 57.55 -15.03 57.55 -18 54 C-18.77 47.51 -16.61 42.3 -14.32 36.29 C-13.94 35.28 -13.57 34.27 -13.18 33.23 C-12.39 31.11 -11.59 28.99 -10.79 26.87 C-9.56 23.62 -8.34 20.36 -7.13 17.1 C-6.36 15.04 -5.59 12.97 -4.82 10.91 C-4.45 9.93 -4.08 8.96 -3.71 7.95 C-3.19 6.6 -3.19 6.6 -2.67 5.23 C-2.37 4.43 -2.07 3.64 -1.77 2.82 C-1 1 -1 1 0 0 Z " fill="#030303" transform="translate(880,425)"/>
<path d="M0 0 C1.76 5.38 2.39 10.3 2.62 15.94 C2.66 16.72 2.7 17.5 2.74 18.3 C2.84 20.2 2.92 22.1 3 24 C-2.94 24.77 -8.87 25.55 -14.81 26.31 C-16.14 26.48 -16.14 26.48 -17.49 26.66 C-29.87 28.26 -42.25 29.77 -54.67 31.01 C-58.98 31.46 -63.13 31.95 -67.32 33.07 C-70.89 33.97 -73.84 34.21 -77.5 34.12 C-78.54 34.11 -79.58 34.09 -80.66 34.07 C-81.82 34.04 -81.82 34.04 -83 34 C-83.51 30.92 -84 27.83 -84.5 24.75 C-84.64 23.88 -84.79 23 -84.93 22.11 C-85.07 21.26 -85.2 20.42 -85.34 19.55 C-85.53 18.38 -85.53 18.38 -85.72 17.2 C-86 15 -86 15 -86 11 C-79.86 9.55 -73.75 8.43 -67.5 7.56 C-66.16 7.37 -66.16 7.37 -64.78 7.18 C-56.65 6.05 -48.49 5.08 -40.33 4.13 C-32.56 3.22 -24.81 2.15 -17.07 0.91 C-11.35 0.04 -5.79 -0.14 0 0 Z " fill="#57A8E4" transform="translate(627,613)"/>
<path d="M0 0 C42.57 0.33 85.14 0.66 129 1 C123 17 123 17 122 18 C120.49 18.1 118.98 18.12 117.48 18.12 C116.01 18.12 116.01 18.12 114.51 18.12 C113.43 18.12 112.35 18.12 111.24 18.11 C109.54 18.11 109.54 18.11 107.81 18.11 C104.05 18.11 100.29 18.11 96.53 18.1 C93.93 18.1 91.33 18.09 88.73 18.09 C82.57 18.09 76.42 18.08 70.26 18.07 C63.26 18.06 56.25 18.06 49.25 18.05 C34.83 18.04 20.42 18.02 6 18 C6.23 19.25 6.46 20.51 6.69 21.8 C6.98 23.45 7.27 25.1 7.56 26.75 C7.71 27.58 7.87 28.4 8.02 29.25 C8.23 30.45 8.23 30.45 8.44 31.67 C8.57 32.41 8.7 33.14 8.84 33.89 C9.01 36.16 8.67 37.84 8 40 C6.1 32.13 5.1 24.3 4.23 16.26 C3.59 10.88 2.76 6.77 0 2 C0 1.34 0 0.68 0 0 Z " fill="#2796CF" transform="translate(713,542)"/>
<path d="M0 0 C6.24 -0.19 9.07 0.25 14 4 C15.41 8.73 14.76 11.66 12.95 16.18 C12.5 17.33 12.05 18.49 11.58 19.69 C10.86 21.48 10.86 21.48 10.12 23.31 C5.62 34.33 5.62 34.33 4 46 C5.81 49.23 5.81 49.23 9 51 C12.82 51.4 15.36 51.21 19 50 C19.75 47.96 20.49 45.92 21.12 43.84 C22.12 40.61 23.27 37.46 24.45 34.29 C24.88 33.11 25.32 31.92 25.77 30.71 C26.44 28.9 26.44 28.9 27.12 27.06 C27.81 25.22 27.81 25.22 28.5 23.33 C31.87 14.26 31.87 14.26 33 12 C39.3 12.53 43.38 13.38 48 18 C47.44 24.57 44.8 30.69 42.55 36.83 C41.82 38.86 41.1 40.89 40.39 42.93 C37.37 51.34 34.29 59.44 26.5 64.5 C19.14 67.66 10.05 67.09 2.62 64.44 C-4.29 61.19 -10.32 56.39 -13.3 49.19 C-15.78 41.43 -13.1 34.2 -10.38 26.88 C-10.01 25.87 -9.65 24.87 -9.28 23.84 C-6.37 15.82 -3.28 7.87 0 0 Z " fill="#040404" transform="translate(824,405)"/>
<path d="M0 0 C0.33 0 0.66 0 1 0 C1.15 3.83 1.23 7.67 1.31 11.5 C1.35 12.58 1.4 13.66 1.44 14.77 C1.56 22.95 -0.01 27.77 -5.62 33.72 C-9.68 37.68 -14.44 39.77 -19.64 41.92 C-22.12 42.89 -22.12 42.89 -24 45 C-24.46 48.12 -24.46 48.12 -24.62 51.62 C-24.7 52.81 -24.77 54 -24.85 55.23 C-24.93 56.6 -24.93 56.6 -25 58 C-25.88 58.06 -26.77 58.12 -27.68 58.18 C-35.13 58.7 -42.56 59.29 -50 60 C-47.8 51.14 -44.9 42.57 -41.87 33.97 C-41.06 31.68 -40.26 29.38 -39.47 27.08 C-38.95 25.6 -38.43 24.12 -37.91 22.64 C-37.68 21.96 -37.45 21.28 -37.21 20.58 C-35.25 15.11 -32.75 10.69 -28.55 6.64 C-23.14 4.14 -18 4.58 -12.12 4.75 C-10.96 4.77 -9.79 4.79 -8.59 4.8 C-5.73 4.85 -2.86 4.92 0 5 C0 3.35 0 1.7 0 0 Z " fill="#2998D0" transform="translate(649,538)"/>
<path d="M0 0 C1.01 -0.01 2.03 -0.03 3.07 -0.04 C5.9 0.19 7.5 0.68 9.88 2.19 C12.36 5.26 11.96 8.27 11.65 12.09 C10.38 15.51 8.79 16.98 5.88 19.19 C2.46 20.16 -0.97 20.44 -4.5 20.75 C-6.64 20.98 -8.78 21.2 -10.91 21.43 C-12.06 21.55 -13.21 21.67 -14.4 21.79 C-20.54 22.45 -26.67 23.24 -32.79 24.04 C-34.85 24.31 -36.91 24.57 -38.97 24.83 C-40.86 25.07 -40.86 25.07 -42.8 25.32 C-43.92 25.46 -45.05 25.61 -46.21 25.75 C-48.58 26.11 -50.81 26.59 -53.12 27.19 C-54.96 27.3 -56.79 27.36 -58.62 27.38 C-59.56 27.39 -60.5 27.4 -61.47 27.42 C-64.22 27.18 -65.81 26.64 -68.12 25.19 C-70.42 22.2 -70.46 18.97 -70.68 15.29 C-69.79 11.93 -67.72 10.42 -65.12 8.19 C-62.04 7.12 -62.04 7.12 -58.54 6.51 C-57.89 6.39 -57.25 6.28 -56.58 6.16 C-47.96 4.71 -39.25 3.9 -30.56 3.06 C-28.01 2.81 -25.47 2.55 -22.92 2.3 C-21.35 2.14 -19.78 1.99 -18.21 1.83 C-12.1 1.23 -6.16 0.04 0 0 Z " fill="#56A8E4" transform="translate(719.125,698.8125)"/>
<path d="M0 0 C5.3 0.66 9.94 2.29 14.9 4.16 C15.73 4.47 16.57 4.78 17.43 5.1 C20.08 6.08 22.73 7.07 25.38 8.06 C27.18 8.73 28.98 9.4 30.79 10.07 C35.19 11.71 39.6 13.35 44 15 C44.13 22.92 44.13 22.92 42 26 C39.09 27.45 37.26 27.3 34 27 C30.91 25.84 27.97 24.45 25 23 C24.85 23.54 24.69 24.08 24.53 24.64 C22.38 32.02 19.93 39.28 17.35 46.52 C16.86 47.89 16.38 49.27 15.91 50.66 C15.22 52.68 14.51 54.68 13.79 56.69 C13.37 57.88 12.96 59.07 12.53 60.29 C11 63 11 63 8.46 63.92 C5.87 64 4.21 63.7 1.81 62.75 C1.14 62.5 0.46 62.24 -0.23 61.98 C-2 61 -2 61 -4 58 C-4.6 52.7 -3.03 48.6 -1.16 43.76 C-0.87 42.99 -0.58 42.22 -0.28 41.43 C0.64 38.99 1.57 36.56 2.5 34.12 C3.13 32.47 3.75 30.81 4.38 29.15 C5.91 25.09 7.45 21.05 9 17 C7.97 16.71 7.97 16.71 6.92 16.41 C6.02 16.15 5.12 15.89 4.19 15.62 C3.29 15.37 2.4 15.11 1.48 14.85 C-1 14 -1 14 -4 12 C-4.65 7.91 -4.13 6.23 -2 2.62 C-1.34 1.76 -0.68 0.89 0 0 Z " fill="#040404" transform="translate(776,387)"/>
<path d="M0 0 C2.06 1.49 3.77 3.02 5.51 4.87 C6.34 5.74 7.16 6.6 8.01 7.5 C10.48 13.05 10.67 19.16 8.85 24.99 C6.41 29.74 1.77 34.78 -3.41 36.52 C-9.63 37.58 -15.54 37.8 -20.95 34.21 C-25.15 30.54 -28.18 26.04 -28.73 20.42 C-28.95 12.13 -27.47 8.3 -21.99 2 C-16.5 -2.67 -6.43 -2.92 0 0 Z " fill="#ECEFF3" transform="translate(241.48828125,660.12890625)"/>
<path d="M0 0 C3.89 3.41 5.98 7.25 8.38 11.75 C13.22 20.69 18.33 29.46 23.53 38.2 C24.11 39.19 24.69 40.17 25.29 41.19 C25.81 42.07 26.33 42.95 26.87 43.86 C28 46 28 46 28 48 C22.18 48.02 16.36 48.04 10.54 48.05 C8.56 48.06 6.57 48.07 4.59 48.08 C1.75 48.09 -1.09 48.09 -3.93 48.1 C-5.27 48.11 -5.27 48.11 -6.64 48.11 C-8.76 48.11 -10.88 48.06 -13 48 C-13.33 47.67 -13.66 47.34 -14 47 C-13.91 40.75 -12.28 34.95 -10.31 29.06 C-9.92 27.85 -9.92 27.85 -9.52 26.62 C-8.97 24.93 -8.41 23.25 -7.85 21.57 C-6.99 18.98 -6.15 16.39 -5.3 13.8 C-4.77 12.16 -4.23 10.52 -3.69 8.88 C-3.43 8.1 -3.18 7.32 -2.92 6.52 C-1.12 1.12 -1.12 1.12 0 0 Z " fill="#CBE8FD" transform="translate(847,564)"/>
<path d="M0 0 C0.79 0.01 1.58 0.01 2.4 0.02 C3.68 0.02 3.68 0.02 4.98 0.03 C5.88 0.03 6.78 0.04 7.7 0.05 C8.61 0.06 9.51 0.06 10.44 0.06 C12.67 0.08 14.91 0.09 17.14 0.11 C16.4 6.63 13.93 9.8 9.14 14.11 C4.73 17.1 0.08 19.17 -4.86 21.11 C-7.54 23.79 -7.24 25.51 -7.48 29.24 C-7.56 30.33 -7.63 31.43 -7.71 32.56 C-7.76 33.4 -7.81 34.24 -7.86 35.11 C-9.51 35.11 -11.16 35.11 -12.86 35.11 C-12.33 27.52 -9.9 20.81 -7.36 13.68 C-6.94 12.48 -6.52 11.28 -6.1 10.05 C-2.62 0.16 -2.62 0.16 0 0 Z " fill="#C7E6FC" transform="translate(631.857666015625,559.886474609375)"/>
<path d="M0 0 C1.98 0 3.96 0 6 0 C6 0.66 6 1.32 6 2 C6.78 2.1 7.57 2.21 8.38 2.31 C11 3 11 3 13 6 C13.68 10.59 14.37 15.84 11.8 19.9 C8.76 22.55 7.05 23 3 23 C1.56 18.68 1.56 14.36 1.28 9.84 C1.31 7.1 1.31 7.1 0 6 C-0.04 4 -0.04 2 0 0 Z " fill="#54A7E3" transform="translate(724,600)"/>
<path d="M0 0 C-6.82 4.54 -14.98 4.74 -22.94 5.62 C-24.68 5.83 -24.68 5.83 -26.46 6.03 C-29.3 6.36 -32.15 6.68 -35 7 C-30.52 2.52 -22.52 2.8 -16.49 2.29 C-13.25 1.91 -10.15 1.17 -6.98 0.41 C-4.62 -0.08 -2.4 -0.15 0 0 Z " fill="#4F99C1" transform="translate(304,730)"/>
<path d="M0 0 C0.33 0.66 0.66 1.32 1 2 C0.22 2.72 -0.57 3.44 -1.38 4.19 C-5.39 8.89 -5.41 15.08 -6 21 C-6.33 21 -6.66 21 -7 21 C-7.47 13.71 -7.36 8.98 -3 3 C-1.25 1.06 -1.25 1.06 0 0 Z " fill="#CCDEE9" transform="translate(220,662)"/>
<path d="M0 0 C0 0.66 0 1.32 0 2 C-3.04 3.52 -6.28 3.37 -9.62 3.56 C-10.68 3.63 -10.68 3.63 -11.77 3.69 C-13.51 3.8 -15.26 3.9 -17 4 C-14.06 2.04 -12.45 1.52 -9.06 0.88 C-8.21 0.71 -7.35 0.54 -6.47 0.37 C-4 0 -4 0 0 0 Z " fill="#A3C8DC" transform="translate(382,716)"/>
<path d="M0 0 C1.98 0 3.96 0 6 0 C6 0.66 6 1.32 6 2 C7.65 2.33 9.3 2.66 11 3 C10.67 3.66 10.34 4.32 10 5 C7.03 4.01 4.06 3.02 1 2 C0.67 3.32 0.34 4.64 0 6 C0 4.02 0 2.04 0 0 Z " fill="#3490C8" transform="translate(724,600)"/>
<path d="M0 0 C0.33 0.66 0.66 1.32 1 2 C1.66 2 2.32 2 3 2 C3 4.97 3 7.94 3 11 C2.67 11 2.34 11 2 11 C1.67 9.02 1.34 7.04 1 5 C0.01 5.5 0.01 5.5 -1 6 C-0.67 4.02 -0.34 2.04 0 0 Z " fill="#AAD6F2" transform="translate(621,584)"/>
</g>
</svg>
